SplineFontDB: 3.0
FontName: ConcertOne-Regular
FullName: Concert One
FamilyName: Concert One
Weight: Normal
Copyright: Copyright (c) 2011 Johan Kallas (johankallas@gmail.com),\nCopyright (c) 2011 Mihkel Virkus (mihkelvirkus@gmail.com)\nwith Reserved Font Names "Concert" and "Concert One".\n
Version: 001.001
ItalicAngle: 0
UnderlinePosition: -50
UnderlineWidth: 50
Ascent: 800
Descent: 200
sfntRevision: 0x00010042
LayerCount: 2
Layer: 0 1 "Back"  1
Layer: 1 1 "Fore"  0
XUID: [1021 288 713564382 7585938]
FSType: 0
OS2Version: 2
OS2_WeightWidthSlopeOnly: 0
OS2_UseTypoMetrics: 1
CreationTime: 1321631796
ModificationTime: 1321664037
PfmFamily: 17
TTFWeight: 400
TTFWidth: 5
LineGap: 0
VLineGap: 0
Panose: 2 0 0 0 0 0 0 0 0 0
OS2TypoAscent: 179
OS2TypoAOffset: 1
OS2TypoDescent: 0
OS2TypoDOffset: 1
OS2TypoLinegap: 0
OS2WinAscent: 0
OS2WinAOffset: 1
OS2WinDescent: 0
OS2WinDOffset: 1
HheadAscent: 0
HheadAOffset: 1
HheadDescent: 0
HheadDOffset: 1
OS2SubXSize: 700
OS2SubYSize: 650
OS2SubXOff: 0
OS2SubYOff: 140
OS2SupXSize: 700
OS2SupYSize: 650
OS2SupXOff: 0
OS2SupYOff: 477
OS2StrikeYSize: 50
OS2StrikeYPos: 250
OS2Vendor: 'pyrs'
OS2CodePages: 20000111.40000000
OS2UnicodeRanges: 80000027.00000043.00000000.00000000
MarkAttachClasses: 1
DEI: 91125
TtTable: prep
PUSHW_1
 511
SCANCTRL
PUSHB_1
 4
SCANTYPE
EndTTInstrs
LangName: 1033 "" "" "" "JohanKallas,MihkelVirkus: Concert One: 2011" "ConcertOne-Regular" "Version 1.001" "" "Concert is a trademark of Johan Kallas, Mihkel Virkus." "Johan Kallas, Mihkel Virkus" "Johan Kallas, Mihkel Virkus" "" "" "" "This Font Software is licensed under the SIL Open Font License, Version 1.1. This license is copied below, and is also available with a FAQ at: http://scripts.sil.org/OFL" "http://scripts.sil.org/OFL" 
GaspTable: 1 65535 15
Encoding: UnicodeBmp
UnicodeInterp: none
NameList: Adobe Glyph List
DisplaySize: -48
AntiAlias: 1
FitToEm: 1
WinInfo: 50 25 10
BeginPrivate: 2
BlueValues 22 [-4 0 502 504 700 704]
OtherBlues 11 [-200 -200]
EndPrivate

StartChar: H
Encoding: 72 72 4
Width: 583
Flags: MW
HStem: 0 21G<114 184 403 473> 281 147<225 362 225 362> 680 20G<114 184 403 473>
VStem: 73 152<115 281 428 585> 362 152<115 281 281 281 428 585>
LayerCount: 2
Fore
SplineSet
73 115 m 2,0,-1
 73 585 l 2,1,2
 73 669.71875 73 669.71875 108 690.5 c 0,3,4
 124 700 124 700 149 700 c 128,-1,5
 174 700 174 700 190 690.5 c 128,-1,6
 206 681 206 681 213.5 663 c 0,7,8
 225 635.4 225 635.4 225 585 c 2,9,-1
 225 428 l 1,10,-1
 362 428 l 1,11,-1
 362 585 l 2,12,13
 362 669.71875 362 669.71875 397 690.5 c 0,14,15
 413 700 413 700 438 700 c 128,-1,16
 463 700 463 700 479 690.5 c 128,-1,17
 495 681 495 681 502.5 663 c 0,18,19
 514 635.4 514 635.4 514 585 c 2,20,-1
 514 115 l 2,21,22
 514 80 514 80 510 58 c 128,-1,23
 506 36 506 36 488.5 18 c 128,-1,24
 471 0 471 0 438 0 c 128,-1,25
 405 0 405 0 387.5 18 c 128,-1,26
 370 36 370 36 366 58 c 128,-1,27
 362 80 362 80 362 115 c 2,28,-1
 362 281 l 1,29,-1
 225 281 l 1,30,-1
 225 115 l 2,31,32
 225 80 225 80 221 58 c 128,-1,33
 217 36 217 36 199.5 18 c 128,-1,34
 182 0 182 0 149 0 c 128,-1,35
 116 0 116 0 98.5 18 c 128,-1,36
 81 36 81 36 77 58 c 128,-1,37
 73 80 73 80 73 115 c 2,0,-1
EndSplineSet
EndChar

StartChar: I
Encoding: 73 73 5
Width: 333
Flags: MW
HStem: 0 21G<128.5 206> 680 20G<128.5 205.5>
VStem: 84 166<115 585>
LayerCount: 2
Fore
SplineSet
84 115 m 2,0,-1
 84 585 l 2,1,2
 84 651.882352941 84 651.882352941 104.5 676 c 128,-1,3
 124.9 700 124.9 700 167 700 c 0,4,5
 227.696969697 700 227.696969697 700 243 649.5 c 0,6,7
 250 626.4 250 626.4 250 585 c 2,8,-1
 250 115 l 2,9,10
 250 28.2857142857 250 28.2857142857 212.5 9 c 0,11,12
 195 0 195 0 170 0 c 128,-1,13
 145 0 145 0 129 7 c 128,-1,14
 113 14 113 14 104.5 23.5 c 128,-1,15
 96 33 96 33 91 49.5 c 0,16,17
 84 72.6 84 72.6 84 115 c 2,0,-1
EndSplineSet
EndChar

StartChar: K
Encoding: 75 75 6
Width: 571
Flags: MW
HStem: -4 21G<429 472> 0 21G<110.5 180.5> 680 20G<110.5 180.5 423 462.5>
VStem: 70 152<115 283 406 586> 355 152<106.5 110 110 181 106.5 210> 355 177<35 181 35 210>
LayerCount: 2
Fore
SplineSet
70 115 m 2,0,-1
 70 586 l 2,1,2
 70 652.333333333 70 652.333333333 88.5 677 c 0,3,4
 105.75 700 105.75 700 137.875 700 c 128,-1,5
 170 700 170 700 186.5 691 c 128,-1,6
 203 682 203 682 210.5 664 c 0,7,8
 222 636.4 222 636.4 222 586 c 2,9,-1
 222 406 l 1,10,-1
 279 406 l 1,11,12
 337 558 337 558 360 610 c 128,-1,13
 383 662 383 662 399.5 681 c 128,-1,14
 416 700 416 700 445 700 c 128,-1,15
 474 700 474 700 497.5 681 c 128,-1,16
 521 662 521 662 521 631.5 c 128,-1,17
 521 601 521 601 505 564 c 2,18,-1
 415 351 l 1,19,20
 427.235294118 347.941176471 427.235294118 347.941176471 445.117647059 333.970588235 c 128,-1,21
 463 320 463 320 475 303 c 128,-1,22
 487 286 487 286 497 253.5 c 128,-1,23
 507 221 507 221 507 181 c 2,24,-1
 507 110 l 2,25,26
 507 107 507 107 519.5 92.5 c 128,-1,27
 532 78 532 78 532 59 c 0,28,29
 532 -4 532 -4 451 -4 c 0,30,31
 414 -4 414 -4 384.5 18 c 128,-1,32
 355 40 355 40 355 78 c 2,33,-1
 355 181 l 2,34,35
 355 230 355 230 338.5 256.5 c 128,-1,36
 322 283 322 283 278 283 c 2,37,-1
 222 283 l 1,38,-1
 222 115 l 2,39,40
 222 28.3636363636 222 28.3636363636 186.5 9 c 0,41,42
 170 0 170 0 147.5 0 c 128,-1,43
 125 0 125 0 111 6.5 c 128,-1,44
 97 13 97 13 89 23 c 128,-1,45
 81 33 81 33 76.5 49.5 c 0,46,47
 70 73.3333333333 70 73.3333333333 70 115 c 2,0,-1
EndSplineSet
EndChar

StartChar: L
Encoding: 76 76 7
Width: 484
Flags: MW
HStem: 0 147<165 342 244 342 244 342> 680 20G<130 203>
VStem: 89 155<147 585 147 585 147 613.5>
LayerCount: 2
Fore
SplineSet
89 74 m 2,0,-1
 89 585 l 2,1,2
 89 669.71875 89 669.71875 124 690.5 c 0,3,4
 140 700 140 700 166 700 c 128,-1,5
 192 700 192 700 209 691 c 128,-1,6
 226 682 226 682 233 663 c 0,7,8
 244 633.142857143 244 633.142857143 244 585 c 2,9,-1
 244 147 l 1,10,-1
 342 147 l 2,11,12
 424.548387097 147 424.548387097 147 444 113.5 c 0,13,14
 453 98 453 98 453 74 c 128,-1,15
 453 50 453 50 444 34 c 128,-1,16
 435 18 435 18 417.5 11 c 0,17,18
 390 0 390 0 342 0 c 2,19,-1
 200 0 l 2,20,21
 140 0 140 0 114.5 13.5 c 128,-1,22
 89 27 89 27 89 74 c 2,0,-1
EndSplineSet
EndChar

StartChar: P
Encoding: 80 80 8
Width: 541
Flags: MW
HStem: 0 21G<108.5 184.5> 276 119<223 287 223 291> 582 118<223 296 223 223>
VStem: 71 152<114 276 395 582> 381 152<443.5 537>
LayerCount: 2
Fore
SplineSet
287 276 m 2,0,-1
 223 276 l 1,1,-1
 223 114 l 2,2,3
 223 42.8 223 42.8 206.5 23 c 0,4,5
 187.333333333 -2.30926389122e-14 187.333333333 -2.30926389122e-14 146 0 c 0,6,7
 87.1111111111 0 87.1111111111 0 76 50 c 0,8,9
 71 72.5 71 72.5 71 114 c 2,10,-1
 71 586 l 2,11,12
 71 657.2 71 657.2 87.5 677 c 0,13,14
 106.666666667 700 106.666666667 700 146 700 c 2,15,-1
 311 700 l 2,16,17
 383.34375 700 383.34375 700 445.5 661 c 0,18,19
 533 606.098039216 533 606.098039216 533 496.549019608 c 128,-1,20
 533 387 533 387 468.5 331.5 c 128,-1,21
 404 276 404 276 287 276 c 2,0,-1
291 395 m 2,22,23
 322 395 322 395 350 416 c 0,24,25
 362 425 362 425 371.5 445 c 128,-1,26
 381 465 381 465 381 498.5 c 128,-1,27
 381 532 381 532 359.5 554.5 c 128,-1,28
 338 577 338 577 317 579.5 c 2,29,-1
 296 582 l 1,30,-1
 223 582 l 1,31,-1
 223 395 l 1,32,-1
 291 395 l 2,22,23
EndSplineSet
EndChar

StartChar: R
Encoding: 82 82 9
Width: 571
Flags: MW
HStem: -4 21G<429 471> 0 21G<108.5 184> 283 112<222 278 222 290> 582 118<222 294 222 222>
VStem: 71 151<116 283 395 582> 355 151<107 111 111 182 107 211.5> 380 151<476.5 537.5>
LayerCount: 2
Fore
SplineSet
71 116 m 2,0,-1
 71 586 l 2,1,2
 71 657.2 71 657.2 87.5 677 c 0,3,4
 106.666666667 700 106.666666667 700 146 700 c 2,5,-1
 311 700 l 2,6,7
 381.903225806 700 381.903225806 700 444 661.5 c 0,8,9
 531 607.56 531 607.56 531 493 c 0,10,11
 531 456.5 531 456.5 514.5 420.75 c 0,12,13
 481.673469388 349.62585034 481.673469388 349.62585034 405 328 c 1,14,15
 506 289 506 289 506 182 c 2,16,-1
 506 111 l 2,17,18
 506 103 506 103 518.5 90.5 c 128,-1,19
 531 78 531 78 531 52.5 c 128,-1,20
 531 27 531 27 508 11.5 c 128,-1,21
 485 -4 485 -4 450 -4 c 128,-1,22
 415 -4 415 -4 385 17.5 c 128,-1,23
 355 39 355 39 355 76 c 2,24,-1
 355 182 l 2,25,26
 355 232 355 232 339 257.5 c 128,-1,27
 323 283 323 283 278 283 c 2,28,-1
 222 283 l 1,29,-1
 222 116 l 2,30,31
 222 42.8 222 42.8 205.5 23 c 0,32,33
 186.333333333 1.24344978758e-14 186.333333333 1.24344978758e-14 146 0 c 0,34,35
 106.666666667 0 106.666666667 0 87.5 23 c 0,36,37
 73.2568807339 40.0917431193 73.2568807339 40.0917431193 71.5 80.5 c 0,38,39
 71 92 71 92 71 116 c 2,0,-1
290 395 m 2,40,41
 321 395 321 395 349 416 c 0,42,43
 361 425 361 425 370.5 445.5 c 128,-1,44
 380 466 380 466 380 499.5 c 128,-1,45
 380 533 380 533 358.5 555 c 128,-1,46
 337 577 337 577 315.5 579.5 c 2,47,-1
 294 582 l 1,48,-1
 222 582 l 1,49,-1
 222 395 l 1,50,-1
 290 395 l 2,40,41
EndSplineSet
EndChar

StartChar: V
Encoding: 86 86 10
Width: 500
Flags: MW
HStem: 0 21G<211 244 244 260> 680 20G<61.5 114 390.5 441.5>
LayerCount: 2
Fore
SplineSet
390 692.5 m 128,-1,1
 404 700 404 700 428 700 c 128,-1,2
 452 700 452 700 474 681.5 c 128,-1,3
 496 663 496 663 496 636 c 1,4,-1
 491 604 l 1,5,6
 468 512 468 512 419 328 c 128,-1,7
 370 144 370 144 359 101 c 128,-1,8
 348 58 348 58 346 53.5 c 128,-1,9
 344 49 344 49 336.5 39 c 128,-1,10
 329 29 329 29 320 21 c 0,11,12
 296.375 5.15143483426e-14 296.375 5.15143483426e-14 260 0 c 2,13,-1
 244 0 l 2,14,15
 215 0 215 0 192.5 15 c 128,-1,16
 170 30 170 30 162.5 45 c 2,17,-1
 155 60 l 1,18,-1
 13 604 l 1,19,20
 8 619 8 619 8 641 c 128,-1,21
 8 663 8 663 29.5 681.5 c 128,-1,22
 51 700 51 700 80.5 700 c 128,-1,23
 110 700 110 700 129 683 c 128,-1,24
 148 666 148 666 153 649 c 2,25,-1
 158 632 l 1,26,27
 186 518 186 518 229.5 303.5 c 2,28,-1
 244 232 l 1,29,-1
 260 232 l 1,30,31
 319 503 319 503 333 569 c 128,-1,32
 347 635 347 635 348 639.5 c 128,-1,33
 349 644 349 644 354.5 655.5 c 128,-1,34
 360 667 360 667 368 676 c 128,-1,0
 376 685 376 685 390 692.5 c 128,-1,1
EndSplineSet
EndChar

StartChar: W
Encoding: 87 87 11
Width: 833
Flags: MW
HStem: 0 21G<209 242 242 259 549 582 582 599> 680 20G<58.5 112.5 728.5 782.5>
LayerCount: 2
Fore
SplineSet
421 697 m 128,-1,1
 448 697 448 697 469 678.5 c 128,-1,2
 490 660 490 660 496 631 c 2,3,-1
 582 232 l 1,4,-1
 599 232 l 1,5,6
 685.769230769 633.307692308 685.769230769 633.307692308 687.384615385 638.153846154 c 128,-1,7
 689 643 689 643 694.5 655 c 128,-1,8
 700 667 700 667 707 676 c 0,9,10
 725.666666667 700 725.666666667 700 758.833333333 700 c 128,-1,11
 792 700 792 700 810.5 679.5 c 128,-1,12
 829 659 829 659 829 634 c 1,13,-1
 825 604 l 1,14,-1
 688 60 l 2,15,16
 687 58 687 58 685 53.5 c 128,-1,17
 683 49 683 49 675.5 39 c 128,-1,18
 668 29 668 29 659 21 c 0,19,20
 635.375 0 635.375 0 599 0 c 2,21,-1
 582 0 l 2,22,23
 553 0 553 0 532 15 c 128,-1,24
 511 30 511 30 505 45 c 2,25,-1
 499 60 l 1,26,-1
 429 353 l 1,27,-1
 412 353 l 1,28,29
 382.857142857 219.428571429 382.857142857 219.428571429 362.428571429 138.714285714 c 128,-1,30
 342 58 342 58 340.5 53.5 c 128,-1,31
 339 49 339 49 332.5 39 c 128,-1,32
 326 29 326 29 317.5 21 c 0,33,34
 295.1875 0 295.1875 0 259 0 c 2,35,-1
 242 0 l 2,36,37
 213 0 213 0 190 15 c 128,-1,38
 167 30 167 30 159 45 c 2,39,-1
 151 60 l 1,40,-1
 16 604 l 2,41,42
 12 618 12 618 12 638.5 c 128,-1,43
 12 659 12 659 30.5 679.5 c 128,-1,44
 49 700 49 700 79 700 c 128,-1,45
 109 700 109 700 127.5 683 c 128,-1,46
 146 666 146 666 150.5 648.5 c 2,47,-1
 242 232 l 1,48,-1
 259 232 l 1,49,50
 304 447 304 447 346 631 c 0,51,52
 353 660 353 660 373.5 678.5 c 128,-1,0
 394 697 394 697 421 697 c 128,-1,1
EndSplineSet
EndChar

StartChar: X
Encoding: 88 88 12
Width: 573
Flags: MW
HStem: 0 21G<98 121 452.5 476.5> 680 20G<97.5 123 450 475>
LayerCount: 2
Fore
SplineSet
194 348 m 1,0,-1
 194 357 l 1,1,-1
 68 548 l 2,2,3
 28 607 28 607 28 637.5 c 128,-1,4
 28 668 28 668 57 684 c 128,-1,5
 86 700 86 700 104 700 c 128,-1,6
 122 700 122 700 138 688 c 128,-1,7
 154 676 154 676 163 663.5 c 128,-1,8
 172 651 172 651 186 628 c 2,9,-1
 279 475 l 1,10,-1
 294 475 l 1,11,-1
 387 628 l 2,12,13
 401 651 401 651 410 663.5 c 128,-1,14
 419 676 419 676 435 688 c 128,-1,15
 451 700 451 700 468.5 700 c 128,-1,16
 486 700 486 700 510 687 c 0,17,18
 547 667 547 667 547 636 c 0,19,20
 547 610 547 610 515.5 563.5 c 2,21,-1
 380 357 l 1,22,-1
 380 348 l 1,23,-1
 519 129 l 2,24,25
 545 88 545 88 545 60.5 c 128,-1,26
 545 33 545 33 511 12 c 1,27,28
 488 0 488 0 471 0 c 128,-1,29
 454 0 454 0 439 10 c 128,-1,30
 424 20 424 20 416 30.5 c 128,-1,31
 408 41 408 41 395 61 c 2,32,-1
 294 225 l 1,33,-1
 279 225 l 1,34,-1
 178 61 l 2,35,36
 165 41 165 41 157 30.5 c 128,-1,37
 149 20 149 20 134.5 10 c 128,-1,38
 120 0 120 0 102.5 0 c 128,-1,39
 85 0 85 0 64 12 c 0,40,41
 28 33 28 33 28 60.5 c 128,-1,42
 28 88 28 88 54 129 c 2,43,-1
 194 348 l 1,0,-1
EndSplineSet
EndChar

StartChar: Y
Encoding: 89 89 13
Width: 500
Flags: MW
HStem: 0 21G<217 286.5> 680 20G<64.5 91 413 440>
VStem: 176 151<113 287>
LayerCount: 2
Fore
SplineSet
327 287 m 1,0,-1
 327 113 l 2,1,2
 327 47.6666666667 327 47.6666666667 308.5 23 c 0,3,4
 291.25 0 291.25 0 259.125 0 c 128,-1,5
 227 0 227 0 211 9 c 128,-1,6
 195 18 195 18 187.5 36 c 0,7,8
 176 63.6 176 63.6 176 113 c 2,9,-1
 176 287 l 1,10,-1
 27 553 l 2,11,12
 -7 612 -7 612 -7 639.5 c 128,-1,13
 -7 667 -7 667 29 688 c 0,14,15
 51.5 700 51.5 700 71 700 c 0,16,17
 118 700 118 700 153 623 c 1,18,-1
 244 432 l 1,19,-1
 260 432 l 1,20,-1
 351 623 l 1,21,22
 386 700 386 700 433 700 c 0,23,24
 452 700 452 700 475 688 c 1,25,26
 511 666 511 666 511 635 c 0,27,28
 511 614 511 614 477 553 c 2,29,-1
 327 287 l 1,0,-1
EndSplineSet
EndChar

StartChar: Z
Encoding: 90 90 14
Width: 521
Flags: MW
HStem: 0 143<90 378 234 378 234 378> 557 143<121.5 411 148 292>
LayerCount: 2
Fore
SplineSet
42 102 m 2,0,-1
 300 549 l 1,1,-1
 292 557 l 1,2,-1
 148 557 l 2,3,4
 65.5357142857 557 65.5357142857 557 44.5 588 c 0,5,6
 35 602 35 602 35 625.5 c 128,-1,7
 35 649 35 649 44.5 665 c 128,-1,8
 54 681 54 681 72.5 688.5 c 0,9,10
 100.866666667 700 100.866666667 700 148 700 c 2,11,-1
 411 700 l 2,12,13
 447 700 447 700 468.5 676.5 c 128,-1,14
 490 653 490 653 490 630.5 c 128,-1,15
 490 608 490 608 484 597 c 2,16,-1
 227 150 l 1,17,-1
 234 143 l 1,18,-1
 378 143 l 2,19,20
 460.6 143 460.6 143 481.5 110 c 0,21,22
 491 95 491 95 491 72 c 0,23,24
 491 28 491 28 460 14 c 128,-1,25
 429 0 429 0 378 0 c 2,26,-1
 115 0 l 2,27,28
 79 0 79 0 57 21.5 c 128,-1,29
 35 43 35 43 35 66.5 c 128,-1,30
 35 90 35 90 42 102 c 2,0,-1
EndSplineSet
EndChar

StartChar: a
Encoding: 97 97 15
Width: 510
Flags: MW
HStem: 0 117<219.5 228.5 219.5 417> 382 118<219.5 414.5> 479 20G<159.5 228.5>
VStem: 42 154<177 190 190 311 172 322 172 388.5> 304 152<70.5 113 265 286>
LayerCount: 2
Fore
SplineSet
456 113 m 2,0,1
 456 27.5625 456 27.5625 423 9 c 0,2,3
 407 0 407 0 381 0 c 0,4,5
 304 0 304 0 304 84 c 1,6,7
 278 0 278 0 196 0 c 0,8,9
 133 0 133 0 87.5 43 c 128,-1,10
 42 86 42 86 42 177 c 2,11,-1
 42 322 l 2,12,13
 42 414 42 414 87.5 456.5 c 128,-1,14
 133 499 133 499 196 499 c 0,15,16
 241 499 241 499 267 474.5 c 128,-1,17
 293 450 293 450 304 415 c 1,18,19
 304 461 304 461 326.5 480.5 c 128,-1,20
 349 500 349 500 387.5 500 c 128,-1,21
 426 500 426 500 441 469.5 c 128,-1,22
 456 439 456 439 456 386 c 2,23,-1
 456 113 l 2,0,1
196 311 m 2,24,-1
 196 190 l 2,25,26
 196 156 196 156 204 136.5 c 128,-1,27
 212 117 212 117 244.5 117 c 128,-1,28
 277 117 277 117 290 150.5 c 128,-1,29
 303 184 303 184 303.5 237 c 128,-1,30
 304 290 304 290 299.5 314.5 c 128,-1,31
 295 339 295 339 279.5 360.5 c 128,-1,32
 264 382 264 382 238 382 c 128,-1,33
 212 382 212 382 204 363.5 c 128,-1,34
 196 345 196 345 196 311 c 2,24,-1
EndSplineSet
EndChar

StartChar: b
Encoding: 98 98 16
Width: 521
Flags: MW
HStem: 0 117<100 297.5 288.5 297.5 251 357.5> 382 117<288.5 297.5> 680 20G<102.5 171>
VStem: 61 152<265 286 415 586> 321 154<190 311 311 322 111 328.5>
LayerCount: 2
Fore
SplineSet
61 113 m 2,0,-1
 61 586 l 2,1,2
 61 639 61 639 76 669.5 c 128,-1,3
 91 700 91 700 137 700 c 128,-1,4
 183 700 183 700 198 670 c 128,-1,5
 213 640 213 640 213 586 c 2,6,-1
 213 415 l 1,7,8
 224 450 224 450 250 474.5 c 128,-1,9
 276 499 276 499 321 499 c 0,10,11
 384 499 384 499 429.5 456.5 c 128,-1,12
 475 414 475 414 475 322 c 2,13,-1
 475 177 l 2,14,15
 475 86 475 86 429.5 43 c 128,-1,16
 384 0 384 0 321 0 c 0,17,18
 239 0 239 0 213 84 c 1,19,20
 213 0 213 0 136 0 c 0,21,22
 84.3243243243 0 84.3243243243 0 71.5 36.5 c 0,23,24
 61 66.3846153846 61 66.3846153846 61 113 c 2,0,-1
321 190 m 2,25,-1
 321 311 l 2,26,27
 321 345 321 345 313 363.5 c 128,-1,28
 305 382 305 382 279 382 c 128,-1,29
 253 382 253 382 237.5 360.5 c 0,30,31
 213 326.516129032 213 326.516129032 213.5 255.258064516 c 128,-1,32
 214 184 214 184 227 150.5 c 128,-1,33
 240 117 240 117 272.5 117 c 128,-1,34
 305 117 305 117 313 136.5 c 128,-1,35
 321 156 321 156 321 190 c 2,25,-1
EndSplineSet
EndChar

StartChar: c
Encoding: 99 99 17
Width: 500
Flags: MW
HStem: 0 100<223.5 277.5 223.5 294> 0 211<195.5 429.5> 277 223<218.5 428.5> 386 114<223.5 277.5>
VStem: 42 152<186 303 303 328> 309 156<96 340>
LayerCount: 2
Fore
SplineSet
194 328 m 2,0,-1
 194 173 l 2,1,2
 194 100 194 100 248 100 c 0,3,4
 276 100 276 100 290 109.5 c 128,-1,5
 304 119 304 119 307 131 c 128,-1,6
 310 143 310 143 310 164 c 0,7,8
 310 211 310 211 394 211 c 0,9,10
 444.95 211 444.95 211 456.5 190 c 0,11,12
 465 174.545454545 465 174.545454545 465 160 c 0,13,14
 465 114 465 114 444.5 81 c 128,-1,15
 424 48 424 48 390 31.5 c 0,16,17
 325.090909091 -1.24344978758e-14 325.090909091 -1.24344978758e-14 243.045454545 -6.2172489379e-15 c 128,-1,18
 161 0 161 0 101.5 46.5 c 128,-1,19
 42 93 42 93 42 186 c 2,20,-1
 42 303 l 2,21,22
 42 500 42 500 248 500 c 0,23,24
 311 500 311 500 356 484.5 c 128,-1,25
 401 469 401 469 423 443 c 0,26,27
 464 394.545454545 464 394.545454545 464 340 c 0,28,29
 464 294.25 464 294.25 434 283 c 0,30,31
 418 277 418 277 393 277 c 0,32,33
 309 277 309 277 309 324 c 0,34,35
 309 372.153846154 309 372.153846154 282 381.5 c 0,36,37
 269 386 269 386 248 386 c 0,38,39
 194 386 194 386 194 328 c 2,0,-1
EndSplineSet
EndChar

StartChar: d
Encoding: 100 100 18
Width: 510
Flags: MW
HStem: 0 117<218.5 227.5 218.5 416> 382 117<218.5 227.5 158.5 265> 680 20G<345 413.5>
VStem: 41 154<177 190 190 311 172 322 172 388.5> 303 152<70.5 113 265 286 415 586>
LayerCount: 2
Fore
SplineSet
455 113 m 2,0,1
 455 27.5625 455 27.5625 422 9 c 0,2,3
 406 0 406 0 380 0 c 0,4,5
 303 0 303 0 303 84 c 1,6,7
 277 0 277 0 195 0 c 0,8,9
 132 0 132 0 86.5 43 c 128,-1,10
 41 86 41 86 41 177 c 2,11,-1
 41 322 l 2,12,13
 41 414 41 414 86.5 456.5 c 128,-1,14
 132 499 132 499 195 499 c 0,15,16
 240 499 240 499 266 474.5 c 128,-1,17
 292 450 292 450 303 415 c 1,18,-1
 303 586 l 2,19,20
 303 621 303 621 307 642.5 c 128,-1,21
 311 664 311 664 329 682 c 128,-1,22
 347 700 347 700 386 700 c 128,-1,23
 425 700 425 700 440 669.5 c 128,-1,24
 455 639 455 639 455 586 c 2,25,-1
 455 113 l 2,0,1
195 311 m 2,26,-1
 195 190 l 2,27,28
 195 156 195 156 203 136.5 c 128,-1,29
 211 117 211 117 243.5 117 c 128,-1,30
 276 117 276 117 289 150.5 c 128,-1,31
 302 184 302 184 302.5 237 c 128,-1,32
 303 290 303 290 298.5 314.5 c 128,-1,33
 294 339 294 339 278.5 360.5 c 128,-1,34
 263 382 263 382 237 382 c 128,-1,35
 211 382 211 382 203 363.5 c 128,-1,36
 195 345 195 345 195 311 c 2,26,-1
EndSplineSet
EndChar

StartChar: e
Encoding: 101 101 19
Width: 510
Flags: MW
HStem: 0 100<254 296> 0 163<254 412.5> 222 75<198 323 198 397 198 323> 395 106<230 252 222.5 289.5>
VStem: 46 152<187 222 158 297 297 304 304 332> 323 138
LayerCount: 2
Fore
SplineSet
468 316 m 2,0,-1
 468 285 l 2,1,2
 468 239.25 468 239.25 438 228 c 0,3,4
 422 222 422 222 397 222 c 2,5,-1
 198 222 l 1,6,-1
 198 174 l 2,7,8
 198 145 198 145 213 122.5 c 128,-1,9
 228 100 228 100 255 100 c 128,-1,10
 282 100 282 100 294.5 106.5 c 128,-1,11
 307 113 307 113 313 122.5 c 128,-1,12
 319 132 319 132 326 141 c 0,13,14
 343.111111111 163 343.111111111 163 396 163 c 0,15,16
 461 163 461 163 461 113 c 0,17,18
 461 82 461 82 441 59 c 128,-1,19
 421 36 421 36 388.5 23.5 c 0,20,21
 327.4 1.24344978758e-14 327.4 1.24344978758e-14 245.2 0.5 c 128,-1,22
 163 1 163 1 104.5 46 c 128,-1,23
 46 91 46 91 46 187 c 2,24,-1
 46 304 l 2,25,26
 46 501 46 501 252 501 c 0,27,28
 310 501 310 501 352 488 c 128,-1,29
 394 475 394 475 416 457 c 128,-1,30
 438 439 438 439 450.5 411.5 c 128,-1,31
 463 384 463 384 465.5 363.5 c 128,-1,32
 468 343 468 343 468 316 c 2,0,-1
198 332 m 2,33,-1
 198 297 l 1,34,-1
 323 297 l 1,35,36
 323 345.818181818 323 345.818181818 316 364.909090909 c 128,-1,37
 309 384 309 384 295 389.5 c 128,-1,38
 281 395 281 395 257 395 c 0,39,40
 198 395 198 395 198 332 c 2,33,-1
EndSplineSet
EndChar

StartChar: g
Encoding: 103 103 20
Width: 521
Flags: MW
HStem: -200 99<242.5 280.5 242.5 281> -200 163<94 281> 0 117<225.5 234.5> 383 117<225.5 234.5 165.5 272>
VStem: 47 155<178 189 189 310 171.5 323 171.5 389> 310 152<-28 -15 -15 84 84 84 214 235>
LayerCount: 2
Fore
SplineSet
462 387 m 2,0,-1
 462 -15 l 2,1,2
 462 -66 462 -66 444 -103 c 128,-1,3
 426 -140 426 -140 403 -158 c 128,-1,4
 380 -176 380 -176 348 -186.5 c 0,5,6
 306.857142857 -200 306.857142857 -200 262 -200 c 0,7,8
 65 -200 65 -200 56 -81 c 1,9,10
 56 -37 56 -37 126 -37 c 0,11,12
 160.142857143 -37 160.142857143 -37 171.571428571 -42 c 128,-1,13
 183 -47 183 -47 188.5 -49.5 c 128,-1,14
 194 -52 194 -52 197.5 -57.5 c 128,-1,15
 201 -63 201 -63 202.5 -65.5 c 0,16,17
 208 -74.6666666667 208 -74.6666666667 208 -82 c 1,18,19
 215 -101 215 -101 256 -101 c 0,20,21
 310 -101 310 -101 310 -28 c 2,22,-1
 310 84 l 1,23,24
 299 49 299 49 273 24.5 c 128,-1,25
 247 0 247 0 202 0 c 0,26,27
 138 0 138 0 92.5 43 c 128,-1,28
 47 86 47 86 47 178 c 2,29,-1
 47 323 l 2,30,31
 47 414 47 414 93 457 c 128,-1,32
 139 500 139 500 202 500 c 0,33,34
 284 500 284 500 310 416 c 1,35,36
 310 500 310 500 387 500 c 0,37,38
 438.675675676 500 438.675675676 500 451.5 463.5 c 0,39,40
 462 433.615384615 462 433.615384615 462 387 c 2,0,-1
202 310 m 2,41,-1
 202 189 l 2,42,43
 202 155 202 155 210 136 c 128,-1,44
 218 117 218 117 244 117 c 128,-1,45
 270 117 270 117 285.5 139 c 0,46,47
 310 173.774193548 310 173.774193548 309.5 244.887096774 c 128,-1,48
 309 316 309 316 296 349.5 c 128,-1,49
 283 383 283 383 250.5 383 c 128,-1,50
 218 383 218 383 210 363.5 c 128,-1,51
 202 344 202 344 202 310 c 2,41,-1
EndSplineSet
EndChar

StartChar: h
Encoding: 104 104 21
Width: 521
Flags: MW
HStem: 0 21G<102.5 172.5 367.5 436.5> 381 119<292 300.5> 680 20G<102.5 172.5>
VStem: 61 154<113 208 416 587> 324 154<113 310 310 321>
LayerCount: 2
Fore
SplineSet
478 321 m 2,0,-1
 478 113 l 2,1,2
 478 28.6875 478 28.6875 443 9 c 0,3,4
 427 0 427 0 402 0 c 128,-1,5
 377 0 377 0 361 9 c 128,-1,6
 345 18 345 18 337 36 c 0,7,8
 324 65.25 324 65.25 324 113 c 2,9,-1
 324 310 l 2,10,11
 324 344 324 344 316 362.5 c 128,-1,12
 308 381 308 381 280 381 c 0,13,14
 243 381 243 381 229 336 c 128,-1,15
 215 291 215 291 215 208 c 2,16,-1
 215 113 l 2,17,18
 215 28.9090909091 215 28.9090909091 178.5 9 c 0,19,20
 162 0 162 0 137 0 c 128,-1,21
 112 0 112 0 96 9 c 128,-1,22
 80 18 80 18 73 36 c 0,23,24
 61 66.8571428571 61 66.8571428571 61 113 c 2,25,-1
 61 587 l 2,26,27
 61 671.3125 61 671.3125 96 691 c 0,28,29
 112 700 112 700 137 700 c 128,-1,30
 162 700 162 700 178.5 691 c 128,-1,31
 195 682 195 682 202.5 664 c 0,32,33
 215 634 215 634 215 587 c 2,34,-1
 215 416 l 1,35,36
 226 450 226 450 253 475 c 128,-1,37
 280 500 280 500 324 500 c 0,38,39
 388 500 388 500 433 457 c 128,-1,40
 478 414 478 414 478 321 c 2,0,-1
EndSplineSet
EndChar

StartChar: i
Encoding: 105 105 22
Width: 313
Flags: MW
HStem: 0 21G<118 186> 548 152<129 177>
VStem: 76 152<112 388>
LayerCount: 2
Fore
SplineSet
76 112 m 2,0,-1
 76 388 l 2,1,2
 76 440 76 440 91 470 c 128,-1,3
 106 500 106 500 152 500 c 128,-1,4
 198 500 198 500 213 470 c 128,-1,5
 228 440 228 440 228 388 c 2,6,-1
 228 112 l 2,7,8
 228 60 228 60 213 30 c 128,-1,9
 198 0 198 0 152 0 c 128,-1,10
 106 0 106 0 91 30 c 128,-1,11
 76 60 76 60 76 112 c 2,0,-1
229 624 m 128,-1,13
 229 548 229 548 153 548 c 128,-1,14
 77 548 77 548 77 624 c 128,-1,15
 77 700 77 700 153 700 c 128,-1,12
 229 700 229 700 229 624 c 128,-1,13
EndSplineSet
EndChar

StartChar: j
Encoding: 106 106 23
Width: 313
Flags: MW
HStem: -200 140<58.5 66.5 21.5 160> 550 151<141 188.5>
VStem: 88 152<15 388 600 651>
LayerCount: 2
Fore
SplineSet
88 15 m 2,0,-1
 88 388 l 2,1,2
 88 441 88 441 103 470.5 c 128,-1,3
 118 500 118 500 164 500 c 128,-1,4
 210 500 210 500 225 470.5 c 128,-1,5
 240 441 240 441 240 388 c 2,6,-1
 240 15 l 2,7,8
 240 -123.375 240 -123.375 204 -160.5 c 0,9,10
 165.696969697 -200 165.696969697 -200 88 -200 c 0,11,12
 41 -200 41 -200 9.5 -180.5 c 128,-1,13
 -22 -161 -22 -161 -22 -124 c 128,-1,14
 -22 -87 -22 -87 -7 -73.5 c 128,-1,15
 8 -60 8 -60 36.5 -60 c 128,-1,16
 65 -60 65 -60 75 -48 c 128,-1,17
 85 -36 85 -36 86.5 -23 c 128,-1,18
 88 -10 88 -10 88 15 c 2,0,-1
240 625.5 m 128,-1,20
 240 550 240 550 164 550 c 128,-1,21
 88 550 88 550 88 625.5 c 128,-1,22
 88 701 88 701 164 701 c 128,-1,19
 240 701 240 701 240 625.5 c 128,-1,20
EndSplineSet
EndChar

StartChar: l
Encoding: 108 108 24
Width: 293
Flags: MW
HStem: 0 21G<112 180.5> 680 20G<112 180.5>
VStem: 70 152<112 589>
LayerCount: 2
Fore
SplineSet
70 112 m 2,0,-1
 70 589 l 2,1,2
 70 641 70 641 85 670.5 c 128,-1,3
 100 700 100 700 146 700 c 0,4,5
 195.588235294 700 195.588235294 700 210 665 c 0,6,7
 222 635.857142857 222 635.857142857 222 589 c 2,8,-1
 222 112 l 2,9,10
 222 28.6875 222 28.6875 187 9 c 0,11,12
 171 0 171 0 146 0 c 0,13,14
 100 0 100 0 85 30 c 128,-1,15
 70 60 70 60 70 112 c 2,0,-1
EndSplineSet
EndChar

StartChar: m
Encoding: 109 109 25
Width: 802
Flags: MW
HStem: 0 21G<108.5 177.5 370 438.5 631.5 700> 383 117<107 304 561.5 564>
VStem: 67 152<113 210 85 387> 328 153<113 251 85 311> 589 154<113 311 311 323>
LayerCount: 2
Fore
SplineSet
404 0 m 0,0,1
 358 0 358 0 343 30.5 c 128,-1,2
 328 61 328 61 328 113 c 2,3,-1
 328 311 l 2,4,5
 328 345 328 345 319.5 364 c 128,-1,6
 311 383 311 383 284 383 c 0,7,8
 219 383 219 383 219 210 c 2,9,-1
 219 113 l 2,10,11
 219 28.6875 219 28.6875 184 9 c 0,12,13
 168 0 168 0 143 0 c 128,-1,14
 118 0 118 0 102 9 c 128,-1,15
 86 18 86 18 79 36 c 0,16,17
 67 66.8571428571 67 66.8571428571 67 113 c 2,18,-1
 67 387 l 2,19,20
 67 471.875 67 471.875 101 491 c 0,21,22
 117 500 117 500 143 500 c 0,23,24
 219 500 219 500 219 416 c 1,25,26
 229 449 229 449 260.5 474.5 c 128,-1,27
 292 500 292 500 336 500 c 0,28,29
 412 500 412 500 453 432 c 1,30,31
 467 464 467 464 506 482 c 128,-1,32
 545 500 545 500 589 500 c 0,33,34
 652 500 652 500 697.5 457 c 128,-1,35
 743 414 743 414 743 323 c 2,36,-1
 743 113 l 2,37,38
 743 61 743 61 727.5 30.5 c 128,-1,39
 712 0 712 0 666 0 c 0,40,41
 616.5 0 616.5 0 601.5 36 c 0,42,43
 589 66 589 66 589 113 c 2,44,-1
 589 311 l 2,45,46
 589 383 589 383 544 383 c 0,47,48
 488 383 488 383 481 251 c 1,49,-1
 481 113 l 2,50,51
 481 29.25 481 29.25 445 9 c 0,52,53
 429 0 429 0 404 0 c 0,0,1
EndSplineSet
EndChar

StartChar: n
Encoding: 110 110 26
Width: 541
Flags: MW
HStem: 0 21G<108 176.5 371 439.5> 383 117<296.5 305>
VStem: 66 154<114 209 85.5 387> 329 154<114 309 309 322>
LayerCount: 2
Fore
SplineSet
483 322 m 2,0,-1
 483 114 l 2,1,2
 483 31.46875 483 31.46875 446 9.5 c 0,3,4
 430 0 430 0 405 0 c 0,5,6
 359 0 359 0 344 30.5 c 128,-1,7
 329 61 329 61 329 114 c 2,8,-1
 329 309 l 2,9,10
 329 344 329 344 320.5 363.5 c 128,-1,11
 312 383 312 383 285 383 c 0,12,13
 248 383 248 383 234 337.5 c 128,-1,14
 220 292 220 292 220 209 c 2,15,-1
 220 114 l 2,16,17
 220 31.46875 220 31.46875 183 9.5 c 0,18,19
 167 0 167 0 142 0 c 0,20,21
 96 0 96 0 81 30.5 c 128,-1,22
 66 61 66 61 66 114 c 2,23,-1
 66 387 l 2,24,25
 66 472.727272727 66 472.727272727 99.5 491 c 0,26,27
 116 500 116 500 142 500 c 0,28,29
 220 500 220 500 220 416 c 1,30,31
 230 450 230 450 257 475 c 128,-1,32
 284 500 284 500 329 500 c 0,33,34
 392 500 392 500 437.5 457 c 128,-1,35
 483 414 483 414 483 322 c 2,0,-1
EndSplineSet
EndChar

StartChar: p
Encoding: 112 112 27
Width: 531
Flags: MW
HStem: -200 21G<107.5 176> 1 117<293.5 302.5 256 362.5> 383 117<293.5 302.5>
VStem: 66 152<-86 85 214 235> 326 154<189 310 310 323 111.5 328>
LayerCount: 2
Fore
SplineSet
66 387 m 2,0,1
 66 472.4375 66 472.4375 99 491 c 0,2,3
 115 500 115 500 141 500 c 0,4,5
 218 500 218 500 218 416 c 1,6,7
 244 500 244 500 326 500 c 0,8,9
 389 500 389 500 434.5 457 c 128,-1,10
 480 414 480 414 480 323 c 2,11,-1
 480 178 l 2,12,13
 480 86 480 86 434.5 43.5 c 128,-1,14
 389 1 389 1 326 1 c 0,15,16
 281 1 281 1 255 25.5 c 128,-1,17
 229 50 229 50 218 85 c 1,18,-1
 218 -86 l 2,19,20
 218 -121 218 -121 214 -142.5 c 128,-1,21
 210 -164 210 -164 192 -182 c 128,-1,22
 174 -200 174 -200 135 -200 c 128,-1,23
 96 -200 96 -200 81 -169.5 c 128,-1,24
 66 -139 66 -139 66 -86 c 2,25,-1
 66 387 l 2,0,1
326 189 m 2,26,-1
 326 310 l 2,27,28
 326 344 326 344 318 363.5 c 128,-1,29
 310 383 310 383 277.5 383 c 128,-1,30
 245 383 245 383 232 349.5 c 128,-1,31
 219 316 219 316 218.5 263 c 128,-1,32
 218 210 218 210 222.5 185.5 c 128,-1,33
 227 161 227 161 242.5 139.5 c 128,-1,34
 258 118 258 118 284 118 c 128,-1,35
 310 118 310 118 318 136.5 c 128,-1,36
 326 155 326 155 326 189 c 2,26,-1
EndSplineSet
EndChar

StartChar: q
Encoding: 113 113 28
Width: 531
Flags: MW
HStem: -200 21G<356 424.5> 1 117<229.5 238.5> 383 117<229.5 238.5 169.5 276>
VStem: 52 154<178 189 189 310 171.5 323 171.5 389> 314 152<-86 85 85 85 214 235>
LayerCount: 2
Fore
SplineSet
466 387 m 2,0,-1
 466 -86 l 2,1,2
 466 -139 466 -139 451 -169.5 c 128,-1,3
 436 -200 436 -200 390 -200 c 128,-1,4
 344 -200 344 -200 329 -170 c 128,-1,5
 314 -140 314 -140 314 -86 c 2,6,-1
 314 85 l 1,7,8
 303 50 303 50 277 25.5 c 128,-1,9
 251 1 251 1 206 1 c 0,10,11
 143 1 143 1 97.5 43.5 c 128,-1,12
 52 86 52 86 52 178 c 2,13,-1
 52 323 l 2,14,15
 52 414 52 414 97.5 457 c 128,-1,16
 143 500 143 500 206 500 c 0,17,18
 288 500 288 500 314 416 c 1,19,20
 314 500 314 500 391 500 c 0,21,22
 442.675675676 500 442.675675676 500 455.5 463.5 c 0,23,24
 466 433.615384615 466 433.615384615 466 387 c 2,0,-1
206 310 m 2,25,-1
 206 189 l 2,26,27
 206 155 206 155 214 136.5 c 128,-1,28
 222 118 222 118 248 118 c 128,-1,29
 274 118 274 118 289.5 139.5 c 0,30,31
 314 173.483870968 314 173.483870968 313.5 244.741935484 c 128,-1,32
 313 316 313 316 300 349.5 c 128,-1,33
 287 383 287 383 254.5 383 c 128,-1,34
 222 383 222 383 214 363.5 c 128,-1,35
 206 344 206 344 206 310 c 2,25,-1
EndSplineSet
EndChar

StartChar: r
Encoding: 114 114 29
Width: 396
Flags: MW
HStem: 0 21G<107 174> 350 149<300.5 334.5>
VStem: 66 150<109 252>
LayerCount: 2
Fore
SplineSet
385 425 m 0,0,1
 385 350 385 350 311 350 c 0,2,3
 245.538461538 350 245.538461538 350 224 297.5 c 0,4,5
 216 278 216 278 216 252 c 2,6,-1
 216 109 l 2,7,8
 216 59 216 59 201 29.5 c 128,-1,9
 186 0 186 0 140.5 0 c 128,-1,10
 95 0 95 0 80.5 29.5 c 128,-1,11
 66 59 66 59 66 109 c 2,12,-1
 66 389 l 2,13,14
 66 440 66 440 80.5 469.5 c 128,-1,15
 95 499 95 499 140 499 c 0,16,17
 177.095238095 499 177.095238095 499 193.5 472.5 c 0,18,19
 205.858552632 452.536184211 205.858552632 452.536184211 206.929276316 425.768092105 c 128,-1,20
 208 399 208 399 208 377 c 1,21,-1
 216 377 l 1,22,23
 230 432 230 432 259.5 465.5 c 128,-1,24
 289 499 289 499 324.5 499 c 128,-1,25
 360 499 360 499 372.5 482.5 c 128,-1,26
 385 466 385 466 385 425 c 0,0,1
EndSplineSet
EndChar

StartChar: t
Encoding: 116 116 30
Width: 438
Flags: MW
HStem: 0 141<308 315> 380 120<88.5 134 106 134 285 326> 680 20G<176 243.5>
VStem: 35 250<191.5 468.5> 134 151<215 380 500 588>
LayerCount: 2
Fore
SplineSet
106 500 m 2,0,-1
 134 500 l 1,1,-1
 134 588 l 2,2,3
 134 640 134 640 149 670 c 128,-1,4
 164 700 164 700 209.5 700 c 128,-1,5
 255 700 255 700 270 670 c 128,-1,6
 285 640 285 640 285 588 c 2,7,-1
 285 500 l 1,8,-1
 326 500 l 2,9,10
 348 500 348 500 361 497.5 c 128,-1,11
 374 495 374 495 386 481 c 128,-1,12
 398 467 398 467 398 435 c 128,-1,13
 398 403 398 403 378.5 391.5 c 128,-1,14
 359 380 359 380 326 380 c 2,15,-1
 285 380 l 1,16,-1
 285 205 l 2,17,18
 285 186 285 186 286.5 175 c 128,-1,19
 288 164 288 164 299 152.5 c 128,-1,20
 310 141 310 141 339 141 c 128,-1,21
 368 141 368 141 383 128 c 128,-1,22
 398 115 398 115 398 77 c 128,-1,23
 398 39 398 39 365.5 19.5 c 128,-1,24
 333 0 333 0 288 0 c 128,-1,25
 243 0 243 0 214.5 11.5 c 128,-1,26
 186 23 186 23 170 39.5 c 128,-1,27
 154 56 154 56 146 87 c 0,28,29
 134 133.5 134 133.5 134 215 c 2,30,-1
 134 380 l 1,31,-1
 106 380 l 2,32,33
 85 380 85 380 71.5 383 c 128,-1,34
 58 386 58 386 46.5 400 c 128,-1,35
 35 414 35 414 35 440.5 c 128,-1,36
 35 467 35 467 46.5 481 c 128,-1,37
 58 495 58 495 71 497.5 c 128,-1,38
 84 500 84 500 106 500 c 2,0,-1
EndSplineSet
EndChar

StartChar: D
Encoding: 68 68 31
Width: 547
Flags: MW
HStem: 0 119<105 284 219 284 219 309> 583 117<219 284 219 219>
VStem: 67 152<119 583 119 586 119 614.5> 361 143<199 208 208 494 494 518>
LayerCount: 2
Fore
SplineSet
143 700 m 2,0,-1
 288 700 l 2,1,2
 383 700 383 700 443.5 652.5 c 128,-1,3
 504 605 504 605 504 518 c 2,4,-1
 504 208 l 2,5,6
 504 150 504 150 484 107 c 128,-1,7
 464 64 464 64 435 44.5 c 0,8,9
 373.626038781 3.23130193906 373.626038781 3.23130193906 329 1 c 2,10,-1
 309 0 l 1,11,-1
 143 0 l 2,12,13
 102.666666667 0 102.666666667 0 83.5 23 c 0,14,15
 69.1578947368 40.2105263158 69.1578947368 40.2105263158 67.5 80 c 0,16,17
 67 92 67 92 67 115 c 2,18,-1
 67 586 l 2,19,20
 67 657.2 67 657.2 83.5 677 c 0,21,22
 102.666666667 700 102.666666667 700 143 700 c 2,0,-1
284 583 m 1,23,-1
 219 583 l 1,24,-1
 219 119 l 1,25,-1
 284 119 l 2,26,27
 331.121212121 119 331.121212121 119 352.5 160.5 c 0,28,29
 361 177 361 177 361 199 c 2,30,-1
 361 494 l 2,31,32
 361 534 361 534 341.5 556 c 128,-1,33
 322 578 322 578 303 580.5 c 2,34,-1
 284 583 l 1,23,-1
EndSplineSet
EndChar

StartChar: u
Encoding: 117 117 32
Width: 542
Flags: MW
HStem: 0 117<237 245.5 237 436.5> 480 20G<102.5 171 365.5 434>
VStem: 59 154<178 191 191 386> 322 154<70 113 291 386>
LayerCount: 2
Fore
SplineSet
59 178 m 2,0,-1
 59 386 l 2,1,2
 59 468.53125 59 468.53125 96 490.5 c 0,3,4
 112 500 112 500 137 500 c 0,5,6
 183 500 183 500 198 469.5 c 128,-1,7
 213 439 213 439 213 386 c 2,8,-1
 213 191 l 2,9,10
 213 156 213 156 221.5 136.5 c 128,-1,11
 230 117 230 117 257 117 c 0,12,13
 294 117 294 117 308 162.5 c 128,-1,14
 322 208 322 208 322 291 c 2,15,-1
 322 386 l 2,16,17
 322 468.53125 322 468.53125 359 490.5 c 0,18,19
 375 500 375 500 400 500 c 0,20,21
 446 500 446 500 461 469.5 c 128,-1,22
 476 439 476 439 476 386 c 2,23,-1
 476 113 l 2,24,25
 476 27.2727272727 476 27.2727272727 442.5 9 c 0,26,27
 426 0 426 0 400 0 c 0,28,29
 322 0 322 0 322 84 c 1,30,31
 312 50 312 50 285 25 c 128,-1,32
 258 0 258 0 213 0 c 0,33,34
 150 0 150 0 104.5 43 c 128,-1,35
 59 86 59 86 59 178 c 2,0,-1
EndSplineSet
EndChar

StartChar: x
Encoding: 120 120 33
Width: 469
Flags: MW
HStem: 0 21G<101.5 121 351 370.5> 480 20G<101.5 121 350 369.5>
LayerCount: 2
Fore
SplineSet
364 500 m 0,0,1
 382 500 382 500 406 484.5 c 128,-1,2
 430 469 430 469 430 439.5 c 128,-1,3
 430 410 430 410 402 372 c 2,4,-1
 313 250 l 1,5,-1
 402 129 l 1,6,7
 430 86 430 86 430 58.5 c 128,-1,8
 430 31 430 31 406 15.5 c 128,-1,9
 382 0 382 0 367 0 c 128,-1,10
 352 0 352 0 339 8.5 c 0,11,12
 321.157894737 20.1659919028 321.157894737 20.1659919028 296 55 c 2,13,-1
 236 139 l 1,14,-1
 174 55 l 1,15,16
 139 0 139 0 107 0 c 0,17,18
 90 0 90 0 70 13 c 1,19,20
 42 33 42 33 42 59.5 c 128,-1,21
 42 86 42 86 70 129 c 1,22,-1
 154 250 l 1,23,-1
 70 372 l 1,24,25
 42 415 42 415 42 441 c 128,-1,26
 42 467 42 467 70 487 c 1,27,28
 90 500 90 500 107 500 c 0,29,30
 139 500 139 500 174 446 c 1,31,-1
 236 362 l 1,32,-1
 296 446 l 1,33,34
 333 500 333 500 364 500 c 0,0,1
EndSplineSet
EndChar

StartChar: y
Encoding: 121 121 34
Width: 458
Flags: MW
HStem: -200 118<86 101.5 86 160.5> 482 20G<354.5 393.5>
LayerCount: 2
Fore
SplineSet
64 -81 m 1,0,-1
 89 -82 l 2,1,2
 100 -82 100 -82 111 -66 c 128,-1,3
 122 -50 122 -50 137.5 -15 c 128,-1,4
 153 20 153 20 158 30 c 1,5,-1
 150 50 l 2,6,7
 66 259 66 259 41 334 c 128,-1,8
 16 409 16 409 16 435 c 128,-1,9
 16 461 16 461 38.5 480.5 c 128,-1,10
 61 500 61 500 92 500 c 0,11,12
 143 500 143 500 167 425 c 2,13,-1
 234 214 l 1,14,-1
 298 425 l 2,15,16
 308 458 308 458 327.5 480 c 128,-1,17
 347 502 347 502 375.5 502 c 128,-1,18
 404 502 404 502 425 481 c 128,-1,19
 446 460 446 460 446 432.5 c 128,-1,20
 446 405 446 405 433 370 c 2,21,-1
 313 52 l 2,22,23
 217 -200 217 -200 115 -200 c 0,24,25
 10 -200 10 -200 10 -136 c 0,26,27
 10 -81 10 -81 64 -81 c 1,0,-1
EndSplineSet
EndChar

StartChar: z
Encoding: 122 122 35
Width: 458
Flags: MW
HStem: 0 127<112 329 219 329 219 329> 374 126<106 327 129 239>
LayerCount: 2
Fore
SplineSet
129 500 m 2,0,-1
 327 500 l 2,1,2
 364 500 364 500 392 486 c 128,-1,3
 420 472 420 472 420 438 c 0,4,5
 420 422 420 422 393 370 c 1,6,-1
 219 127 l 1,7,-1
 329 127 l 2,8,9
 357 127 357 127 375 123.5 c 128,-1,10
 393 120 393 120 407.5 105.5 c 128,-1,11
 422 91 422 91 422 58.5 c 0,12,13
 422 26 422 26 397 13 c 128,-1,14
 372 0 372 0 329 0 c 2,15,-1
 132 0 l 2,16,17
 38 0 38 0 38 61 c 0,18,19
 38 90 38 90 66 130 c 2,20,-1
 239 374 l 1,21,-1
 129 374 l 2,22,23
 86 374 86 374 61 386 c 128,-1,24
 36 398 36 398 36 436.5 c 0,25,26
 36 475 36 475 61 487.5 c 128,-1,27
 86 500 86 500 129 500 c 2,0,-1
EndSplineSet
EndChar

StartChar: F
Encoding: 70 70 36
Width: 469
Flags: MW
HStem: 0 21G<108 183.5> 274 148<222 285 222 285> 552 148<222 341 222 222>
VStem: 70 152<115 274 422 552>
LayerCount: 2
Fore
SplineSet
146 700 m 2,0,-1
 341 700 l 2,1,2
 426.3125 700 426.3125 700 446.5 666 c 0,3,4
 456 650 456 650 456 626 c 128,-1,5
 456 602 456 602 446.5 586 c 128,-1,6
 437 570 437 570 418.5 563 c 0,7,8
 389.428571429 552 389.428571429 552 341 552 c 2,9,-1
 222 552 l 1,10,-1
 222 422 l 1,11,-1
 285 422 l 2,12,13
 353 422 353 422 375 405.5 c 0,14,15
 400 386.75 400 386.75 400 354.375 c 128,-1,16
 400 322 400 322 390.5 306 c 128,-1,17
 381 290 381 290 361.5 283.5 c 0,18,19
 333 274 333 274 285 274 c 2,20,-1
 222 274 l 1,21,-1
 222 115 l 2,22,23
 222 42.8 222 42.8 205.5 23 c 0,24,25
 186.333333333 1.24344978758e-14 186.333333333 1.24344978758e-14 146 0 c 128,-1,26
 105.666666667 0 105.666666667 0 86.5 23 c 0,27,28
 72.1578947368 40.2105263158 72.1578947368 40.2105263158 70.5 80 c 0,29,30
 70 92 70 92 70 115 c 2,31,-1
 70 585 l 2,32,33
 70 673.272727273 70 673.272727273 102.5 691 c 0,34,35
 119 700 119 700 146 700 c 2,0,-1
EndSplineSet
EndChar

StartChar: A
Encoding: 65 65 37
Width: 552
Flags: MW
HStem: 0 21G<71.5 140.5 411.5 480> 170 132<197 356 197 376 176 356> 680 20G<251 301 301 338>
VStem: 40 136 376 139<100 115 75 170 75 170>
LayerCount: 2
Fore
SplineSet
271 570 m 1,0,-1
 197 302 l 1,1,-1
 356 302 l 1,2,-1
 282 570 l 1,3,-1
 271 570 l 1,0,-1
511 253 m 1,4,-1
 515 115 l 1,5,-1
 515 100 l 2,6,7
 515 37.1428571429 515 37.1428571429 500 20 c 0,8,9
 482.5 6.57252030578e-14 482.5 6.57252030578e-14 454.25 3.28626015289e-14 c 128,-1,10
 426 0 426 0 412.5 6 c 128,-1,11
 399 12 399 12 391.5 20 c 128,-1,12
 384 28 384 28 380.5 43.5 c 0,13,14
 376 63.4285714286 376 63.4285714286 376 100 c 2,15,-1
 376 170 l 1,16,-1
 176 170 l 1,17,-1
 176 100 l 2,18,19
 176 36.5333333333 176 36.5333333333 160.5 20 c 0,20,21
 141.75 0 141.75 0 113.875 0 c 128,-1,22
 86 0 86 0 72.5 6 c 128,-1,23
 59 12 59 12 52 20 c 128,-1,24
 45 28 45 28 41.5 44 c 0,25,26
 37 64.5714285714 37 64.5714285714 37 100 c 2,27,-1
 37 115 l 2,28,29
 37 127 37 127 40 253 c 1,30,31
 56 308 56 308 92 427 c 128,-1,32
 128 546 128 546 143 599 c 128,-1,33
 158 652 158 652 179.5 676 c 128,-1,34
 201 700 201 700 251 700 c 2,35,-1
 301 700 l 2,36,37
 351 700 351 700 372.5 676 c 128,-1,38
 394 652 394 652 407 606 c 2,39,-1
 511 253 l 1,4,-1
EndSplineSet
EndChar

StartChar: bullet
Encoding: 8226 8226 38
Width: 517
Flags: MW
HStem: 184 21G<218 300.5> 423 20G<218 303>
LayerCount: 2
Fore
SplineSet
388 315 m 0,0,1
 388 184 388 184 260 184 c 0,2,3
 129 184 129 184 129 315 c 0,4,5
 129 443 129 443 260 443 c 0,6,7
 325 443 325 443 356.5 412 c 128,-1,8
 388 381 388 381 388 315 c 0,0,1
EndSplineSet
EndChar

StartChar: four
Encoding: 52 52 39
Width: 599
Flags: MW
HStem: 0 21G<410.5 474> 168 144<159 371 266 371 266 371> 680 20G<252.5 310>
VStem: 371 141<79 83 83 168 168 168 312 379>
LayerCount: 2
Fore
SplineSet
441 463 m 128,-1,1
 485 463 485 463 498.5 441.5 c 128,-1,2
 512 420 512 420 512 379 c 2,3,-1
 512 83 l 2,4,5
 512 42 512 42 499 21 c 128,-1,6
 486 0 486 0 442.5 0 c 128,-1,7
 399 0 399 0 385 20 c 128,-1,8
 371 40 371 40 371 79 c 2,9,-1
 371 168 l 1,10,-1
 200 168 l 2,11,12
 96 168 96 168 96 228 c 0,13,14
 96 236 96 236 100 252 c 2,15,-1
 201 603 l 1,16,17
 217.4375 668.75 217.4375 668.75 229 678 c 0,18,19
 234 682 234 682 242 689 c 0,20,21
 254.571428571 700 254.571428571 700 286 700 c 0,22,23
 347 700 347 700 347 640 c 0,24,25
 347 621 347 621 331 562 c 2,26,-1
 262 316 l 1,27,-1
 266 312 l 1,28,-1
 371 312 l 1,29,-1
 371 380 l 2,30,31
 371 421 371 421 384 442 c 128,-1,0
 397 463 397 463 441 463 c 128,-1,1
EndSplineSet
EndChar

StartChar: eight
Encoding: 56 56 40
Width: 596
Flags: MW
HStem: -4 121<280 326.5> 327 94<271.5 333> 577 127<280 326.5 280 333>
VStem: 100 140<503 516 516 517> 363 147<172 184 184 239 92 267 92 267>
LayerCount: 2
Fore
SplineSet
240 172 m 2,0,1
 240 137.769230769 240 137.769230769 272 123 c 0,2,3
 285 117 285 117 307.5 117 c 128,-1,4
 330 117 330 117 345 130.5 c 128,-1,5
 360 144 360 144 361.5 158 c 2,6,-1
 363 172 l 1,7,-1
 363 267 l 2,8,9
 363 274 363 274 361.5 284 c 128,-1,10
 360 294 360 294 345 310.5 c 128,-1,11
 330 327 330 327 302.5 327 c 128,-1,12
 275 327 275 327 259.5 312 c 128,-1,13
 244 297 244 297 242 282 c 2,14,-1
 240 267 l 1,15,-1
 240 172 l 2,0,1
303 704 m 128,-1,17
 324 704 324 704 342 702.5 c 128,-1,18
 360 701 360 701 392 690.5 c 128,-1,19
 424 680 424 680 445 662 c 128,-1,20
 466 644 466 644 483 606 c 128,-1,21
 500 568 500 568 500 516 c 2,22,-1
 500 503 l 2,23,24
 500 445 500 445 486 416.5 c 128,-1,25
 472 388 472 388 443 371 c 1,26,27
 475 353 475 353 492.5 324 c 128,-1,28
 510 295 510 295 510 239 c 2,29,-1
 510 184 l 2,30,31
 510 132 510 132 492 94 c 128,-1,32
 474 56 474 56 451.5 38 c 128,-1,33
 429 20 429 20 395.5 9.5 c 128,-1,34
 362 -1 362 -1 343.5 -2.5 c 128,-1,35
 325 -4 325 -4 303 -4 c 128,-1,36
 281 -4 281 -4 262 -2.5 c 128,-1,37
 243 -1 243 -1 209 9.5 c 128,-1,38
 175 20 175 20 151 38 c 128,-1,39
 127 56 127 56 108.5 94 c 128,-1,40
 90 132 90 132 90 184 c 2,41,-1
 90 239 l 2,42,43
 90 295 90 295 107.5 324 c 128,-1,44
 125 353 125 353 157 371 c 1,45,46
 128 388 128 388 114 416.5 c 128,-1,47
 100 445 100 445 100 503 c 2,48,-1
 100 516 l 2,49,50
 100 568 100 568 117.5 606 c 128,-1,51
 135 644 135 644 157.5 662 c 128,-1,52
 180 680 180 680 212.5 690.5 c 128,-1,53
 245 701 245 701 263.5 702.5 c 128,-1,16
 282 704 282 704 303 704 c 128,-1,17
240 476 m 2,54,55
 240 441.769230769 240 441.769230769 272 427 c 0,56,57
 285 421 285 421 307.5 421 c 128,-1,58
 330 421 330 421 345 434.5 c 128,-1,59
 360 448 360 448 361.5 462 c 2,60,-1
 363 476 l 1,61,-1
 363 517 l 2,62,63
 363 524 363 524 361.5 534 c 128,-1,64
 360 544 360 544 345 560.5 c 128,-1,65
 330 577 330 577 302.5 577 c 128,-1,66
 275 577 275 577 259.5 562 c 128,-1,67
 244 547 244 547 242 532 c 2,68,-1
 240 517 l 1,69,-1
 240 476 l 2,54,55
EndSplineSet
EndChar

StartChar: dieresis
Encoding: 168 168 41
Width: 467
Flags: MW
HStem: 550 152<100 148 308 356>
VStem: 48 152<600.5 652.5> 256 152<600.5 652.5>
LayerCount: 2
Fore
SplineSet
200 626 m 128,-1,1
 200 550 200 550 124 550 c 128,-1,2
 48 550 48 550 48 626 c 128,-1,3
 48 702 48 702 124 702 c 128,-1,0
 200 702 200 702 200 626 c 128,-1,1
408 626 m 128,-1,5
 408 550 408 550 332 550 c 128,-1,6
 256 550 256 550 256 626 c 128,-1,7
 256 702 256 702 332 702 c 128,-1,4
 408 702 408 702 408 626 c 128,-1,5
EndSplineSet
EndChar

StartChar: adieresis
Encoding: 228 228 42
Width: 510
Flags: MW
HStem: 0 117<219.5 228.5 219.5 417> 382 118<219.5 414.5> 549 152<127 175 335 383>
VStem: 42 154<177 190 190 311 172 322 172 388.5> 75 152<599.5 651.5> 283 152<599.5 651.5> 304 152<70.5 113 265 286>
LayerCount: 2
Fore
SplineSet
456 113 m 2,0,1
 456 27.5625 456 27.5625 423 9 c 0,2,3
 407 0 407 0 381 0 c 0,4,5
 304 0 304 0 304 84 c 1,6,7
 278 0 278 0 196 0 c 0,8,9
 133 0 133 0 87.5 43 c 128,-1,10
 42 86 42 86 42 177 c 2,11,-1
 42 322 l 2,12,13
 42 414 42 414 87.5 456.5 c 128,-1,14
 133 499 133 499 196 499 c 0,15,16
 241 499 241 499 267 474.5 c 128,-1,17
 293 450 293 450 304 415 c 1,18,19
 304 461 304 461 326.5 480.5 c 128,-1,20
 349 500 349 500 387.5 500 c 128,-1,21
 426 500 426 500 441 469.5 c 128,-1,22
 456 439 456 439 456 386 c 2,23,-1
 456 113 l 2,0,1
196 311 m 2,24,-1
 196 190 l 2,25,26
 196 156 196 156 204 136.5 c 128,-1,27
 212 117 212 117 244.5 117 c 128,-1,28
 277 117 277 117 290 150.5 c 128,-1,29
 303 184 303 184 303.5 237 c 128,-1,30
 304 290 304 290 299.5 314.5 c 128,-1,31
 295 339 295 339 279.5 360.5 c 128,-1,32
 264 382 264 382 238 382 c 128,-1,33
 212 382 212 382 204 363.5 c 128,-1,34
 196 345 196 345 196 311 c 2,24,-1
227 625 m 128,-1,36
 227 549 227 549 151 549 c 128,-1,37
 75 549 75 549 75 625 c 128,-1,38
 75 701 75 701 151 701 c 128,-1,35
 227 701 227 701 227 625 c 128,-1,36
435 625 m 128,-1,40
 435 549 435 549 359 549 c 128,-1,41
 283 549 283 549 283 625 c 128,-1,42
 283 701 283 701 359 701 c 128,-1,39
 435 701 435 701 435 625 c 128,-1,40
EndSplineSet
EndChar

StartChar: Edieresis
Encoding: 203 203 43
Width: 493
Flags: MW
HStem: 0 148<107.5 341 222 341 222 341> 286 136<222 285 222 285> 552 148<222 341 222 222> 750 152<131 179 339 387>
VStem: 70 152<148 286 422 552> 287 152<800.5 852.5> 287 169
LayerCount: 2
Fore
SplineSet
145 700 m 2,0,-1
 341 700 l 2,1,2
 424.75 700 424.75 700 446 666 c 0,3,4
 456 650 456 650 456 626 c 128,-1,5
 456 602 456 602 446 586 c 128,-1,6
 436 570 436 570 417.5 563 c 0,7,8
 388.428571429 552 388.428571429 552 341 552 c 2,9,-1
 222 552 l 1,10,-1
 222 422 l 1,11,-1
 285 422 l 2,12,13
 369.689655172 422 369.689655172 422 388 392.5 c 0,14,15
 397 378 397 378 397 354 c 128,-1,16
 397 330 397 330 388 315.5 c 128,-1,17
 379 301 379 301 360.5 295 c 0,18,19
 332.75 286 332.75 286 285 286 c 2,20,-1
 222 286 l 1,21,-1
 222 148 l 1,22,-1
 341 148 l 2,23,24
 424.387096774 148 424.387096774 148 446 114.5 c 0,25,26
 456 99 456 99 456 74.5 c 128,-1,27
 456 50 456 50 446 34 c 128,-1,28
 436 18 436 18 417.5 11 c 0,29,30
 388.428571429 -1.59872115546e-14 388.428571429 -1.59872115546e-14 341 0 c 2,31,-1
 145 0 l 2,32,33
 92 0 92 0 79.5 37.5 c 0,34,35
 70 66 70 66 70 115 c 2,36,-1
 70 585 l 2,37,38
 70 673 70 673 102 691 c 0,39,40
 118 700 118 700 145 700 c 2,0,-1
231 826 m 128,-1,42
 231 750 231 750 155 750 c 128,-1,43
 79 750 79 750 79 826 c 128,-1,44
 79 902 79 902 155 902 c 128,-1,41
 231 902 231 902 231 826 c 128,-1,42
439 826 m 128,-1,46
 439 750 439 750 363 750 c 128,-1,47
 287 750 287 750 287 826 c 128,-1,48
 287 902 287 902 363 902 c 128,-1,45
 439 902 439 902 439 826 c 128,-1,46
EndSplineSet
EndChar

StartChar: Idieresis
Encoding: 207 207 44
Width: 333
Flags: MW
HStem: 0 21G<128.5 206> 680 20G<128.5 205.5> 750 152<39 87 247 295>
VStem: -13 152<800.5 852.5> 84 166<115 585> 195 152<800.5 852.5>
LayerCount: 2
Fore
SplineSet
84 115 m 2,0,-1
 84 585 l 2,1,2
 84 651.882352941 84 651.882352941 104.5 676 c 128,-1,3
 124.9 700 124.9 700 167 700 c 0,4,5
 227.696969697 700 227.696969697 700 243 649.5 c 0,6,7
 250 626.4 250 626.4 250 585 c 2,8,-1
 250 115 l 2,9,10
 250 28.2857142857 250 28.2857142857 212.5 9 c 0,11,12
 195 0 195 0 170 0 c 128,-1,13
 145 0 145 0 129 7 c 128,-1,14
 113 14 113 14 104.5 23.5 c 128,-1,15
 96 33 96 33 91 49.5 c 0,16,17
 84 72.6 84 72.6 84 115 c 2,0,-1
139 826 m 128,-1,19
 139 750 139 750 63 750 c 128,-1,20
 -13 750 -13 750 -13 826 c 128,-1,21
 -13 902 -13 902 63 902 c 128,-1,18
 139 902 139 902 139 826 c 128,-1,19
347 826 m 128,-1,23
 347 750 347 750 271 750 c 128,-1,24
 195 750 195 750 195 826 c 128,-1,25
 195 902 195 902 271 902 c 128,-1,22
 347 902 347 902 347 826 c 128,-1,23
EndSplineSet
EndChar

StartChar: Odieresis
Encoding: 214 214 45
Width: 562
Flags: MW
HStem: -4 123<256.5 275 275 292> 575 129<275 292 292 311 275 316> 750 152<153 201 361 409>
VStem: 52 166<203 502 502 510> 101 152<800.5 852.5> 309 152<800.5 852.5> 349 164<184 203 203 502>
LayerCount: 2
Fore
SplineSet
253 826 m 128,-1,1
 253 750 253 750 177 750 c 128,-1,2
 101 750 101 750 101 826 c 128,-1,3
 101 902 101 902 177 902 c 128,-1,0
 253 902 253 902 253 826 c 128,-1,1
461 826 m 128,-1,5
 461 750 461 750 385 750 c 128,-1,6
 309 750 309 750 309 826 c 128,-1,7
 309 902 309 902 385 902 c 128,-1,4
 461 902 461 902 461 826 c 128,-1,5
52 502 m 2,8,9
 52 556 52 556 72.5 596.5 c 128,-1,10
 93 637 93 637 119.5 657 c 128,-1,11
 146 677 146 677 181.5 688.5 c 0,12,13
 229.347826087 704 229.347826087 704 275 704 c 2,14,-1
 292 704 l 2,15,16
 317.636363636 704 317.636363636 704 355.818181818 696.5 c 128,-1,17
 394 689 394 689 417.5 675 c 128,-1,18
 441 661 441 661 463.5 640.5 c 0,19,20
 513 595.4 513 595.4 513 502 c 2,21,-1
 513 203 l 2,22,23
 513 107.2 513 107.2 463.5 61 c 128,-1,24
 414.17447496 14.9628432956 414.17447496 14.9628432956 366 5.5 c 128,-1,25
 317.636363636 -4 317.636363636 -4 292 -4 c 2,26,-1
 275 -4 l 2,27,28
 228.833333333 -4 228.833333333 -4 187.416666667 10 c 128,-1,29
 146 24 146 24 119.5 44 c 128,-1,30
 93 64 93 64 72.5 105.5 c 128,-1,31
 52 147 52 147 52 203 c 2,32,-1
 52 502 l 2,8,9
218 184 m 2,33,34
 218 143.888888889 218 143.888888889 252.5 126 c 0,35,36
 266 119 266 119 289 119 c 128,-1,37
 312 119 312 119 328.5 135.5 c 128,-1,38
 345 152 345 152 347 168 c 2,39,-1
 349 184 l 1,40,-1
 349 510 l 2,41,42
 349 550.62962963 349 550.62962963 315.5 568 c 0,43,44
 302 575 302 575 278.5 575 c 128,-1,45
 255 575 255 575 238.5 558.5 c 128,-1,46
 222 542 222 542 220 526 c 2,47,-1
 218 510 l 1,48,-1
 218 184 l 2,33,34
EndSplineSet
EndChar

StartChar: Udieresis
Encoding: 220 220 46
Width: 604
Flags: MW
HStem: -4 118<271 335.5 271 372> 680 20G<115.5 193 413 490.5> 750 152<175 223 383 431>
VStem: 71 166<205 586 192 614.5> 123 152<800.5 852.5> 331 152<800.5 852.5> 369 166<192 205 205 586>
LayerCount: 2
Fore
SplineSet
275 826 m 128,-1,1
 275 750 275 750 199 750 c 128,-1,2
 123 750 123 750 123 826 c 128,-1,3
 123 902 123 902 199 902 c 128,-1,0
 275 902 275 902 275 826 c 128,-1,1
483 826 m 128,-1,5
 483 750 483 750 407 750 c 128,-1,6
 331 750 331 750 331 826 c 128,-1,7
 331 902 331 902 407 902 c 128,-1,4
 483 902 483 902 483 826 c 128,-1,5
71 205 m 2,8,-1
 71 586 l 2,9,10
 71 652.882352941 71 652.882352941 91.5 677 c 0,11,12
 111.05 700 111.05 700 146.525 700 c 128,-1,13
 182 700 182 700 199.5 691 c 128,-1,14
 217 682 217 682 225 663.5 c 0,15,16
 237 635.75 237 635.75 237 586 c 2,17,-1
 237 192 l 2,18,19
 237 144.222222222 237 144.222222222 271.5 122.5 c 0,20,21
 285 114 285 114 308.5 114 c 128,-1,22
 332 114 332 114 348.5 133.5 c 128,-1,23
 365 153 365 153 367 172.5 c 2,24,-1
 369 192 l 1,25,-1
 369 586 l 2,26,27
 369 671.714285714 369 671.714285714 406.5 691 c 0,28,29
 424 700 424 700 449 700 c 128,-1,30
 474 700 474 700 490 693.5 c 128,-1,31
 506 687 506 687 514.5 677 c 128,-1,32
 523 667 523 667 528 650.5 c 0,33,34
 535 627.4 535 627.4 535 586 c 2,35,-1
 535 205 l 2,36,37
 535 104 535 104 472 50 c 128,-1,38
 409 -4 409 -4 303 -4 c 128,-1,39
 197 -4 197 -4 134 51 c 128,-1,40
 71 106 71 106 71 205 c 2,8,-1
EndSplineSet
EndChar

StartChar: edieresis
Encoding: 235 235 47
Width: 510
Flags: MW
HStem: 0 100<254 296> 0 163<254 412.5> 222 75<198 323 198 397 198 323> 395 106<230 252 222.5 289.5> 550 152<124 172 332 380>
VStem: 46 152<187 222 158 297 297 304 304 332> 72 152<600.5 652.5> 280 152<600.5 652.5> 323 138
LayerCount: 2
Fore
SplineSet
224 626 m 128,-1,1
 224 550 224 550 148 550 c 128,-1,2
 72 550 72 550 72 626 c 128,-1,3
 72 702 72 702 148 702 c 128,-1,0
 224 702 224 702 224 626 c 128,-1,1
432 626 m 128,-1,5
 432 550 432 550 356 550 c 128,-1,6
 280 550 280 550 280 626 c 128,-1,7
 280 702 280 702 356 702 c 128,-1,4
 432 702 432 702 432 626 c 128,-1,5
468 316 m 2,8,-1
 468 285 l 2,9,10
 468 239.25 468 239.25 438 228 c 0,11,12
 422 222 422 222 397 222 c 2,13,-1
 198 222 l 1,14,-1
 198 174 l 2,15,16
 198 145 198 145 213 122.5 c 128,-1,17
 228 100 228 100 255 100 c 128,-1,18
 282 100 282 100 294.5 106.5 c 128,-1,19
 307 113 307 113 313 122.5 c 128,-1,20
 319 132 319 132 326 141 c 0,21,22
 343.111111111 163 343.111111111 163 396 163 c 0,23,24
 461 163 461 163 461 113 c 0,25,26
 461 82 461 82 441 59 c 128,-1,27
 421 36 421 36 388.5 23.5 c 0,28,29
 327.4 1.24344978758e-14 327.4 1.24344978758e-14 245.2 0.5 c 128,-1,30
 163 1 163 1 104.5 46 c 128,-1,31
 46 91 46 91 46 187 c 2,32,-1
 46 304 l 2,33,34
 46 501 46 501 252 501 c 0,35,36
 310 501 310 501 352 488 c 128,-1,37
 394 475 394 475 416 457 c 128,-1,38
 438 439 438 439 450.5 411.5 c 128,-1,39
 463 384 463 384 465.5 363.5 c 128,-1,40
 468 343 468 343 468 316 c 2,8,-1
198 332 m 2,41,-1
 198 297 l 1,42,-1
 323 297 l 1,43,44
 323 345.818181818 323 345.818181818 316 364.909090909 c 128,-1,45
 309 384 309 384 295 389.5 c 128,-1,46
 281 395 281 395 257 395 c 0,47,48
 198 395 198 395 198 332 c 2,41,-1
EndSplineSet
EndChar

StartChar: idieresis
Encoding: 239 239 48
Width: 313
Flags: MW
HStem: 0 21G<118 186> 550 152<24 72 232 280>
VStem: -28 152<600.5 652.5> 76 152<112 388> 180 152<600.5 652.5>
LayerCount: 2
Fore
SplineSet
76 112 m 2,0,-1
 76 388 l 2,1,2
 76 440 76 440 91 470 c 128,-1,3
 106 500 106 500 152 500 c 128,-1,4
 198 500 198 500 213 470 c 128,-1,5
 228 440 228 440 228 388 c 2,6,-1
 228 112 l 2,7,8
 228 60 228 60 213 30 c 128,-1,9
 198 0 198 0 152 0 c 128,-1,10
 106 0 106 0 91 30 c 128,-1,11
 76 60 76 60 76 112 c 2,0,-1
124 626 m 128,-1,13
 124 550 124 550 48 550 c 128,-1,14
 -28 550 -28 550 -28 626 c 128,-1,15
 -28 702 -28 702 48 702 c 128,-1,12
 124 702 124 702 124 626 c 128,-1,13
332 626 m 128,-1,17
 332 550 332 550 256 550 c 128,-1,18
 180 550 180 550 180 626 c 128,-1,19
 180 702 180 702 256 702 c 128,-1,16
 332 702 332 702 332 626 c 128,-1,17
EndSplineSet
EndChar

StartChar: odieresis
Encoding: 246 246 49
Width: 500
Flags: MW
HStem: 0 102<228 274.5> 389 111<228 274.5 228 279> 550 152<123 171 331 379>
VStem: 39 154<188 312 312 334> 71 152<600.5 652.5> 279 152<600.5 652.5> 307 149<153 188 188 312 96 334 96 334>
LayerCount: 2
Fore
SplineSet
39 312 m 2,0,1
 39 364 39 364 57.5 402 c 128,-1,2
 76 440 76 440 99.5 458 c 128,-1,3
 123 476 123 476 157.5 486.5 c 128,-1,4
 192 497 192 497 210.5 498.5 c 128,-1,5
 229 500 229 500 247 500 c 128,-1,6
 265 500 265 500 277.5 499.5 c 128,-1,7
 290 499 290 499 312 495 c 128,-1,8
 334 491 334 491 351.5 484 c 128,-1,9
 369 477 369 477 389.5 463 c 128,-1,10
 410 449 410 449 424 430 c 0,11,12
 456 386.571428571 456 386.571428571 456 312 c 2,13,-1
 456 188 l 2,14,15
 456 57.8 456 57.8 351.5 16 c 0,16,17
 316.666666667 2.06666666667 316.666666667 2.06666666667 290.833333333 1.03333333333 c 128,-1,18
 265 0 265 0 247 0 c 128,-1,19
 229 0 229 0 210.5 1.5 c 128,-1,20
 192 3 192 3 157.5 13.5 c 128,-1,21
 123 24 123 24 99.5 42 c 128,-1,22
 76 60 76 60 57.5 98 c 128,-1,23
 39 136 39 136 39 188 c 2,24,-1
 39 312 l 2,0,1
193 153 m 2,25,26
 193 147 193 147 194.5 138.5 c 128,-1,27
 196 130 196 130 210.5 116 c 128,-1,28
 225 102 225 102 250.5 102 c 128,-1,29
 276 102 276 102 290 115 c 128,-1,30
 304 128 304 128 305.5 140.5 c 2,31,-1
 307 153 l 1,32,-1
 307 334 l 2,33,34
 307 368.130434783 307 368.130434783 278.5 383 c 0,35,36
 267 389 267 389 246 389 c 128,-1,37
 225 389 225 389 210.5 375.5 c 128,-1,38
 196 362 196 362 194.5 348 c 2,39,-1
 193 334 l 1,40,-1
 193 153 l 2,25,26
223 626 m 128,-1,42
 223 550 223 550 147 550 c 128,-1,43
 71 550 71 550 71 626 c 128,-1,44
 71 702 71 702 147 702 c 128,-1,41
 223 702 223 702 223 626 c 128,-1,42
431 626 m 128,-1,46
 431 550 431 550 355 550 c 128,-1,47
 279 550 279 550 279 626 c 128,-1,48
 279 702 279 702 355 702 c 128,-1,45
 431 702 431 702 431 626 c 128,-1,46
EndSplineSet
EndChar

StartChar: udieresis
Encoding: 252 252 50
Width: 542
Flags: MW
HStem: 0 117<237 245.5 237 436.5> 550 152<143 191 351 399>
VStem: 59 154<178 191 191 386> 91 152<600.5 652.5> 299 152<600.5 652.5> 322 154<70 113 291 386>
LayerCount: 2
Fore
SplineSet
59 178 m 2,0,-1
 59 386 l 2,1,2
 59 468.53125 59 468.53125 96 490.5 c 0,3,4
 112 500 112 500 137 500 c 0,5,6
 183 500 183 500 198 469.5 c 128,-1,7
 213 439 213 439 213 386 c 2,8,-1
 213 191 l 2,9,10
 213 156 213 156 221.5 136.5 c 128,-1,11
 230 117 230 117 257 117 c 0,12,13
 294 117 294 117 308 162.5 c 128,-1,14
 322 208 322 208 322 291 c 2,15,-1
 322 386 l 2,16,17
 322 468.53125 322 468.53125 359 490.5 c 0,18,19
 375 500 375 500 400 500 c 0,20,21
 446 500 446 500 461 469.5 c 128,-1,22
 476 439 476 439 476 386 c 2,23,-1
 476 113 l 2,24,25
 476 27.2727272727 476 27.2727272727 442.5 9 c 0,26,27
 426 0 426 0 400 0 c 0,28,29
 322 0 322 0 322 84 c 1,30,31
 312 50 312 50 285 25 c 128,-1,32
 258 0 258 0 213 0 c 0,33,34
 150 0 150 0 104.5 43 c 128,-1,35
 59 86 59 86 59 178 c 2,0,-1
243 626 m 128,-1,37
 243 550 243 550 167 550 c 128,-1,38
 91 550 91 550 91 626 c 128,-1,39
 91 702 91 702 167 702 c 128,-1,36
 243 702 243 702 243 626 c 128,-1,37
451 626 m 128,-1,41
 451 550 451 550 375 550 c 128,-1,42
 299 550 299 550 299 626 c 128,-1,43
 299 702 299 702 375 702 c 128,-1,40
 451 702 451 702 451 626 c 128,-1,41
EndSplineSet
EndChar

StartChar: Ydieresis
Encoding: 376 376 51
Width: 500
Flags: MW
HStem: 0 21G<217 286.5> 680 20G<64.5 91 413 440> 750 152<124 172 332 380>
VStem: 72 152<800.5 852.5> 176 151<113 287> 280 152<800.5 852.5>
LayerCount: 2
Fore
SplineSet
224 826 m 128,-1,1
 224 750 224 750 148 750 c 128,-1,2
 72 750 72 750 72 826 c 128,-1,3
 72 902 72 902 148 902 c 128,-1,0
 224 902 224 902 224 826 c 128,-1,1
432 826 m 128,-1,5
 432 750 432 750 356 750 c 128,-1,6
 280 750 280 750 280 826 c 128,-1,7
 280 902 280 902 356 902 c 128,-1,4
 432 902 432 902 432 826 c 128,-1,5
327 287 m 1,8,-1
 327 113 l 2,9,10
 327 47.6666666667 327 47.6666666667 308.5 23 c 0,11,12
 291.25 0 291.25 0 259.125 0 c 128,-1,13
 227 0 227 0 211 9 c 128,-1,14
 195 18 195 18 187.5 36 c 0,15,16
 176 63.6 176 63.6 176 113 c 2,17,-1
 176 287 l 1,18,-1
 27 553 l 2,19,20
 -7 612 -7 612 -7 639.5 c 128,-1,21
 -7 667 -7 667 29 688 c 0,22,23
 51.5 700 51.5 700 71 700 c 0,24,25
 118 700 118 700 153 623 c 1,26,-1
 244 432 l 1,27,-1
 260 432 l 1,28,-1
 351 623 l 1,29,30
 386 700 386 700 433 700 c 0,31,32
 452 700 452 700 475 688 c 1,33,34
 511 666 511 666 511 635 c 0,35,36
 511 614 511 614 477 553 c 2,37,-1
 327 287 l 1,8,-1
EndSplineSet
EndChar

StartChar: ydieresis
Encoding: 255 255 52
Width: 458
Flags: MW
HStem: -200 118<86 101.5 86 160.5> 482 20G<354.5 378.5> 550 152<103 151 311 359>
VStem: 51 152<600.5 652.5> 259 152<600.5 652.5>
LayerCount: 2
Fore
SplineSet
64 -81 m 1,0,-1
 89 -82 l 2,1,2
 100 -82 100 -82 111 -66 c 128,-1,3
 122 -50 122 -50 137.5 -15 c 128,-1,4
 153 20 153 20 158 30 c 1,5,-1
 150 50 l 2,6,7
 66 259 66 259 41 334 c 128,-1,8
 16 409 16 409 16 432 c 0,9,10
 16 478 16 478 65 495 c 0,11,12
 78 500 78 500 92 500 c 0,13,14
 143 500 143 500 167 425 c 2,15,-1
 234 214 l 1,16,-1
 298 425 l 2,17,18
 308 458 308 458 327.5 480 c 128,-1,19
 347 502 347 502 367.5 502 c 128,-1,20
 388 502 388 502 403 496 c 0,21,22
 446 477 446 477 446 429 c 0,23,24
 446 405 446 405 433 370 c 2,25,-1
 313 52 l 2,26,27
 217 -200 217 -200 115 -200 c 0,28,29
 10 -200 10 -200 10 -140.5 c 128,-1,30
 10 -81 10 -81 64 -81 c 1,0,-1
203 626 m 128,-1,32
 203 550 203 550 127 550 c 128,-1,33
 51 550 51 550 51 626 c 128,-1,34
 51 702 51 702 127 702 c 128,-1,31
 203 702 203 702 203 626 c 128,-1,32
411 626 m 128,-1,36
 411 550 411 550 335 550 c 128,-1,37
 259 550 259 550 259 626 c 128,-1,38
 259 702 259 702 335 702 c 128,-1,35
 411 702 411 702 411 626 c 128,-1,36
EndSplineSet
EndChar

StartChar: AE
Encoding: 198 198 53
Width: 819
Flags: MW
HStem: 0 144<431.5 657 538 657 538 657> 170 132<235 394 235 394 187 394> 288 132<538 601 538 601> 556 144<538 657 538 538>
VStem: 51 136 394 144<144 170 170 170 420 556>
LayerCount: 2
Fore
SplineSet
51 253 m 1,0,1
 80 304 80 304 149 424 c 128,-1,2
 218 544 218 544 253 606 c 0,3,4
 306 700 306 700 399 700 c 2,5,-1
 657 700 l 2,6,7
 743.806451613 700 743.806451613 700 762.5 669.5 c 0,8,9
 772 654 772 654 772 630 c 128,-1,10
 772 606 772 606 762 590 c 128,-1,11
 752 574 752 574 733.5 567 c 0,12,13
 704.428571429 556 704.428571429 556 657 556 c 2,14,-1
 538 556 l 1,15,-1
 538 420 l 1,16,-1
 601 420 l 2,17,18
 669.923076923 420 669.923076923 420 690 405.5 c 0,19,20
 713 388.888888889 713 388.888888889 713 354 c 128,-1,21
 713 319.111111111 713 319.111111111 690 302.5 c 0,22,23
 673.074626866 290.276119403 673.074626866 290.276119403 648.037313433 289.138059701 c 128,-1,24
 623 288 623 288 601 288 c 2,25,-1
 538 288 l 1,26,-1
 538 144 l 1,27,-1
 657 144 l 2,28,29
 740.387096774 144 740.387096774 144 762 110.5 c 0,30,31
 772 95 772 95 772 73 c 128,-1,32
 772 51 772 51 764.5 37 c 128,-1,33
 757 23 757 23 747 16 c 128,-1,34
 737 9 737 9 719.5 5 c 0,35,36
 697.625 0 697.625 0 657 0 c 2,37,-1
 469 0 l 2,38,39
 416 0 416 0 403.5 37.5 c 0,40,41
 394 66 394 66 394 115 c 2,42,-1
 394 170 l 1,43,-1
 187 170 l 1,44,-1
 187 100 l 2,45,46
 187 36.5333333333 187 36.5333333333 171.5 20 c 0,47,48
 152.75 0 152.75 0 124.875 0 c 128,-1,49
 97 0 97 0 83.5 6 c 128,-1,50
 70 12 70 12 63 20 c 128,-1,51
 56 28 56 28 52.5 44 c 0,52,53
 48 64.5714285714 48 64.5714285714 48 100 c 2,54,-1
 48 115 l 2,55,56
 48 127 48 127 51 253 c 1,0,1
383 570 m 1,57,-1
 235 302 l 1,58,-1
 394 302 l 1,59,-1
 394 570 l 1,60,-1
 383 570 l 1,57,-1
EndSplineSet
EndChar

StartChar: ae
Encoding: 230 230 54
Width: 800
Flags: MW
HStem: 0 100<522 539.5 501.5 573.5> 0 188<522 697.5> 222 75<463 588> 313 188<106.5 300> 402 99<260.5 299.5>
VStem: 71 137 71 153<354.5 373.5 351 420> 331 132<172 174 174 221 221 221 297 329> 588 145<297 316>
LayerCount: 2
Fore
SplineSet
63 125 m 2,0,-1
 63 180 l 2,1,2
 63 230.75 63 230.75 108 264.5 c 0,3,4
 151.333333333 297 151.333333333 297 242 297 c 2,5,-1
 331 297 l 1,6,-1
 331 360 l 2,7,8
 331 402 331 402 277.5 402 c 128,-1,9
 224 402 224 402 224 360 c 0,10,11
 224 313 224 313 140 313 c 0,12,13
 80.4615384615 313 80.4615384615 313 72.5 347.5 c 0,14,15
 71 354 71 354 71 363 c 0,16,17
 71 404 71 404 90 432.5 c 128,-1,18
 109 461 109 461 141.5 475 c 0,19,20
 201.857142857 501 201.857142857 501 277.928571429 501 c 128,-1,21
 354 501 354 501 401 466 c 1,22,23
 450 501 450 501 512.5 501 c 128,-1,24
 575 501 575 501 617 488 c 128,-1,25
 659 475 659 475 681 457 c 128,-1,26
 703 439 703 439 715.5 411.5 c 128,-1,27
 728 384 728 384 730.5 363.5 c 128,-1,28
 733 343 733 343 733 316 c 2,29,-1
 733 285 l 2,30,31
 733 239.25 733 239.25 703 228 c 0,32,33
 687 222 687 222 662 222 c 2,34,-1
 463 222 l 1,35,-1
 463 174 l 2,36,37
 463 145 463 145 478 122.5 c 128,-1,38
 493 100 493 100 520.5 100 c 128,-1,39
 548 100 548 100 564 111 c 128,-1,40
 580 122 580 122 580 141 c 0,41,42
 580 188 580 188 664 188 c 0,43,44
 723.538461538 188 723.538461538 188 731.5 153.5 c 0,45,46
 733 147 733 147 733 138 c 0,47,48
 733 98 733 98 712 69 c 128,-1,49
 691 40 691 40 659 26 c 0,50,51
 599.571428571 -7.1054273576e-15 599.571428571 -7.1054273576e-15 548 0 c 0,52,53
 458 0 458 0 401 37 c 1,54,55
 354 0 354 0 256 0 c 128,-1,56
 158 0 158 0 110.5 33.5 c 128,-1,57
 63 67 63 67 63 125 c 2,0,-1
331 172 m 2,58,-1
 331 221 l 1,59,-1
 257 221 l 2,60,61
 237 221 237 221 222.5 207.5 c 128,-1,62
 208 194 208 194 208 165 c 128,-1,63
 208 136 208 136 217 123 c 128,-1,64
 226 110 226 110 262.5 110 c 128,-1,65
 299 110 299 110 315 130 c 128,-1,66
 331 150 331 150 331 172 c 2,58,-1
463 329 m 2,67,-1
 463 297 l 1,68,-1
 588 297 l 1,69,70
 588 360 588 360 578 380 c 128,-1,71
 568 400 568 400 521 400 c 0,72,73
 463 400 463 400 463 329 c 2,67,-1
EndSplineSet
EndChar

StartChar: period
Encoding: 46 46 55
Width: 299
Flags: MW
HStem: 0 165<121.5 174>
VStem: 65 165<55 111.5>
LayerCount: 2
Fore
SplineSet
230 82.5 m 0,0,1
 230 0 230 0 147.5 0 c 0,2,3
 65 0 65 0 65 82.5 c 0,4,5
 65 165 65 165 147.5 165 c 0,6,7
 230 165 230 165 230 82.5 c 0,0,1
EndSplineSet
EndChar

StartChar: ellipsis
Encoding: 8230 8230 56
Width: 860
Flags: MW
HStem: 0 165<131.5 184 404.5 457 677.5 730>
VStem: 75 165<55 111.5> 348 165<55 111.5> 621 165<55 111.5>
CounterMasks: 1 70
LayerCount: 2
Fore
SplineSet
240 82.5 m 0,0,1
 240 0 240 0 157.5 0 c 0,2,3
 75 0 75 0 75 82.5 c 0,4,5
 75 165 75 165 157.5 165 c 0,6,7
 240 165 240 165 240 82.5 c 0,0,1
513 82.5 m 0,8,9
 513 0 513 0 430.5 0 c 0,10,11
 348 0 348 0 348 82.5 c 0,12,13
 348 165 348 165 430.5 165 c 0,14,15
 513 165 513 165 513 82.5 c 0,8,9
786 82.5 m 0,16,17
 786 0 786 0 703.5 0 c 0,18,19
 621 0 621 0 621 82.5 c 0,20,21
 621 165 621 165 703.5 165 c 0,22,23
 786 165 786 165 786 82.5 c 0,16,17
EndSplineSet
EndChar

StartChar: guillemotright
Encoding: 187 187 57
Width: 768
Flags: MW
HStem: 67 21G<432.5 448.5> 68 21G<151.5 167.5> 521 20G<432.5 449> 522 20G<151.5 168>
LayerCount: 2
Fore
SplineSet
648 253 m 2,0,-1
 491 97 l 2,1,2
 461 67 461 67 440 67 c 0,3,4
 419 67 419 67 397 89 c 0,5,6
 375 111 375 111 375 132 c 128,-1,7
 375 153 375 153 405 183 c 2,8,-1
 527 303 l 1,9,-1
 404 425 l 2,10,11
 375 454 375 454 375 475.5 c 0,12,13
 375 497 375 497 397 519 c 0,14,15
 419 541 419 541 439.5 541 c 0,16,17
 460 541 460 541 490 511 c 2,18,-1
 647 355 l 2,19,20
 678 324 678 324 678 303.5 c 0,21,22
 678 283 678 283 648 253 c 2,0,-1
367 254 m 2,23,-1
 210 98 l 2,24,25
 180 68 180 68 159 68 c 0,26,27
 138 68 138 68 116 90 c 0,28,29
 94 112 94 112 94 133 c 128,-1,30
 94 154 94 154 124 184 c 2,31,-1
 246 304 l 1,32,-1
 123 426 l 2,33,34
 94 455 94 455 94 476.5 c 0,35,36
 94 498 94 498 116 520 c 0,37,38
 138 542 138 542 158.5 542 c 0,39,40
 179 542 179 542 209 512 c 2,41,-1
 366 356 l 2,42,43
 397 325 397 325 397 304.5 c 0,44,45
 397 284 397 284 367 254 c 2,23,-1
EndSplineSet
EndChar

StartChar: hyphen
Encoding: 45 45 58
Width: 463
Flags: MW
HStem: 240 122<96.5 336 115 143 143 336>
LayerCount: 2
Fore
SplineSet
336 240 m 2,0,-1
 115 240 l 2,1,2
 81 240 81 240 62 251.5 c 128,-1,3
 43 263 43 263 43 295.5 c 128,-1,4
 43 328 43 328 54.5 342.5 c 128,-1,5
 66 357 66 357 79 359.5 c 128,-1,6
 92 362 92 362 115 362 c 2,7,-1
 336 362 l 2,8,9
 358 362 358 362 371 359.5 c 128,-1,10
 384 357 384 357 396 342 c 128,-1,11
 408 327 408 327 408 295.5 c 128,-1,12
 408 264 408 264 388 252 c 128,-1,13
 368 240 368 240 336 240 c 2,0,-1
EndSplineSet
EndChar

StartChar: endash
Encoding: 8211 8211 59
Width: 458
Flags: MW
HStem: 239 122<103.5 343 122 150 150 343>
LayerCount: 2
Fore
SplineSet
343 239 m 2,0,-1
 122 239 l 2,1,2
 88 239 88 239 69 250.5 c 128,-1,3
 50 262 50 262 50 294.5 c 128,-1,4
 50 327 50 327 61.5 341.5 c 128,-1,5
 73 356 73 356 86 358.5 c 128,-1,6
 99 361 99 361 122 361 c 2,7,-1
 343 361 l 2,8,9
 365 361 365 361 378 358.5 c 128,-1,10
 391 356 391 356 403 341 c 128,-1,11
 415 326 415 326 415 294.5 c 128,-1,12
 415 263 415 263 395.5 251 c 128,-1,13
 376 239 376 239 343 239 c 2,0,-1
EndSplineSet
EndChar

StartChar: emdash
Encoding: 8212 8212 60
Width: 773
Flags: MW
HStem: 241 122<92.5 642 111 139 139 642>
LayerCount: 2
Fore
SplineSet
642 241 m 2,0,-1
 111 241 l 2,1,2
 77 241 77 241 58 252.5 c 128,-1,3
 39 264 39 264 39 296.5 c 128,-1,4
 39 329 39 329 50.5 343.5 c 128,-1,5
 62 358 62 358 75 360.5 c 128,-1,6
 88 363 88 363 111 363 c 2,7,-1
 642 363 l 2,8,9
 664 363 664 363 677 360.5 c 128,-1,10
 690 358 690 358 702 343 c 128,-1,11
 714 328 714 328 714 296.5 c 128,-1,12
 714 265 714 265 694 253 c 128,-1,13
 674 241 674 241 642 241 c 2,0,-1
EndSplineSet
EndChar

StartChar: underscore
Encoding: 95 95 61
Width: 704
Flags: MW
HStem: 1 122<126.5 555 145 173 173 555>
LayerCount: 2
Fore
SplineSet
555 1 m 2,0,-1
 145 1 l 2,1,2
 111 1 111 1 92 12.5 c 128,-1,3
 73 24 73 24 73 56.5 c 128,-1,4
 73 89 73 89 84.5 103.5 c 128,-1,5
 96 118 96 118 109 120.5 c 128,-1,6
 122 123 122 123 145 123 c 2,7,-1
 555 123 l 2,8,9
 577 123 577 123 590 120.5 c 128,-1,10
 603 118 603 118 615 103 c 128,-1,11
 627 88 627 88 627 56.5 c 128,-1,12
 627 25 627 25 607.5 13 c 128,-1,13
 588 1 588 1 555 1 c 2,0,-1
EndSplineSet
EndChar

StartChar: minus
Encoding: 8722 8722 62
Width: 519
Flags: MW
HStem: 300 122<118.5 358 137 165 165 358>
LayerCount: 2
Fore
SplineSet
358 300 m 2,0,-1
 137 300 l 2,1,2
 103 300 103 300 84 311.5 c 128,-1,3
 65 323 65 323 65 355.5 c 128,-1,4
 65 388 65 388 76.5 402.5 c 128,-1,5
 88 417 88 417 101 419.5 c 128,-1,6
 114 422 114 422 137 422 c 2,7,-1
 358 422 l 2,8,9
 380 422 380 422 393 419.5 c 128,-1,10
 406 417 406 417 418 402 c 128,-1,11
 430 387 430 387 430 355.5 c 128,-1,12
 430 324 430 324 410 312 c 128,-1,13
 390 300 390 300 358 300 c 2,0,-1
EndSplineSet
EndChar

StartChar: plus
Encoding: 43 43 63
Width: 551
Flags: MW
HStem: 178 244<168 306> 300 122<168 169 169 179 179 217 339 389> 300 243<150 306 169 306 179 306 249.5 339 249.5 389>
VStem: 96 243<231.5 389.5> 217 122<250 300 231.5 300 422 471> 217 244<250 389.5 300 389.5 333 471 333 488>
LayerCount: 2
Fore
SplineSet
217 300 m 1,0,-1
 169 300 l 2,1,2
 134 300 134 300 115 311.5 c 128,-1,3
 96 323 96 323 96 355.5 c 128,-1,4
 96 388 96 388 107.5 402.5 c 128,-1,5
 119 417 119 417 132 419.5 c 128,-1,6
 145 422 145 422 168 422 c 2,7,-1
 217 422 l 1,8,-1
 217 471 l 2,9,10
 217 493 217 493 219.5 506 c 128,-1,11
 222 519 222 519 237 531 c 128,-1,12
 252 543 252 543 283.5 543 c 128,-1,13
 315 543 315 543 327 523 c 128,-1,14
 339 503 339 503 339 471 c 2,15,-1
 339 422 l 1,16,-1
 389 422 l 2,17,18
 411 422 411 422 424 419.5 c 128,-1,19
 437 417 437 417 449 402 c 128,-1,20
 461 387 461 387 461 355.5 c 128,-1,21
 461 324 461 324 441.5 312 c 128,-1,22
 422 300 422 300 389 300 c 2,23,-1
 339 300 l 1,24,-1
 339 250 l 2,25,26
 339 216 339 216 327.5 197 c 128,-1,27
 316 178 316 178 283.5 178 c 128,-1,28
 251 178 251 178 236.5 189.5 c 128,-1,29
 222 201 222 201 219.5 214 c 128,-1,30
 217 227 217 227 217 250 c 2,31,-1
 217 300 l 1,0,-1
EndSplineSet
EndChar

StartChar: plusminus
Encoding: 177 177 64
Width: 529
Flags: MW
HStem: 106 122<135.5 375 154 182 182 375> 277 244<156 294> 399 122<137.5 205 156 205 327 377> 399 243<137.5 294 156 294 237.5 327 237.5 377>
VStem: 82 245<139 349> 205 122<349 399 330.5 399 521 570> 205 242<139 399 139 399>
LayerCount: 2
Fore
SplineSet
375 106 m 2,0,-1
 154 106 l 2,1,2
 120 106 120 106 101 117.5 c 128,-1,3
 82 129 82 129 82 161.5 c 128,-1,4
 82 194 82 194 93.5 208.5 c 128,-1,5
 105 223 105 223 118 225.5 c 128,-1,6
 131 228 131 228 154 228 c 2,7,-1
 375 228 l 2,8,9
 397 228 397 228 410 225.5 c 128,-1,10
 423 223 423 223 435 208 c 128,-1,11
 447 193 447 193 447 161.5 c 128,-1,12
 447 130 447 130 427.5 118 c 128,-1,13
 408 106 408 106 375 106 c 2,0,-1
156 399 m 2,14,15
 122 399 122 399 103 410.5 c 128,-1,16
 84 422 84 422 84 454.5 c 128,-1,17
 84 487 84 487 95.5 501.5 c 128,-1,18
 107 516 107 516 120 518.5 c 128,-1,19
 133 521 133 521 156 521 c 2,20,-1
 205 521 l 1,21,-1
 205 570 l 2,22,23
 205 592 205 592 207.5 605 c 128,-1,24
 210 618 210 618 225 630 c 128,-1,25
 240 642 240 642 271.5 642 c 128,-1,26
 303 642 303 642 315 622 c 128,-1,27
 327 602 327 602 327 570 c 2,28,-1
 327 521 l 1,29,-1
 377 521 l 2,30,31
 399 521 399 521 412 518.5 c 128,-1,32
 425 516 425 516 437 501 c 128,-1,33
 449 486 449 486 449 454.5 c 128,-1,34
 449 423 449 423 429.5 411 c 128,-1,35
 410 399 410 399 377 399 c 2,36,-1
 327 399 l 1,37,-1
 327 349 l 2,38,39
 327 315 327 315 315.5 296 c 128,-1,40
 304 277 304 277 271.5 277 c 128,-1,41
 239 277 239 277 224.5 288.5 c 128,-1,42
 210 300 210 300 207.5 313 c 128,-1,43
 205 326 205 326 205 349 c 2,44,-1
 205 399 l 1,45,-1
 156 399 l 2,14,15
EndSplineSet
EndChar

StartChar: equal
Encoding: 61 61 65
Width: 551
Flags: MW
HStem: 145 122<143.5 383 162 190 190 383> 341 122<145.5 385 164 192 192 385>
LayerCount: 2
Fore
SplineSet
385 341 m 2,0,-1
 164 341 l 2,1,2
 130 341 130 341 111 352.5 c 128,-1,3
 92 364 92 364 92 396.5 c 128,-1,4
 92 429 92 429 103.5 443.5 c 128,-1,5
 115 458 115 458 128 460.5 c 128,-1,6
 141 463 141 463 164 463 c 2,7,-1
 385 463 l 2,8,9
 407 463 407 463 420 460.5 c 128,-1,10
 433 458 433 458 445 443 c 128,-1,11
 457 428 457 428 457 396.5 c 128,-1,12
 457 365 457 365 437.5 353 c 128,-1,13
 418 341 418 341 385 341 c 2,0,-1
383 145 m 2,14,-1
 162 145 l 2,15,16
 128 145 128 145 109 156.5 c 128,-1,17
 90 168 90 168 90 200.5 c 128,-1,18
 90 233 90 233 101.5 247.5 c 128,-1,19
 113 262 113 262 126 264.5 c 128,-1,20
 139 267 139 267 162 267 c 2,21,-1
 383 267 l 2,22,23
 405 267 405 267 418 264.5 c 128,-1,24
 431 262 431 262 443 247 c 128,-1,25
 455 232 455 232 455 200.5 c 128,-1,26
 455 169 455 169 435.5 157 c 128,-1,27
 416 145 416 145 383 145 c 2,14,-1
EndSplineSet
EndChar

StartChar: cedilla
Encoding: 184 184 66
Width: 332
Flags: MW
HStem: -196 51<146.5 168 146.5 196.5> -196 125<72.5 196.5> -58 106<175 181.5>
VStem: 38 89<-111 -92 -111 -92> 199 98<-114 -101 -101 -97 -139.5 -75.5>
LayerCount: 2
Fore
SplineSet
146 -4 m 2,0,-1
 175 48 l 1,1,-1
 236 48 l 1,2,-1
 201 -11 l 1,3,4
 228 -11 228 -11 237 -13 c 128,-1,5
 246 -15 246 -15 257.5 -17 c 128,-1,6
 269 -19 269 -19 272 -22.5 c 128,-1,7
 275 -26 275 -26 282 -32 c 128,-1,8
 289 -38 289 -38 291 -46.5 c 0,9,10
 297 -72 297 -72 297 -97 c 2,11,-1
 297 -101 l 2,12,13
 297 -196 297 -196 162 -196 c 0,14,15
 95 -196 95 -196 66.5 -172.5 c 128,-1,16
 38 -149 38 -149 38 -101 c 0,17,18
 38 -88 38 -88 52 -79.5 c 128,-1,19
 66 -71 66 -71 81.5 -71 c 128,-1,20
 97 -71 97 -71 112 -79.5 c 128,-1,21
 127 -88 127 -88 127 -104 c 0,22,23
 127 -145 127 -145 162 -145 c 0,24,25
 175 -145 175 -145 187 -133 c 128,-1,26
 199 -121 199 -121 199 -94.5 c 128,-1,27
 199 -68 199 -68 194 -63 c 128,-1,28
 189 -58 189 -58 171 -58 c 0,29,30
 138 -58 138 -58 138 -28 c 0,31,32
 138 -17 138 -17 146 -4 c 2,0,-1
EndSplineSet
EndChar

StartChar: ccedilla
Encoding: 231 231 67
Width: 500
Flags: MW
HStem: -200 51<228.5 250 228.5 278.5> -200 125<154.5 278.5> -62 162<239.5 263.5> 0 211<232 429.5> 277 223<218.5 428.5> 386 114<223.5 277.5>
VStem: 42 152<186 303 303 328> 120 89<-115 -96 -115 -96> 281 98<-118 -105 -105 -101 -143.5 -79.5> 309 156<106 340>
LayerCount: 2
Fore
SplineSet
227.5 -53.5 m 128,-1,1
 220 -45 220 -45 220 -34.5 c 128,-1,2
 220 -24 220 -24 232 0 c 1,3,4
 151 4 151 4 96.5 50.5 c 128,-1,5
 42 97 42 97 42 186 c 2,6,-1
 42 303 l 2,7,8
 42 500 42 500 248 500 c 0,9,10
 311 500 311 500 356 484.5 c 128,-1,11
 401 469 401 469 423 443 c 0,12,13
 464 394.545454545 464 394.545454545 464 340 c 0,14,15
 464 294.25 464 294.25 434 283 c 0,16,17
 418 277 418 277 393 277 c 0,18,19
 309 277 309 277 309 324 c 0,20,21
 309 372.153846154 309 372.153846154 282 381.5 c 0,22,23
 269 386 269 386 248 386 c 0,24,25
 194 386 194 386 194 328 c 2,26,-1
 194 173 l 2,27,28
 194 100 194 100 248 100 c 0,29,30
 276 100 276 100 290 109.5 c 128,-1,31
 304 119 304 119 307 131 c 128,-1,32
 310 143 310 143 310 164 c 0,33,34
 310 211 310 211 394 211 c 0,35,36
 444.95 211 444.95 211 456.5 190 c 0,37,38
 465 174.545454545 465 174.545454545 465 160 c 0,39,40
 465 86 465 86 415.5 49 c 128,-1,41
 366 12 366 12 293 3 c 1,42,-1
 283 -15 l 1,43,44
 310 -15 310 -15 319 -17 c 128,-1,45
 328 -19 328 -19 339.5 -21 c 128,-1,46
 351 -23 351 -23 354 -26.5 c 128,-1,47
 357 -30 357 -30 364 -36 c 128,-1,48
 371 -42 371 -42 373 -50.5 c 0,49,50
 379 -76 379 -76 379 -101 c 2,51,-1
 379 -105 l 2,52,53
 379 -200 379 -200 244 -200 c 0,54,55
 177 -200 177 -200 148.5 -176.5 c 128,-1,56
 120 -153 120 -153 120 -105 c 0,57,58
 120 -92 120 -92 134 -83.5 c 128,-1,59
 148 -75 148 -75 163.5 -75 c 128,-1,60
 179 -75 179 -75 194 -83.5 c 128,-1,61
 209 -92 209 -92 209 -108 c 0,62,63
 209 -149 209 -149 244 -149 c 0,64,65
 257 -149 257 -149 269 -137 c 128,-1,66
 281 -125 281 -125 281 -98.5 c 128,-1,67
 281 -72 281 -72 276 -67 c 128,-1,68
 271 -62 271 -62 253 -62 c 128,-1,0
 235 -62 235 -62 227.5 -53.5 c 128,-1,1
EndSplineSet
EndChar

StartChar: Ccedilla
Encoding: 199 199 68
Width: 555
Flags: MW
HStem: -196 51<251.5 273 251.5 301.5> -196 125<177.5 301.5> -58 173<262.5 286.5> -2 117 574 130<278 309.5>
VStem: 45 168<205 484 484 509 192 594> 143 89<-111 -92 -111 -92> 304 98<-114 -101 -101 -97 -139.5 -75.5> 355 168<202.5 233.5 164 244 461 494>
LayerCount: 2
Fore
SplineSet
278 115 m 0,0,1
 355 115 355 115 355 234 c 0,2,3
 355 280 355 280 443 280 c 0,4,5
 501.882352941 280 501.882352941 280 517.5 250.5 c 0,6,7
 523 240.111111111 523 240.111111111 523 230 c 0,8,9
 523 133 523 133 465.5 72 c 128,-1,10
 408 11 408 11 312 0 c 1,11,-1
 306 -11 l 1,12,13
 333 -11 333 -11 342 -13 c 128,-1,14
 351 -15 351 -15 362.5 -17 c 128,-1,15
 374 -19 374 -19 377 -22.5 c 128,-1,16
 380 -26 380 -26 387 -32 c 128,-1,17
 394 -38 394 -38 396 -46.5 c 0,18,19
 402 -72 402 -72 402 -97 c 2,20,-1
 402 -101 l 2,21,22
 402 -196 402 -196 267 -196 c 0,23,24
 200 -196 200 -196 171.5 -172.5 c 128,-1,25
 143 -149 143 -149 143 -101 c 0,26,27
 143 -88 143 -88 157 -79.5 c 128,-1,28
 171 -71 171 -71 186.5 -71 c 128,-1,29
 202 -71 202 -71 217 -79.5 c 128,-1,30
 232 -88 232 -88 232 -104 c 0,31,32
 232 -145 232 -145 267 -145 c 0,33,34
 280 -145 280 -145 292 -133 c 128,-1,35
 304 -121 304 -121 304 -94.5 c 128,-1,36
 304 -68 304 -68 299 -63 c 128,-1,37
 294 -58 294 -58 276 -58 c 0,38,39
 243 -58 243 -58 243 -28 c 0,40,41
 243 -18 243 -18 251 -2 c 1,42,43
 201.510318949 0.249530956848 201.510318949 0.249530956848 162.255159475 17.6247654784 c 128,-1,44
 123 35 123 35 100 56 c 128,-1,45
 77 77 77 77 61 115.5 c 128,-1,46
 45 154 45 154 45 205 c 2,47,-1
 45 484 l 2,48,49
 45 546 45 546 69 591 c 128,-1,50
 93 636 93 636 127.5 657 c 0,51,52
 196.328358209 698.895522388 196.328358209 698.895522388 254 702.5 c 2,53,-1
 278 704 l 1,54,55
 341 704 341 704 388 686 c 128,-1,56
 435 668 435 668 460 642.5 c 128,-1,57
 485 617 485 617 500 582.5 c 0,58,59
 523 529.6 523 529.6 523 471 c 0,60,61
 523 426.777777778 523 426.777777778 489 414.5 c 0,62,63
 471 408 471 408 443 408 c 0,64,65
 355 408 355 408 355 458 c 0,66,67
 355 517 355 517 338.5 545.5 c 128,-1,68
 322 574 322 574 278 574 c 0,69,70
 249 574 249 574 233 558 c 128,-1,71
 217 542 217 542 215 525.5 c 2,72,-1
 213 509 l 1,73,-1
 213 192 l 2,74,75
 213 144.592592593 213 144.592592593 246.5 123.5 c 0,76,77
 260 115 260 115 278 115 c 0,0,1
EndSplineSet
EndChar

StartChar: comma
Encoding: 44 44 69
Width: 307
Flags: MW
HStem: -82 247<132.5 169>
VStem: 64 165<50.5 111.5 50.5 111.5>
LayerCount: 2
Fore
SplineSet
229 83 m 0,0,1
 229 25 229 25 204.5 -28.5 c 128,-1,2
 180 -82 180 -82 138 -82 c 0,3,4
 129 -82 129 -82 121.5 -75.5 c 128,-1,5
 114 -69 114 -69 114 -57 c 2,6,-1
 114 -53 l 2,7,8
 114 -46 114 -46 122 -32.5 c 128,-1,9
 130 -19 130 -19 130 -11.5 c 0,10,11
 130 -4 130 -4 113.5 3.5 c 128,-1,12
 97 11 97 11 80.5 29.5 c 128,-1,13
 64 48 64 48 64 83 c 0,14,15
 64 165 64 165 146.5 165 c 0,16,17
 229 165 229 165 229 83 c 0,0,1
EndSplineSet
EndChar

StartChar: ampersand
Encoding: 38 38 70
Width: 648
Flags: MW
HStem: -1 21G<504 523.5> 0 130<247.5 277.5 247.5 302.5> 592 112<268.5 303>
VStem: 61 145<174 222 174 241> 100 132<529 547.5 529 577> 343 119<516 548.5>
LayerCount: 2
Fore
SplineSet
100 528 m 0,0,1
 100 604 100 604 149 654 c 128,-1,2
 198 704 198 704 278.5 704 c 128,-1,3
 359 704 359 704 410.5 655.5 c 128,-1,4
 462 607 462 607 462 528 c 0,5,6
 462 414 462 414 365 347 c 1,7,-1
 422 279 l 1,8,-1
 448 310 l 2,9,10
 489 360 489 360 522 360 c 0,11,12
 542 360 542 360 565 340.5 c 128,-1,13
 588 321 588 321 588 294 c 128,-1,14
 588 267 588 267 551 223 c 2,15,-1
 510 173 l 1,16,-1
 545 132 l 2,17,18
 582 88 582 88 582 62 c 128,-1,19
 582 36 582 36 560 17.5 c 128,-1,20
 538 -1 538 -1 518 -1 c 128,-1,21
 498 -1 498 -1 478 16 c 128,-1,22
 458 33 458 33 426 74 c 1,23,24
 402 42 402 42 360 21 c 128,-1,25
 318 0 318 0 264 0 c 0,26,27
 167 0 167 0 114 57.5 c 128,-1,28
 61 115 61 115 61 203 c 0,29,30
 61 259 61 259 90.5 307.5 c 128,-1,31
 120 356 120 356 169 384 c 1,32,-1
 158 398 l 2,33,34
 156 401 156 401 143 416.5 c 128,-1,35
 130 432 130 432 126 438.5 c 128,-1,36
 122 445 122 445 114 460 c 0,37,38
 100 486.25 100 486.25 100 528 c 0,0,1
339 179 m 1,39,-1
 247 290 l 1,40,41
 206 257 206 257 206 203 c 0,42,43
 206 164 206 164 222 147 c 128,-1,44
 238 130 238 130 261 130 c 128,-1,45
 284 130 284 130 299.5 140.5 c 128,-1,46
 315 151 315 151 339 179 c 1,39,-1
327.5 575 m 128,-1,48
 312 592 312 592 287 592 c 128,-1,49
 262 592 262 592 247 574 c 128,-1,50
 232 556 232 556 232 532 c 128,-1,51
 232 508 232 508 258 477 c 2,52,-1
 288 441 l 1,53,54
 314 456 314 456 328.5 481.5 c 128,-1,55
 343 507 343 507 343 532.5 c 128,-1,47
 343 558 343 558 327.5 575 c 128,-1,48
EndSplineSet
EndChar

StartChar: acute
Encoding: 180 180 71
Width: 359
Flags: MW
HStem: 551 21G<115 129> 706 20G<223 236.5>
LayerCount: 2
Fore
SplineSet
88 649 m 1,0,-1
 200 717 l 2,1,2
 213 726 213 726 228 726 c 0,3,4
 262 726 262 726 275.5 706 c 0,5,6
 289 686 289 686 289 664.5 c 0,7,8
 289 643 289 643 264 626 c 1,9,-1
 154 559 l 2,10,11
 142 551 142 551 117.5 551 c 0,12,13
 93 551 93 551 79.5 570 c 0,14,15
 66 589 66 589 66 611.5 c 0,16,17
 66 634 66 634 88 649 c 1,0,-1
EndSplineSet
EndChar

StartChar: grave
Encoding: 96 96 72
Width: 349
Flags: MW
HStem: 551 21G<226 240> 706 20G<118.5 132>
LayerCount: 2
Fore
SplineSet
155 717 m 2,0,-1
 267 649 l 1,1,2
 289 634 289 634 289 611.5 c 0,3,4
 289 589 289 589 278 574 c 0,5,6
 262 551 262 551 237.5 551 c 0,7,8
 213 551 213 551 201 559 c 2,9,-1
 91 626 l 1,10,11
 66 643 66 643 66 664.5 c 0,12,13
 66 686 66 686 79.5 706 c 0,14,15
 93 726 93 726 127 726 c 0,16,17
 142 726 142 726 155 717 c 2,0,-1
EndSplineSet
EndChar

StartChar: Agrave
Encoding: 192 192 73
Width: 552
Flags: MW
HStem: 0 21G<71.5 140.5 411.5 480> 170 132<197 356 197 376 176 356> 680 20G<251 301 301 338> 906 20G<218.5 232>
VStem: 40 136 376 139<100 115 75 170 75 170>
LayerCount: 2
Fore
SplineSet
271 570 m 1,0,-1
 197 302 l 1,1,-1
 356 302 l 1,2,-1
 282 570 l 1,3,-1
 271 570 l 1,0,-1
511 253 m 1,4,-1
 515 115 l 1,5,-1
 515 100 l 2,6,7
 515 37.1428571429 515 37.1428571429 500 20 c 0,8,9
 482.5 6.57252030578e-14 482.5 6.57252030578e-14 454.25 3.28626015289e-14 c 128,-1,10
 426 0 426 0 412.5 6 c 128,-1,11
 399 12 399 12 391.5 20 c 128,-1,12
 384 28 384 28 380.5 43.5 c 0,13,14
 376 63.4285714286 376 63.4285714286 376 100 c 2,15,-1
 376 170 l 1,16,-1
 176 170 l 1,17,-1
 176 100 l 2,18,19
 176 36.5333333333 176 36.5333333333 160.5 20 c 0,20,21
 141.75 0 141.75 0 113.875 0 c 128,-1,22
 86 0 86 0 72.5 6 c 128,-1,23
 59 12 59 12 52 20 c 128,-1,24
 45 28 45 28 41.5 44 c 0,25,26
 37 64.5714285714 37 64.5714285714 37 100 c 2,27,-1
 37 115 l 2,28,29
 37 127 37 127 40 253 c 1,30,31
 56 308 56 308 92 427 c 128,-1,32
 128 546 128 546 143 599 c 128,-1,33
 158 652 158 652 179.5 676 c 128,-1,34
 201 700 201 700 251 700 c 2,35,-1
 301 700 l 2,36,37
 351 700 351 700 372.5 676 c 128,-1,38
 394 652 394 652 407 606 c 2,39,-1
 511 253 l 1,4,-1
255 917 m 2,40,-1
 367 849 l 1,41,42
 389 834 389 834 389 811.5 c 128,-1,43
 389 789 389 789 378 774 c 0,44,45
 362 751 362 751 337.5 751 c 128,-1,46
 313 751 313 751 301 759 c 2,47,-1
 191 826 l 1,48,49
 166 843 166 843 166 864.5 c 128,-1,50
 166 886 166 886 179.5 906 c 128,-1,51
 193 926 193 926 227 926 c 0,52,53
 242 926 242 926 255 917 c 2,40,-1
EndSplineSet
EndChar

StartChar: Aacute
Encoding: 193 193 74
Width: 552
Flags: MW
HStem: 0 21G<71.5 140.5 411.5 480> 170 132<197 356 197 376 176 356> 680 20G<251 301 301 338> 905 20G<325 338.5>
VStem: 40 136 376 139<100 115 75 170 75 170>
LayerCount: 2
Fore
SplineSet
271 570 m 1,0,-1
 197 302 l 1,1,-1
 356 302 l 1,2,-1
 282 570 l 1,3,-1
 271 570 l 1,0,-1
511 253 m 1,4,-1
 515 115 l 1,5,-1
 515 100 l 2,6,7
 515 37.1428571429 515 37.1428571429 500 20 c 0,8,9
 482.5 6.57252030578e-14 482.5 6.57252030578e-14 454.25 3.28626015289e-14 c 128,-1,10
 426 0 426 0 412.5 6 c 128,-1,11
 399 12 399 12 391.5 20 c 128,-1,12
 384 28 384 28 380.5 43.5 c 0,13,14
 376 63.4285714286 376 63.4285714286 376 100 c 2,15,-1
 376 170 l 1,16,-1
 176 170 l 1,17,-1
 176 100 l 2,18,19
 176 36.5333333333 176 36.5333333333 160.5 20 c 0,20,21
 141.75 0 141.75 0 113.875 0 c 128,-1,22
 86 0 86 0 72.5 6 c 128,-1,23
 59 12 59 12 52 20 c 128,-1,24
 45 28 45 28 41.5 44 c 0,25,26
 37 64.5714285714 37 64.5714285714 37 100 c 2,27,-1
 37 115 l 2,28,29
 37 127 37 127 40 253 c 1,30,31
 56 308 56 308 92 427 c 128,-1,32
 128 546 128 546 143 599 c 128,-1,33
 158 652 158 652 179.5 676 c 128,-1,34
 201 700 201 700 251 700 c 2,35,-1
 301 700 l 2,36,37
 351 700 351 700 372.5 676 c 128,-1,38
 394 652 394 652 407 606 c 2,39,-1
 511 253 l 1,4,-1
190 848 m 1,40,-1
 302 916 l 2,41,42
 315 925 315 925 330 925 c 0,43,44
 364 925 364 925 377.5 905 c 128,-1,45
 391 885 391 885 391 863.5 c 128,-1,46
 391 842 391 842 366 825 c 1,47,-1
 256 758 l 2,48,49
 244 750 244 750 219.5 750 c 128,-1,50
 195 750 195 750 181.5 769 c 128,-1,51
 168 788 168 788 168 810.5 c 128,-1,52
 168 833 168 833 190 848 c 1,40,-1
EndSplineSet
EndChar

StartChar: Egrave
Encoding: 200 200 75
Width: 493
Flags: MW
HStem: 0 148<107.5 341 222 341 222 341> 286 136<222 285 222 285> 552 148<222 341 222 222> 905 20G<187.5 201>
VStem: 70 152<148 286 422 552>
LayerCount: 2
Fore
SplineSet
145 700 m 2,0,-1
 341 700 l 2,1,2
 424.75 700 424.75 700 446 666 c 0,3,4
 456 650 456 650 456 626 c 128,-1,5
 456 602 456 602 446 586 c 128,-1,6
 436 570 436 570 417.5 563 c 0,7,8
 388.428571429 552 388.428571429 552 341 552 c 2,9,-1
 222 552 l 1,10,-1
 222 422 l 1,11,-1
 285 422 l 2,12,13
 369.689655172 422 369.689655172 422 388 392.5 c 0,14,15
 397 378 397 378 397 354 c 128,-1,16
 397 330 397 330 388 315.5 c 128,-1,17
 379 301 379 301 360.5 295 c 0,18,19
 332.75 286 332.75 286 285 286 c 2,20,-1
 222 286 l 1,21,-1
 222 148 l 1,22,-1
 341 148 l 2,23,24
 424.387096774 148 424.387096774 148 446 114.5 c 0,25,26
 456 99 456 99 456 74.5 c 128,-1,27
 456 50 456 50 446 34 c 128,-1,28
 436 18 436 18 417.5 11 c 0,29,30
 388.428571429 -1.59872115546e-14 388.428571429 -1.59872115546e-14 341 0 c 2,31,-1
 145 0 l 2,32,33
 92 0 92 0 79.5 37.5 c 0,34,35
 70 66 70 66 70 115 c 2,36,-1
 70 585 l 2,37,38
 70 673 70 673 102 691 c 0,39,40
 118 700 118 700 145 700 c 2,0,-1
224 916 m 2,41,-1
 336 848 l 1,42,43
 358 833 358 833 358 810.5 c 128,-1,44
 358 788 358 788 347 773 c 0,45,46
 331 750 331 750 306.5 750 c 128,-1,47
 282 750 282 750 270 758 c 2,48,-1
 160 825 l 1,49,50
 135 842 135 842 135 863.5 c 128,-1,51
 135 885 135 885 148.5 905 c 128,-1,52
 162 925 162 925 196 925 c 0,53,54
 210 925 210 925 224 916 c 2,41,-1
EndSplineSet
EndChar

StartChar: Eacute
Encoding: 201 201 76
Width: 493
Flags: MW
HStem: 0 148<107.5 341 222 341 222 341> 286 136<222 285 222 285> 552 148<222 341 222 222> 905 20G<294 307.5>
VStem: 70 152<148 286 422 552>
LayerCount: 2
Fore
SplineSet
145 700 m 2,0,-1
 341 700 l 2,1,2
 424.75 700 424.75 700 446 666 c 0,3,4
 456 650 456 650 456 626 c 128,-1,5
 456 602 456 602 446 586 c 128,-1,6
 436 570 436 570 417.5 563 c 0,7,8
 388.428571429 552 388.428571429 552 341 552 c 2,9,-1
 222 552 l 1,10,-1
 222 422 l 1,11,-1
 285 422 l 2,12,13
 369.689655172 422 369.689655172 422 388 392.5 c 0,14,15
 397 378 397 378 397 354 c 128,-1,16
 397 330 397 330 388 315.5 c 128,-1,17
 379 301 379 301 360.5 295 c 0,18,19
 332.75 286 332.75 286 285 286 c 2,20,-1
 222 286 l 1,21,-1
 222 148 l 1,22,-1
 341 148 l 2,23,24
 424.387096774 148 424.387096774 148 446 114.5 c 0,25,26
 456 99 456 99 456 74.5 c 128,-1,27
 456 50 456 50 446 34 c 128,-1,28
 436 18 436 18 417.5 11 c 0,29,30
 388.428571429 -1.59872115546e-14 388.428571429 -1.59872115546e-14 341 0 c 2,31,-1
 145 0 l 2,32,33
 92 0 92 0 79.5 37.5 c 0,34,35
 70 66 70 66 70 115 c 2,36,-1
 70 585 l 2,37,38
 70 673 70 673 102 691 c 0,39,40
 118 700 118 700 145 700 c 2,0,-1
159 848 m 1,41,-1
 271 916 l 2,42,43
 284 925 284 925 299 925 c 0,44,45
 333 925 333 925 346.5 905 c 128,-1,46
 360 885 360 885 360 863.5 c 128,-1,47
 360 842 360 842 335 825 c 1,48,-1
 225 758 l 2,49,50
 213 750 213 750 188.5 750 c 128,-1,51
 164 750 164 750 150.5 769 c 128,-1,52
 137 788 137 788 137 810.5 c 128,-1,53
 137 833 137 833 159 848 c 1,41,-1
EndSplineSet
EndChar

StartChar: Iacute
Encoding: 205 205 77
Width: 333
Flags: MW
HStem: 0 21G<128.5 206> 680 20G<128.5 205.5> 905 20G<214 227.5>
VStem: 84 166<115 585>
LayerCount: 2
Fore
SplineSet
84 115 m 2,0,-1
 84 585 l 2,1,2
 84 651.882352941 84 651.882352941 104.5 676 c 128,-1,3
 124.9 700 124.9 700 167 700 c 0,4,5
 227.696969697 700 227.696969697 700 243 649.5 c 0,6,7
 250 626.4 250 626.4 250 585 c 2,8,-1
 250 115 l 2,9,10
 250 28.2857142857 250 28.2857142857 212.5 9 c 0,11,12
 195 0 195 0 170 0 c 128,-1,13
 145 0 145 0 129 7 c 128,-1,14
 113 14 113 14 104.5 23.5 c 128,-1,15
 96 33 96 33 91 49.5 c 0,16,17
 84 72.6 84 72.6 84 115 c 2,0,-1
79 848 m 1,18,-1
 191 916 l 2,19,20
 205 925 205 925 219 925 c 0,21,22
 253 925 253 925 266.5 905 c 128,-1,23
 280 885 280 885 280 863.5 c 128,-1,24
 280 842 280 842 255 825 c 1,25,-1
 145 758 l 2,26,27
 133 750 133 750 108.5 750 c 128,-1,28
 84 750 84 750 70.5 769 c 128,-1,29
 57 788 57 788 57 810.5 c 128,-1,30
 57 833 57 833 79 848 c 1,18,-1
EndSplineSet
EndChar

StartChar: Igrave
Encoding: 204 204 78
Width: 333
Flags: MW
HStem: 0 21G<128.5 206> 680 20G<128.5 205.5> 905 20G<100.5 114>
VStem: 84 166<115 585>
LayerCount: 2
Fore
SplineSet
84 115 m 2,0,-1
 84 585 l 2,1,2
 84 651.882352941 84 651.882352941 104.5 676 c 128,-1,3
 124.9 700 124.9 700 167 700 c 0,4,5
 227.696969697 700 227.696969697 700 243 649.5 c 0,6,7
 250 626.4 250 626.4 250 585 c 2,8,-1
 250 115 l 2,9,10
 250 28.2857142857 250 28.2857142857 212.5 9 c 0,11,12
 195 0 195 0 170 0 c 128,-1,13
 145 0 145 0 129 7 c 128,-1,14
 113 14 113 14 104.5 23.5 c 128,-1,15
 96 33 96 33 91 49.5 c 0,16,17
 84 72.6 84 72.6 84 115 c 2,0,-1
137 916 m 2,18,-1
 249 848 l 1,19,20
 271 833 271 833 271 810.5 c 128,-1,21
 271 788 271 788 260 773 c 0,22,23
 244 750 244 750 219.5 750 c 128,-1,24
 195 750 195 750 183 758 c 2,25,-1
 73 825 l 1,26,27
 48 842 48 842 48 863.5 c 128,-1,28
 48 885 48 885 61.5 905 c 128,-1,29
 75 925 75 925 109 925 c 0,30,31
 124 925 124 925 137 916 c 2,18,-1
EndSplineSet
EndChar

StartChar: Ograve
Encoding: 210 210 79
Width: 562
Flags: MW
HStem: -4 123<256.5 275 275 292> 575 129<275 292 292 311 275 316> 905 20G<222.5 236>
VStem: 52 166<203 502 502 510> 349 164<184 203 203 502>
LayerCount: 2
Fore
SplineSet
259 916 m 2,0,-1
 371 848 l 1,1,2
 393 833 393 833 393 810.5 c 128,-1,3
 393 788 393 788 382 773 c 0,4,5
 366 750 366 750 341.5 750 c 128,-1,6
 317 750 317 750 305 758 c 2,7,-1
 195 825 l 1,8,9
 170 842 170 842 170 863.5 c 128,-1,10
 170 885 170 885 183.5 905 c 128,-1,11
 197 925 197 925 231 925 c 0,12,13
 246 925 246 925 259 916 c 2,0,-1
52 502 m 2,14,15
 52 556 52 556 72.5 596.5 c 128,-1,16
 93 637 93 637 119.5 657 c 128,-1,17
 146 677 146 677 181.5 688.5 c 0,18,19
 229.347826087 704 229.347826087 704 275 704 c 2,20,-1
 292 704 l 2,21,22
 317.636363636 704 317.636363636 704 355.818181818 696.5 c 128,-1,23
 394 689 394 689 417.5 675 c 128,-1,24
 441 661 441 661 463.5 640.5 c 0,25,26
 513 595.4 513 595.4 513 502 c 2,27,-1
 513 203 l 2,28,29
 513 107.2 513 107.2 463.5 61 c 128,-1,30
 414.17447496 14.9628432956 414.17447496 14.9628432956 366 5.5 c 128,-1,31
 317.636363636 -4 317.636363636 -4 292 -4 c 2,32,-1
 275 -4 l 2,33,34
 228.833333333 -4 228.833333333 -4 187.416666667 10 c 128,-1,35
 146 24 146 24 119.5 44 c 128,-1,36
 93 64 93 64 72.5 105.5 c 128,-1,37
 52 147 52 147 52 203 c 2,38,-1
 52 502 l 2,14,15
218 184 m 2,39,40
 218 143.888888889 218 143.888888889 252.5 126 c 0,41,42
 266 119 266 119 289 119 c 128,-1,43
 312 119 312 119 328.5 135.5 c 128,-1,44
 345 152 345 152 347 168 c 2,45,-1
 349 184 l 1,46,-1
 349 510 l 2,47,48
 349 550.62962963 349 550.62962963 315.5 568 c 0,49,50
 302 575 302 575 278.5 575 c 128,-1,51
 255 575 255 575 238.5 558.5 c 128,-1,52
 222 542 222 542 220 526 c 2,53,-1
 218 510 l 1,54,-1
 218 184 l 2,39,40
EndSplineSet
EndChar

StartChar: Oacute
Encoding: 211 211 80
Width: 562
Flags: MW
HStem: -4 123<256.5 275 275 292> 575 129<275 292 292 311 275 316> 905 20G<328 341.5>
VStem: 52 166<203 502 502 510> 349 164<184 203 203 502>
LayerCount: 2
Fore
SplineSet
193 848 m 1,0,-1
 305 916 l 2,1,2
 318 925 318 925 333 925 c 0,3,4
 367 925 367 925 380.5 905 c 128,-1,5
 394 885 394 885 394 863.5 c 128,-1,6
 394 842 394 842 369 825 c 1,7,-1
 259 758 l 2,8,9
 247 750 247 750 222.5 750 c 128,-1,10
 198 750 198 750 184.5 769 c 128,-1,11
 171 788 171 788 171 810.5 c 128,-1,12
 171 833 171 833 193 848 c 1,0,-1
52 502 m 2,13,14
 52 556 52 556 72.5 596.5 c 128,-1,15
 93 637 93 637 119.5 657 c 128,-1,16
 146 677 146 677 181.5 688.5 c 0,17,18
 229.347826087 704 229.347826087 704 275 704 c 2,19,-1
 292 704 l 2,20,21
 317.636363636 704 317.636363636 704 355.818181818 696.5 c 128,-1,22
 394 689 394 689 417.5 675 c 128,-1,23
 441 661 441 661 463.5 640.5 c 0,24,25
 513 595.4 513 595.4 513 502 c 2,26,-1
 513 203 l 2,27,28
 513 107.2 513 107.2 463.5 61 c 128,-1,29
 414.17447496 14.9628432956 414.17447496 14.9628432956 366 5.5 c 128,-1,30
 317.636363636 -4 317.636363636 -4 292 -4 c 2,31,-1
 275 -4 l 2,32,33
 228.833333333 -4 228.833333333 -4 187.416666667 10 c 128,-1,34
 146 24 146 24 119.5 44 c 128,-1,35
 93 64 93 64 72.5 105.5 c 128,-1,36
 52 147 52 147 52 203 c 2,37,-1
 52 502 l 2,13,14
218 184 m 2,38,39
 218 143.888888889 218 143.888888889 252.5 126 c 0,40,41
 266 119 266 119 289 119 c 128,-1,42
 312 119 312 119 328.5 135.5 c 128,-1,43
 345 152 345 152 347 168 c 2,44,-1
 349 184 l 1,45,-1
 349 510 l 2,46,47
 349 550.62962963 349 550.62962963 315.5 568 c 0,48,49
 302 575 302 575 278.5 575 c 128,-1,50
 255 575 255 575 238.5 558.5 c 128,-1,51
 222 542 222 542 220 526 c 2,52,-1
 218 510 l 1,53,-1
 218 184 l 2,38,39
EndSplineSet
EndChar

StartChar: Uacute
Encoding: 218 218 81
Width: 604
Flags: MW
HStem: -4 118<271 335.5 271 372> 680 20G<115.5 193 413 490.5> 905 20G<378 391.5>
VStem: 71 166<205 586 192 614.5> 369 166<192 205 205 586>
LayerCount: 2
Fore
SplineSet
243 848 m 1,0,-1
 355 916 l 2,1,2
 368 925 368 925 383 925 c 0,3,4
 417 925 417 925 430.5 905 c 128,-1,5
 444 885 444 885 444 863.5 c 128,-1,6
 444 842 444 842 419 825 c 1,7,-1
 309 758 l 2,8,9
 297 750 297 750 272.5 750 c 128,-1,10
 248 750 248 750 234.5 769 c 128,-1,11
 221 788 221 788 221 810.5 c 128,-1,12
 221 833 221 833 243 848 c 1,0,-1
71 205 m 2,13,-1
 71 586 l 2,14,15
 71 652.882352941 71 652.882352941 91.5 677 c 0,16,17
 111.05 700 111.05 700 146.525 700 c 128,-1,18
 182 700 182 700 199.5 691 c 128,-1,19
 217 682 217 682 225 663.5 c 0,20,21
 237 635.75 237 635.75 237 586 c 2,22,-1
 237 192 l 2,23,24
 237 144.222222222 237 144.222222222 271.5 122.5 c 0,25,26
 285 114 285 114 308.5 114 c 128,-1,27
 332 114 332 114 348.5 133.5 c 128,-1,28
 365 153 365 153 367 172.5 c 2,29,-1
 369 192 l 1,30,-1
 369 586 l 2,31,32
 369 671.714285714 369 671.714285714 406.5 691 c 0,33,34
 424 700 424 700 449 700 c 128,-1,35
 474 700 474 700 490 693.5 c 128,-1,36
 506 687 506 687 514.5 677 c 128,-1,37
 523 667 523 667 528 650.5 c 0,38,39
 535 627.4 535 627.4 535 586 c 2,40,-1
 535 205 l 2,41,42
 535 104 535 104 472 50 c 128,-1,43
 409 -4 409 -4 303 -4 c 128,-1,44
 197 -4 197 -4 134 51 c 128,-1,45
 71 106 71 106 71 205 c 2,13,-1
EndSplineSet
EndChar

StartChar: Yacute
Encoding: 221 221 82
Width: 500
Flags: MW
HStem: 0 21G<217 286.5> 680 20G<64.5 91 413 440> 905 20G<297 310.5>
VStem: 176 151<113 287>
LayerCount: 2
Fore
SplineSet
162 848 m 1,0,-1
 274 916 l 2,1,2
 287 925 287 925 302 925 c 0,3,4
 336 925 336 925 349.5 905 c 128,-1,5
 363 885 363 885 363 863.5 c 128,-1,6
 363 842 363 842 338 825 c 1,7,-1
 228 758 l 2,8,9
 216 750 216 750 191.5 750 c 128,-1,10
 167 750 167 750 153.5 769 c 128,-1,11
 140 788 140 788 140 810.5 c 128,-1,12
 140 833 140 833 162 848 c 1,0,-1
327 287 m 1,13,-1
 327 113 l 2,14,15
 327 47.6666666667 327 47.6666666667 308.5 23 c 0,16,17
 291.25 0 291.25 0 259.125 0 c 128,-1,18
 227 0 227 0 211 9 c 128,-1,19
 195 18 195 18 187.5 36 c 0,20,21
 176 63.6 176 63.6 176 113 c 2,22,-1
 176 287 l 1,23,-1
 27 553 l 2,24,25
 -7 612 -7 612 -7 639.5 c 128,-1,26
 -7 667 -7 667 29 688 c 0,27,28
 51.5 700 51.5 700 71 700 c 0,29,30
 118 700 118 700 153 623 c 1,31,-1
 244 432 l 1,32,-1
 260 432 l 1,33,-1
 351 623 l 1,34,35
 386 700 386 700 433 700 c 0,36,37
 452 700 452 700 475 688 c 1,38,39
 511 666 511 666 511 635 c 0,40,41
 511 614 511 614 477 553 c 2,42,-1
 327 287 l 1,13,-1
EndSplineSet
EndChar

StartChar: agrave
Encoding: 224 224 83
Width: 510
Flags: MW
HStem: 0 117<219.5 228.5 219.5 417> 382 118<219.5 414.5> 705 20G<190.5 204>
VStem: 42 154<177 190 190 311 172 322 172 388.5> 304 152<70.5 113 265 286>
LayerCount: 2
Fore
SplineSet
456 113 m 2,0,1
 456 27.5625 456 27.5625 423 9 c 0,2,3
 407 0 407 0 381 0 c 0,4,5
 304 0 304 0 304 84 c 1,6,7
 278 0 278 0 196 0 c 0,8,9
 133 0 133 0 87.5 43 c 128,-1,10
 42 86 42 86 42 177 c 2,11,-1
 42 322 l 2,12,13
 42 414 42 414 87.5 456.5 c 128,-1,14
 133 499 133 499 196 499 c 0,15,16
 241 499 241 499 267 474.5 c 128,-1,17
 293 450 293 450 304 415 c 1,18,19
 304 461 304 461 326.5 480.5 c 128,-1,20
 349 500 349 500 387.5 500 c 128,-1,21
 426 500 426 500 441 469.5 c 128,-1,22
 456 439 456 439 456 386 c 2,23,-1
 456 113 l 2,0,1
196 311 m 2,24,-1
 196 190 l 2,25,26
 196 156 196 156 204 136.5 c 128,-1,27
 212 117 212 117 244.5 117 c 128,-1,28
 277 117 277 117 290 150.5 c 128,-1,29
 303 184 303 184 303.5 237 c 128,-1,30
 304 290 304 290 299.5 314.5 c 128,-1,31
 295 339 295 339 279.5 360.5 c 128,-1,32
 264 382 264 382 238 382 c 128,-1,33
 212 382 212 382 204 363.5 c 128,-1,34
 196 345 196 345 196 311 c 2,24,-1
227 716 m 2,35,-1
 339 648 l 1,36,37
 361 633 361 633 361 610.5 c 128,-1,38
 361 588 361 588 350 573 c 0,39,40
 334 550 334 550 309.5 550 c 128,-1,41
 285 550 285 550 273 558 c 2,42,-1
 163 625 l 1,43,44
 138 642 138 642 138 664 c 128,-1,45
 138 686 138 686 151.5 705.5 c 128,-1,46
 165 725 165 725 199 725 c 0,47,48
 213 725 213 725 227 716 c 2,35,-1
EndSplineSet
EndChar

StartChar: aacute
Encoding: 225 225 84
Width: 510
Flags: MW
HStem: 0 117<219.5 228.5 219.5 417> 382 118<219.5 414.5> 705 20G<307 320.5>
VStem: 42 154<177 190 190 311 172 322 172 388.5> 304 152<70.5 113 265 286>
LayerCount: 2
Fore
SplineSet
456 113 m 2,0,1
 456 27.5625 456 27.5625 423 9 c 0,2,3
 407 0 407 0 381 0 c 0,4,5
 304 0 304 0 304 84 c 1,6,7
 278 0 278 0 196 0 c 0,8,9
 133 0 133 0 87.5 43 c 128,-1,10
 42 86 42 86 42 177 c 2,11,-1
 42 322 l 2,12,13
 42 414 42 414 87.5 456.5 c 128,-1,14
 133 499 133 499 196 499 c 0,15,16
 241 499 241 499 267 474.5 c 128,-1,17
 293 450 293 450 304 415 c 1,18,19
 304 461 304 461 326.5 480.5 c 128,-1,20
 349 500 349 500 387.5 500 c 128,-1,21
 426 500 426 500 441 469.5 c 128,-1,22
 456 439 456 439 456 386 c 2,23,-1
 456 113 l 2,0,1
196 311 m 2,24,-1
 196 190 l 2,25,26
 196 156 196 156 204 136.5 c 128,-1,27
 212 117 212 117 244.5 117 c 128,-1,28
 277 117 277 117 290 150.5 c 128,-1,29
 303 184 303 184 303.5 237 c 128,-1,30
 304 290 304 290 299.5 314.5 c 128,-1,31
 295 339 295 339 279.5 360.5 c 128,-1,32
 264 382 264 382 238 382 c 128,-1,33
 212 382 212 382 204 363.5 c 128,-1,34
 196 345 196 345 196 311 c 2,24,-1
172 648 m 1,35,-1
 284 716 l 2,36,37
 297 725 297 725 312 725 c 0,38,39
 346 725 346 725 359.5 705.5 c 128,-1,40
 373 686 373 686 373 664 c 128,-1,41
 373 642 373 642 348 625 c 1,42,-1
 238 558 l 2,43,44
 226 550 226 550 201.5 550 c 128,-1,45
 177 550 177 550 163.5 569 c 128,-1,46
 150 588 150 588 150 610.5 c 128,-1,47
 150 633 150 633 172 648 c 1,35,-1
EndSplineSet
EndChar

StartChar: egrave
Encoding: 232 232 85
Width: 510
Flags: MW
HStem: 0 100<254 296> 0 163<254 412.5> 222 75<198 323 198 397 198 323> 395 106<230 252 222.5 289.5> 705 20G<193.5 207>
VStem: 46 152<187 222 158 297 297 304 304 332> 323 138
LayerCount: 2
Fore
SplineSet
230 716 m 2,0,-1
 342 648 l 1,1,2
 364 633 364 633 364 610.5 c 128,-1,3
 364 588 364 588 353 573 c 0,4,5
 337 550 337 550 312.5 550 c 128,-1,6
 288 550 288 550 276 558 c 2,7,-1
 166 625 l 1,8,9
 141 642 141 642 141 664 c 128,-1,10
 141 686 141 686 154.5 705.5 c 128,-1,11
 168 725 168 725 202 725 c 0,12,13
 216 725 216 725 230 716 c 2,0,-1
468 316 m 2,14,-1
 468 285 l 2,15,16
 468 239.25 468 239.25 438 228 c 0,17,18
 422 222 422 222 397 222 c 2,19,-1
 198 222 l 1,20,-1
 198 174 l 2,21,22
 198 145 198 145 213 122.5 c 128,-1,23
 228 100 228 100 255 100 c 128,-1,24
 282 100 282 100 294.5 106.5 c 128,-1,25
 307 113 307 113 313 122.5 c 128,-1,26
 319 132 319 132 326 141 c 0,27,28
 343.111111111 163 343.111111111 163 396 163 c 0,29,30
 461 163 461 163 461 113 c 0,31,32
 461 82 461 82 441 59 c 128,-1,33
 421 36 421 36 388.5 23.5 c 0,34,35
 327.4 1.24344978758e-14 327.4 1.24344978758e-14 245.2 0.5 c 128,-1,36
 163 1 163 1 104.5 46 c 128,-1,37
 46 91 46 91 46 187 c 2,38,-1
 46 304 l 2,39,40
 46 501 46 501 252 501 c 0,41,42
 310 501 310 501 352 488 c 128,-1,43
 394 475 394 475 416 457 c 128,-1,44
 438 439 438 439 450.5 411.5 c 128,-1,45
 463 384 463 384 465.5 363.5 c 128,-1,46
 468 343 468 343 468 316 c 2,14,-1
198 332 m 2,47,-1
 198 297 l 1,48,-1
 323 297 l 1,49,50
 323 345.818181818 323 345.818181818 316 364.909090909 c 128,-1,51
 309 384 309 384 295 389.5 c 128,-1,52
 281 395 281 395 257 395 c 0,53,54
 198 395 198 395 198 332 c 2,47,-1
EndSplineSet
EndChar

StartChar: eacute
Encoding: 233 233 86
Width: 510
Flags: MW
HStem: 0 100<254 296> 0 163<254 412.5> 222 75<198 323 198 397 198 323> 395 106<230 252 222.5 289.5> 705 20G<308 321.5>
VStem: 46 152<187 222 158 297 297 304 304 332> 323 138
LayerCount: 2
Fore
SplineSet
173 648 m 1,0,-1
 285 716 l 2,1,2
 298 725 298 725 313 725 c 0,3,4
 347 725 347 725 360.5 705.5 c 128,-1,5
 374 686 374 686 374 664 c 128,-1,6
 374 642 374 642 349 625 c 1,7,-1
 239 558 l 2,8,9
 227 550 227 550 202.5 550 c 128,-1,10
 178 550 178 550 164.5 569 c 128,-1,11
 151 588 151 588 151 610.5 c 128,-1,12
 151 633 151 633 173 648 c 1,0,-1
468 316 m 2,13,-1
 468 285 l 2,14,15
 468 239.25 468 239.25 438 228 c 0,16,17
 422 222 422 222 397 222 c 2,18,-1
 198 222 l 1,19,-1
 198 174 l 2,20,21
 198 145 198 145 213 122.5 c 128,-1,22
 228 100 228 100 255 100 c 128,-1,23
 282 100 282 100 294.5 106.5 c 128,-1,24
 307 113 307 113 313 122.5 c 128,-1,25
 319 132 319 132 326 141 c 0,26,27
 343.111111111 163 343.111111111 163 396 163 c 0,28,29
 461 163 461 163 461 113 c 0,30,31
 461 82 461 82 441 59 c 128,-1,32
 421 36 421 36 388.5 23.5 c 0,33,34
 327.4 1.24344978758e-14 327.4 1.24344978758e-14 245.2 0.5 c 128,-1,35
 163 1 163 1 104.5 46 c 128,-1,36
 46 91 46 91 46 187 c 2,37,-1
 46 304 l 2,38,39
 46 501 46 501 252 501 c 0,40,41
 310 501 310 501 352 488 c 128,-1,42
 394 475 394 475 416 457 c 128,-1,43
 438 439 438 439 450.5 411.5 c 128,-1,44
 463 384 463 384 465.5 363.5 c 128,-1,45
 468 343 468 343 468 316 c 2,13,-1
198 332 m 2,46,-1
 198 297 l 1,47,-1
 323 297 l 1,48,49
 323 345.818181818 323 345.818181818 316 364.909090909 c 128,-1,50
 309 384 309 384 295 389.5 c 128,-1,51
 281 395 281 395 257 395 c 0,52,53
 198 395 198 395 198 332 c 2,46,-1
EndSplineSet
EndChar

StartChar: igrave
Encoding: 236 236 87
Width: 313
Flags: MW
HStem: 0 21G<118 186> 705 20G<88.5 102>
VStem: 76 152<112 388>
LayerCount: 2
Fore
SplineSet
76 112 m 2,0,-1
 76 388 l 2,1,2
 76 440 76 440 91 470 c 128,-1,3
 106 500 106 500 152 500 c 128,-1,4
 198 500 198 500 213 470 c 128,-1,5
 228 440 228 440 228 388 c 2,6,-1
 228 112 l 2,7,8
 228 60 228 60 213 30 c 128,-1,9
 198 0 198 0 152 0 c 128,-1,10
 106 0 106 0 91 30 c 128,-1,11
 76 60 76 60 76 112 c 2,0,-1
125 716 m 2,12,-1
 237 648 l 1,13,14
 259 633 259 633 259 610.5 c 0,15,16
 259 588 259 588 248 573 c 0,17,18
 232 550 232 550 207.5 550 c 0,19,20
 183 550 183 550 171 558 c 2,21,-1
 61 625 l 1,22,23
 36 642 36 642 36 664 c 0,24,25
 36 686 36 686 49.5 705.5 c 0,26,27
 63 725 63 725 97 725 c 0,28,29
 112 725 112 725 125 716 c 2,12,-1
EndSplineSet
EndChar

StartChar: iacute
Encoding: 237 237 88
Width: 313
Flags: MW
HStem: 0 21G<118 186> 705 20G<205 218.5>
VStem: 76 152<112 388>
LayerCount: 2
Fore
SplineSet
76 112 m 2,0,-1
 76 388 l 2,1,2
 76 440 76 440 91 470 c 128,-1,3
 106 500 106 500 152 500 c 128,-1,4
 198 500 198 500 213 470 c 128,-1,5
 228 440 228 440 228 388 c 2,6,-1
 228 112 l 2,7,8
 228 60 228 60 213 30 c 128,-1,9
 198 0 198 0 152 0 c 128,-1,10
 106 0 106 0 91 30 c 128,-1,11
 76 60 76 60 76 112 c 2,0,-1
70 648 m 1,12,-1
 182 716 l 2,13,14
 196 725 196 725 210 725 c 0,15,16
 244 725 244 725 257.5 705.5 c 0,17,18
 271 686 271 686 271 664 c 0,19,20
 271 642 271 642 246 625 c 1,21,-1
 136 558 l 2,22,23
 124 550 124 550 99.5 550 c 0,24,25
 75 550 75 550 61.5 569 c 0,26,27
 48 588 48 588 48 610.5 c 0,28,29
 48 633 48 633 70 648 c 1,12,-1
EndSplineSet
EndChar

StartChar: ograve
Encoding: 242 242 89
Width: 500
Flags: MW
HStem: 0 102<228 274.5> 389 111<228 274.5 228 279> 705 20G<191.5 205>
VStem: 39 154<188 312 312 334> 307 149<153 188 188 312 96 334 96 334>
LayerCount: 2
Fore
SplineSet
228 716 m 2,0,-1
 340 648 l 1,1,2
 362 633 362 633 362 610.5 c 128,-1,3
 362 588 362 588 351 573 c 0,4,5
 335 550 335 550 310.5 550 c 128,-1,6
 286 550 286 550 274 558 c 2,7,-1
 164 625 l 1,8,9
 139 642 139 642 139 664 c 128,-1,10
 139 686 139 686 152.5 705.5 c 128,-1,11
 166 725 166 725 200 725 c 0,12,13
 214 725 214 725 228 716 c 2,0,-1
39 312 m 2,14,15
 39 364 39 364 57.5 402 c 128,-1,16
 76 440 76 440 99.5 458 c 128,-1,17
 123 476 123 476 157.5 486.5 c 128,-1,18
 192 497 192 497 210.5 498.5 c 128,-1,19
 229 500 229 500 247 500 c 128,-1,20
 265 500 265 500 277.5 499.5 c 128,-1,21
 290 499 290 499 312 495 c 128,-1,22
 334 491 334 491 351.5 484 c 128,-1,23
 369 477 369 477 389.5 463 c 128,-1,24
 410 449 410 449 424 430 c 0,25,26
 456 386.571428571 456 386.571428571 456 312 c 2,27,-1
 456 188 l 2,28,29
 456 57.8 456 57.8 351.5 16 c 0,30,31
 316.666666667 2.06666666667 316.666666667 2.06666666667 290.833333333 1.03333333333 c 128,-1,32
 265 0 265 0 247 0 c 128,-1,33
 229 0 229 0 210.5 1.5 c 128,-1,34
 192 3 192 3 157.5 13.5 c 128,-1,35
 123 24 123 24 99.5 42 c 128,-1,36
 76 60 76 60 57.5 98 c 128,-1,37
 39 136 39 136 39 188 c 2,38,-1
 39 312 l 2,14,15
193 153 m 2,39,40
 193 147 193 147 194.5 138.5 c 128,-1,41
 196 130 196 130 210.5 116 c 128,-1,42
 225 102 225 102 250.5 102 c 128,-1,43
 276 102 276 102 290 115 c 128,-1,44
 304 128 304 128 305.5 140.5 c 2,45,-1
 307 153 l 1,46,-1
 307 334 l 2,47,48
 307 368.130434783 307 368.130434783 278.5 383 c 0,49,50
 267 389 267 389 246 389 c 128,-1,51
 225 389 225 389 210.5 375.5 c 128,-1,52
 196 362 196 362 194.5 348 c 2,53,-1
 193 334 l 1,54,-1
 193 153 l 2,39,40
EndSplineSet
EndChar

StartChar: oacute
Encoding: 243 243 90
Width: 500
Flags: MW
HStem: 0 102<228 274.5> 389 111<228 274.5 228 279> 705 20G<293 306.5>
VStem: 39 154<188 312 312 334> 307 149<153 188 188 312 96 334 96 334>
LayerCount: 2
Fore
SplineSet
39 312 m 2,0,1
 39 364 39 364 57.5 402 c 128,-1,2
 76 440 76 440 99.5 458 c 128,-1,3
 123 476 123 476 157.5 486.5 c 128,-1,4
 192 497 192 497 210.5 498.5 c 128,-1,5
 229 500 229 500 247 500 c 128,-1,6
 265 500 265 500 277.5 499.5 c 128,-1,7
 290 499 290 499 312 495 c 128,-1,8
 334 491 334 491 351.5 484 c 128,-1,9
 369 477 369 477 389.5 463 c 128,-1,10
 410 449 410 449 424 430 c 0,11,12
 456 386.571428571 456 386.571428571 456 312 c 2,13,-1
 456 188 l 2,14,15
 456 57.8 456 57.8 351.5 16 c 0,16,17
 316.666666667 2.06666666667 316.666666667 2.06666666667 290.833333333 1.03333333333 c 128,-1,18
 265 0 265 0 247 0 c 128,-1,19
 229 0 229 0 210.5 1.5 c 128,-1,20
 192 3 192 3 157.5 13.5 c 128,-1,21
 123 24 123 24 99.5 42 c 128,-1,22
 76 60 76 60 57.5 98 c 128,-1,23
 39 136 39 136 39 188 c 2,24,-1
 39 312 l 2,0,1
193 153 m 2,25,26
 193 147 193 147 194.5 138.5 c 128,-1,27
 196 130 196 130 210.5 116 c 128,-1,28
 225 102 225 102 250.5 102 c 128,-1,29
 276 102 276 102 290 115 c 128,-1,30
 304 128 304 128 305.5 140.5 c 2,31,-1
 307 153 l 1,32,-1
 307 334 l 2,33,34
 307 368.130434783 307 368.130434783 278.5 383 c 0,35,36
 267 389 267 389 246 389 c 128,-1,37
 225 389 225 389 210.5 375.5 c 128,-1,38
 196 362 196 362 194.5 348 c 2,39,-1
 193 334 l 1,40,-1
 193 153 l 2,25,26
158 648 m 1,41,-1
 270 716 l 2,42,43
 284 725 284 725 298 725 c 0,44,45
 332 725 332 725 345.5 705.5 c 128,-1,46
 359 686 359 686 359 664 c 128,-1,47
 359 642 359 642 334 625 c 1,48,-1
 224 558 l 2,49,50
 212 550 212 550 187.5 550 c 128,-1,51
 163 550 163 550 149.5 569 c 128,-1,52
 136 588 136 588 136 610.5 c 128,-1,53
 136 633 136 633 158 648 c 1,41,-1
EndSplineSet
EndChar

StartChar: uacute
Encoding: 250 250 91
Width: 542
Flags: MW
HStem: 0 117<237 245.5 237 436.5> 705 20G<319 332.5>
VStem: 59 154<178 191 191 386> 322 154<70 113 291 386>
LayerCount: 2
Fore
SplineSet
59 178 m 2,0,-1
 59 386 l 2,1,2
 59 468.53125 59 468.53125 96 490.5 c 0,3,4
 112 500 112 500 137 500 c 0,5,6
 183 500 183 500 198 469.5 c 128,-1,7
 213 439 213 439 213 386 c 2,8,-1
 213 191 l 2,9,10
 213 156 213 156 221.5 136.5 c 128,-1,11
 230 117 230 117 257 117 c 0,12,13
 294 117 294 117 308 162.5 c 128,-1,14
 322 208 322 208 322 291 c 2,15,-1
 322 386 l 2,16,17
 322 468.53125 322 468.53125 359 490.5 c 0,18,19
 375 500 375 500 400 500 c 0,20,21
 446 500 446 500 461 469.5 c 128,-1,22
 476 439 476 439 476 386 c 2,23,-1
 476 113 l 2,24,25
 476 27.2727272727 476 27.2727272727 442.5 9 c 0,26,27
 426 0 426 0 400 0 c 0,28,29
 322 0 322 0 322 84 c 1,30,31
 312 50 312 50 285 25 c 128,-1,32
 258 0 258 0 213 0 c 0,33,34
 150 0 150 0 104.5 43 c 128,-1,35
 59 86 59 86 59 178 c 2,0,-1
184 648 m 1,36,-1
 296 716 l 2,37,38
 309 725 309 725 324 725 c 0,39,40
 358 725 358 725 371.5 705.5 c 128,-1,41
 385 686 385 686 385 664 c 128,-1,42
 385 642 385 642 360 625 c 1,43,-1
 250 558 l 2,44,45
 238 550 238 550 213.5 550 c 128,-1,46
 189 550 189 550 175.5 569 c 128,-1,47
 162 588 162 588 162 610.5 c 128,-1,48
 162 633 162 633 184 648 c 1,36,-1
EndSplineSet
EndChar

StartChar: ugrave
Encoding: 249 249 92
Width: 542
Flags: MW
HStem: 0 117<237 245.5 237 436.5> 705 20G<209.5 223>
VStem: 59 154<178 191 191 386> 322 154<70 113 291 386>
LayerCount: 2
Fore
SplineSet
59 178 m 2,0,-1
 59 386 l 2,1,2
 59 468.53125 59 468.53125 96 490.5 c 0,3,4
 112 500 112 500 137 500 c 0,5,6
 183 500 183 500 198 469.5 c 128,-1,7
 213 439 213 439 213 386 c 2,8,-1
 213 191 l 2,9,10
 213 156 213 156 221.5 136.5 c 128,-1,11
 230 117 230 117 257 117 c 0,12,13
 294 117 294 117 308 162.5 c 128,-1,14
 322 208 322 208 322 291 c 2,15,-1
 322 386 l 2,16,17
 322 468.53125 322 468.53125 359 490.5 c 0,18,19
 375 500 375 500 400 500 c 0,20,21
 446 500 446 500 461 469.5 c 128,-1,22
 476 439 476 439 476 386 c 2,23,-1
 476 113 l 2,24,25
 476 27.2727272727 476 27.2727272727 442.5 9 c 0,26,27
 426 0 426 0 400 0 c 0,28,29
 322 0 322 0 322 84 c 1,30,31
 312 50 312 50 285 25 c 128,-1,32
 258 0 258 0 213 0 c 0,33,34
 150 0 150 0 104.5 43 c 128,-1,35
 59 86 59 86 59 178 c 2,0,-1
246 716 m 2,36,-1
 358 648 l 1,37,38
 380 633 380 633 380 610.5 c 128,-1,39
 380 588 380 588 369 573 c 0,40,41
 353 550 353 550 328.5 550 c 128,-1,42
 304 550 304 550 292 558 c 2,43,-1
 182 625 l 1,44,45
 157 642 157 642 157 664 c 128,-1,46
 157 686 157 686 170.5 705.5 c 128,-1,47
 184 725 184 725 218 725 c 0,48,49
 232 725 232 725 246 716 c 2,36,-1
EndSplineSet
EndChar

StartChar: yacute
Encoding: 253 253 93
Width: 458
Flags: MW
HStem: -200 118<86 101.5 86 160.5> 482 20G<354.5 378.5> 706 20G<279 292.5>
LayerCount: 2
Fore
SplineSet
64 -81 m 1,0,-1
 89 -82 l 2,1,2
 100 -82 100 -82 111 -66 c 128,-1,3
 122 -50 122 -50 137.5 -15 c 128,-1,4
 153 20 153 20 158 30 c 1,5,-1
 150 50 l 2,6,7
 66 259 66 259 41 334 c 128,-1,8
 16 409 16 409 16 432 c 0,9,10
 16 478 16 478 65 495 c 0,11,12
 78 500 78 500 92 500 c 0,13,14
 143 500 143 500 167 425 c 2,15,-1
 234 214 l 1,16,-1
 298 425 l 2,17,18
 308 458 308 458 327.5 480 c 128,-1,19
 347 502 347 502 367.5 502 c 128,-1,20
 388 502 388 502 403 496 c 0,21,22
 446 477 446 477 446 429 c 0,23,24
 446 405 446 405 433 370 c 2,25,-1
 313 52 l 2,26,27
 217 -200 217 -200 115 -200 c 0,28,29
 10 -200 10 -200 10 -136 c 0,30,31
 10 -81 10 -81 64 -81 c 1,0,-1
144 649 m 1,32,-1
 256 717 l 2,33,34
 269 726 269 726 284 726 c 0,35,36
 318 726 318 726 331.5 706 c 128,-1,37
 345 686 345 686 345 664.5 c 128,-1,38
 345 643 345 643 320 626 c 1,39,-1
 210 559 l 2,40,41
 198 551 198 551 173.5 551 c 128,-1,42
 149 551 149 551 135.5 570 c 128,-1,43
 122 589 122 589 122 611.5 c 128,-1,44
 122 634 122 634 144 649 c 1,32,-1
EndSplineSet
EndChar

StartChar: quotedblleft
Encoding: 8220 8220 94
Width: 588
Flags: MW
HStem: 453 247<155 191.5 155 203.5 364 400.5 155 412.5>
VStem: 95 99<506.5 637> 95 165<506.5 567.5> 304 99<506.5 637> 304 165<506.5 567.5>
LayerCount: 2
Fore
SplineSet
304 535 m 0,0,1
 304 593 304 593 328.5 646.5 c 128,-1,2
 353 700 353 700 395 700 c 0,3,4
 404 700 404 700 411.5 693.5 c 128,-1,5
 419 687 419 687 419 675 c 2,6,-1
 419 671 l 2,7,8
 419 664 419 664 411 650.5 c 128,-1,9
 403 637 403 637 403 629.5 c 0,10,11
 403 622 403 622 419.5 614.5 c 128,-1,12
 436 607 436 607 452.5 588.5 c 128,-1,13
 469 570 469 570 469 535 c 0,14,15
 469 453 469 453 386.5 453 c 0,16,17
 304 453 304 453 304 535 c 0,0,1
95 535 m 0,18,19
 95 593 95 593 119.5 646.5 c 128,-1,20
 144 700 144 700 186 700 c 0,21,22
 195 700 195 700 202.5 693.5 c 128,-1,23
 210 687 210 687 210 675 c 2,24,-1
 210 671 l 2,25,26
 210 664 210 664 202 650.5 c 128,-1,27
 194 637 194 637 194 629.5 c 0,28,29
 194 622 194 622 210.5 614.5 c 128,-1,30
 227 607 227 607 243.5 588.5 c 128,-1,31
 260 570 260 570 260 535 c 0,32,33
 260 453 260 453 177.5 453 c 0,34,35
 95 453 95 453 95 535 c 0,18,19
EndSplineSet
EndChar

StartChar: quotedblright
Encoding: 8221 8221 95
Width: 586
Flags: MW
HStem: 453 247<166.5 203 375.5 412>
VStem: 98 165<585.5 646.5 585.5 646.5> 307 165<585.5 646.5 585.5 646.5>
LayerCount: 2
Fore
SplineSet
263 618 m 0,0,1
 263 560 263 560 238.5 506.5 c 128,-1,2
 214 453 214 453 172 453 c 0,3,4
 163 453 163 453 155.5 459.5 c 128,-1,5
 148 466 148 466 148 478 c 2,6,-1
 148 482 l 2,7,8
 148 489 148 489 156 502.5 c 128,-1,9
 164 516 164 516 164 523.5 c 0,10,11
 164 531 164 531 147.5 538.5 c 128,-1,12
 131 546 131 546 114.5 564.5 c 128,-1,13
 98 583 98 583 98 618 c 0,14,15
 98 700 98 700 180.5 700 c 0,16,17
 263 700 263 700 263 618 c 0,0,1
472 618 m 0,18,19
 472 560 472 560 447.5 506.5 c 128,-1,20
 423 453 423 453 381 453 c 0,21,22
 372 453 372 453 364.5 459.5 c 128,-1,23
 357 466 357 466 357 478 c 2,24,-1
 357 482 l 2,25,26
 357 489 357 489 365 502.5 c 128,-1,27
 373 516 373 516 373 523.5 c 0,28,29
 373 531 373 531 356.5 538.5 c 128,-1,30
 340 546 340 546 323.5 564.5 c 128,-1,31
 307 583 307 583 307 618 c 0,32,33
 307 700 307 700 389.5 700 c 0,34,35
 472 700 472 700 472 618 c 0,18,19
EndSplineSet
EndChar

StartChar: germandbls
Encoding: 223 223 96
Width: 575
Flags: MW
HStem: -106 228<108 363> 0 122<348 363 348 385.5> 582 118<222 282 222 222>
VStem: 70 152<9 582> 276 229<341 577.5> 362 143<470.5 528> 379 151<189.5 226.5 138 271>
LayerCount: 2
Fore
SplineSet
269.5 115.5 m 128,-1,1
 288 133 288 133 310.666666667 133 c 128,-1,2
 333.333333333 133 333.333333333 133 348 122 c 1,3,4
 379 122 379 122 379 208 c 0,5,6
 379 275.2 379 275.2 343 304 c 0,7,8
 328 316 328 316 312.5 324.5 c 0,9,10
 276 344.516129032 276 344.516129032 276 364.258064516 c 128,-1,11
 276 384 276 384 285 395 c 128,-1,12
 294 406 294 406 306.5 412 c 128,-1,13
 319 418 319 418 331.5 426.5 c 0,14,15
 362 447.24 362 447.24 362 502 c 0,16,17
 362 538 362 538 336.5 560 c 128,-1,18
 311 582 311 582 282 582 c 2,19,-1
 222 582 l 1,20,-1
 222 9 l 2,21,22
 222 -61.6 222 -61.6 205.5 -82.5 c 0,23,24
 186.947368421 -106 186.947368421 -106 146 -106 c 0,25,26
 105.666666667 -106 105.666666667 -106 86.5 -83 c 0,27,28
 72.1578947368 -65.7894736842 72.1578947368 -65.7894736842 70.5 -26 c 0,29,30
 70 -14 70 -14 70 9 c 2,31,-1
 70 586 l 2,32,33
 70 657.2 70 657.2 86.5 677 c 0,34,35
 105.666666667 700 105.666666667 700 146 700 c 2,36,-1
 291 700 l 2,37,38
 384 700 384 700 444.5 652 c 128,-1,39
 505 604 505 604 505 517 c 0,40,41
 505 485 505 485 492.5 457 c 128,-1,42
 480 429 480 429 461.5 412 c 0,43,44
 428.52173913 381.695652174 428.52173913 381.695652174 408 374 c 1,45,46
 530 339 530 339 530 208 c 0,47,48
 530 109 530 109 472.5 54.5 c 128,-1,49
 415 0 415 0 339 0 c 0,50,51
 298 0 298 0 275.5 12.5 c 128,-1,52
 253 25 253 25 251 61 c 1,53,0
 251 98 251 98 269.5 115.5 c 128,-1,1
EndSplineSet
EndChar

StartChar: dotlessi
Encoding: 305 305 97
Width: 313
Flags: MW
HStem: 0 21G<118 186> 480 20G<118 186>
VStem: 76 152<112 388>
LayerCount: 2
Fore
SplineSet
76 112 m 2,0,-1
 76 388 l 2,1,2
 76 440 76 440 91 470 c 128,-1,3
 106 500 106 500 152 500 c 128,-1,4
 198 500 198 500 213 470 c 128,-1,5
 228 440 228 440 228 388 c 2,6,-1
 228 112 l 2,7,8
 228 60 228 60 213 30 c 128,-1,9
 198 0 198 0 152 0 c 128,-1,10
 106 0 106 0 91 30 c 128,-1,11
 76 60 76 60 76 112 c 2,0,-1
EndSplineSet
EndChar

StartChar: exclam
Encoding: 33 33 98
Width: 404
Flags: MW
HStem: -1 165<168.5 221> 679 20G<161 229>
VStem: 112 140 112 165<54 110.5 466 587>
LayerCount: 2
Fore
SplineSet
277 464 m 1,0,-1
 252 304 l 1,1,2
 252 265 252 265 241 242.5 c 128,-1,3
 230 220 230 220 195 220 c 128,-1,4
 160 220 160 220 149 242.5 c 128,-1,5
 138 265 138 265 138 304 c 1,6,-1
 112 466 l 1,7,-1
 112 588 l 2,8,9
 112 699 112 699 194.5 699 c 0,10,11
 277 699 277 699 277 587 c 2,12,-1
 277 464 l 1,0,-1
277 81.5 m 0,13,14
 277 -1 277 -1 194.5 -1 c 0,15,16
 112 -1 112 -1 112 81.5 c 0,17,18
 112 164 112 164 194.5 164 c 0,19,20
 277 164 277 164 277 81.5 c 0,13,14
EndSplineSet
EndChar

StartChar: exclamdown
Encoding: 161 161 99
Width: 376
Flags: MW
HStem: -1 21G<147 215> 534 165<155 207.5 155 207.5>
VStem: 99 165<111 244 82 246 82 246 587.5 644> 124 140
LayerCount: 2
Fore
SplineSet
99 246 m 1,0,-1
 124 406 l 1,1,2
 124 445 124 445 135 467.5 c 128,-1,3
 146 490 146 490 181 490 c 128,-1,4
 216 490 216 490 227 467.5 c 128,-1,5
 238 445 238 445 238 406 c 1,6,-1
 264 244 l 1,7,-1
 264 110 l 2,8,9
 264 -1 264 -1 181.5 -1 c 0,10,11
 99 -1 99 -1 99 111 c 2,12,-1
 99 246 l 1,0,-1
99 616.5 m 0,13,14
 99 699 99 699 181.5 699 c 0,15,16
 264 699 264 699 264 616.5 c 0,17,18
 264 534 264 534 181.5 534 c 0,19,20
 99 534 99 534 99 616.5 c 0,13,14
EndSplineSet
EndChar

StartChar: question
Encoding: 63 63 100
Width: 571
Flags: MW
HStem: 0 165<250.5 303> 584 126<243.5 290>
VStem: 51 151<484.5 525 483 530.5> 201 141<273.5 289 264 354.5> 201 158 357 148<460 545>
LayerCount: 2
Fore
SplineSet
505 504 m 0,0,1
 505 468 505 468 485 435.5 c 128,-1,2
 465 403 465 403 440.5 384 c 128,-1,3
 416 365 416 365 388.5 344.5 c 128,-1,4
 361 324 361 324 351.5 311.5 c 128,-1,5
 342 299 342 299 342 276.5 c 128,-1,6
 342 254 342 254 324.5 237 c 128,-1,7
 307 220 307 220 271 220 c 128,-1,8
 235 220 235 220 218 241 c 128,-1,9
 201 262 201 262 201 293 c 128,-1,10
 201 324 201 324 217 352 c 128,-1,11
 233 380 233 380 256 396 c 128,-1,12
 279 412 279 412 302 426.5 c 0,13,14
 357 461.173913043 357 461.173913043 357 510 c 0,15,16
 357 584 357 584 279.5 584 c 128,-1,17
 202 584 202 584 202 509 c 0,18,19
 202 474 202 474 178 455.5 c 128,-1,20
 154 437 154 437 123.5 437 c 128,-1,21
 93 437 93 437 72 456 c 128,-1,22
 51 475 51 475 51 499.5 c 128,-1,23
 51 524 51 524 55 546 c 128,-1,24
 59 568 59 568 73.5 599 c 128,-1,25
 88 630 88 630 111 653.5 c 128,-1,26
 134 677 134 677 177.5 693.5 c 128,-1,27
 221 710 221 710 277 710 c 0,28,29
 387 710 387 710 446 654 c 128,-1,30
 505 598 505 598 505 504 c 0,0,1
359 82.5 m 128,-1,32
 359 0 359 0 276.5 0 c 128,-1,33
 194 0 194 0 194 82.5 c 128,-1,34
 194 165 194 165 276.5 165 c 128,-1,31
 359 165 359 165 359 82.5 c 128,-1,32
EndSplineSet
EndChar

StartChar: paragraph
Encoding: 182 182 101
Width: 704
Flags: MW
HStem: -174 21G<257.5 326.5 505.5 574.5> 558 141<368 462 368 368>
VStem: 214 154<-61 319 319 319> 462 154<-61 558 558 558>
LayerCount: 2
Fore
SplineSet
214 699 m 2,0,-1
 510 699 l 2,1,2
 563 699 563 699 589.5 665.5 c 128,-1,3
 616 632 616 632 616 585 c 2,4,-1
 616 -61 l 2,5,6
 616 -145.3125 616 -145.3125 581 -165 c 0,7,8
 565 -174 565 -174 540 -174 c 128,-1,9
 515 -174 515 -174 499 -165 c 128,-1,10
 483 -156 483 -156 475 -138 c 0,11,12
 462 -108.75 462 -108.75 462 -61 c 2,13,-1
 462 558 l 1,14,-1
 368 558 l 1,15,-1
 368 -61 l 2,16,17
 368 -145.3125 368 -145.3125 333 -165 c 0,18,19
 317 -174 317 -174 292 -174 c 128,-1,20
 267 -174 267 -174 251 -165 c 128,-1,21
 235 -156 235 -156 227 -138 c 0,22,23
 214 -108.75 214 -108.75 214 -61 c 2,24,-1
 214 319 l 1,25,26
 153 319 153 319 106.5 364.5 c 128,-1,27
 60 410 60 410 60 496 c 2,28,-1
 60 522 l 2,29,30
 60 607 60 607 106.5 653 c 128,-1,31
 153 699 153 699 214 699 c 2,0,-1
EndSplineSet
EndChar

StartChar: logicalnot
Encoding: 172 172 102
Width: 746
Flags: MW
HStem: 230 21G<543.5 600> 429 122<135 559 154 165 165 511>
VStem: 511 122<302 429 429 429>
LayerCount: 2
Fore
SplineSet
511 429 m 1,0,-1
 154 429 l 2,1,2
 119 429 119 429 100.5 440.5 c 128,-1,3
 82 452 82 452 82 484.5 c 128,-1,4
 82 517 82 517 93.5 531.5 c 128,-1,5
 105 546 105 546 118 548.5 c 128,-1,6
 131 551 131 551 154 551 c 2,7,-1
 559 551 l 2,8,9
 597 551 597 551 615 536 c 128,-1,10
 633 521 633 521 633 478 c 2,11,-1
 633 302 l 2,12,13
 633 268 633 268 621.5 249 c 128,-1,14
 610 230 610 230 577.5 230 c 128,-1,15
 545 230 545 230 530.5 241.5 c 128,-1,16
 516 253 516 253 513.5 266 c 128,-1,17
 511 279 511 279 511 302 c 2,18,-1
 511 429 l 1,0,-1
EndSplineSet
EndChar

StartChar: questiondown
Encoding: 191 191 103
Width: 561
Flags: MW
HStem: 0 126<243.5 290 243.5 352.5> 545 165<250.5 303 250.5 304.5>
VStem: 51 151<185 225.5> 201 141<421 436.5> 201 158 357 148<165 250>
LayerCount: 2
Fore
SplineSet
505 206 m 0,0,1
 505 112 505 112 446 56 c 128,-1,2
 387 0 387 0 277 0 c 0,3,4
 221 0 221 0 177.5 16.5 c 128,-1,5
 134 33 134 33 111 56.5 c 128,-1,6
 88 80 88 80 73.5 111 c 0,7,8
 51 159.103448276 51 159.103448276 51 197.051724138 c 128,-1,9
 51 235 51 235 72 254 c 128,-1,10
 93 273 93 273 123.5 273 c 128,-1,11
 154 273 154 273 178 254.5 c 128,-1,12
 202 236 202 236 202 201 c 0,13,14
 202 126 202 126 279.5 126 c 128,-1,15
 357 126 357 126 357 200 c 0,16,17
 357 248.826086957 357 248.826086957 302 283.5 c 0,18,19
 279 298 279 298 256 314 c 128,-1,20
 233 330 233 330 217 358 c 128,-1,21
 201 386 201 386 201 417 c 128,-1,22
 201 448 201 448 218 469 c 128,-1,23
 235 490 235 490 271 490 c 128,-1,24
 307 490 307 490 324.5 473 c 128,-1,25
 342 456 342 456 342 433.5 c 128,-1,26
 342 411 342 411 351.5 398.5 c 128,-1,27
 361 386 361 386 388.5 365.5 c 128,-1,28
 416 345 416 345 440.5 326 c 128,-1,29
 465 307 465 307 485 274.5 c 128,-1,30
 505 242 505 242 505 206 c 0,0,1
359 627.5 m 128,-1,32
 359 545 359 545 276.5 545 c 128,-1,33
 194 545 194 545 194 627.5 c 128,-1,34
 194 710 194 710 276.5 710 c 128,-1,31
 359 710 359 710 359 627.5 c 128,-1,32
EndSplineSet
EndChar

StartChar: guilsinglright
Encoding: 8250 8250 104
Width: 512
Flags: MW
HStem: 63 21G<321.5 337.5> 517 20G<321 337.5>
LayerCount: 2
Fore
SplineSet
279 93 m 2,0,-1
 122 249 l 2,1,2
 92 279 92 279 92 299.5 c 0,3,4
 92 320 92 320 123 351 c 2,5,-1
 280 507 l 2,6,7
 310 537 310 537 330.5 537 c 0,8,9
 351 537 351 537 373 515 c 0,10,11
 395 493 395 493 395 471.5 c 0,12,13
 395 450 395 450 366 421 c 2,14,-1
 243 299 l 1,15,-1
 365 179 l 2,16,17
 395 149 395 149 395 128 c 128,-1,18
 395 107 395 107 373 85 c 0,19,20
 351 63 351 63 330 63 c 0,21,22
 309 63 309 63 279 93 c 2,0,-1
EndSplineSet
EndChar

StartChar: guillemotleft
Encoding: 171 171 105
Width: 763
Flags: MW
HStem: 67 21G<293.5 309.5> 68 21G<574.5 590.5> 521 20G<293 309.5> 522 20G<574 590.5>
LayerCount: 2
Fore
SplineSet
251 97 m 2,0,-1
 94 253 l 2,1,2
 64 283 64 283 64 303.5 c 0,3,4
 64 324 64 324 95 355 c 2,5,-1
 252 511 l 2,6,7
 282 541 282 541 302.5 541 c 0,8,9
 323 541 323 541 345 519 c 0,10,11
 367 497 367 497 367 475.5 c 0,12,13
 367 454 367 454 338 425 c 2,14,-1
 215 303 l 1,15,-1
 337 183 l 2,16,17
 367 153 367 153 367 132 c 128,-1,18
 367 111 367 111 345 89 c 0,19,20
 323 67 323 67 302 67 c 0,21,22
 281 67 281 67 251 97 c 2,0,-1
532 98 m 2,23,-1
 375 254 l 2,24,25
 345 284 345 284 345 304.5 c 0,26,27
 345 325 345 325 376 356 c 2,28,-1
 533 512 l 2,29,30
 563 542 563 542 583.5 542 c 0,31,32
 604 542 604 542 626 520 c 0,33,34
 648 498 648 498 648 476.5 c 0,35,36
 648 455 648 455 619 426 c 2,37,-1
 496 304 l 1,38,-1
 618 184 l 2,39,40
 648 154 648 154 648 133 c 128,-1,41
 648 112 648 112 626 90 c 0,42,43
 604 68 604 68 583 68 c 0,44,45
 562 68 562 68 532 98 c 2,23,-1
EndSplineSet
EndChar

StartChar: guilsinglleft
Encoding: 8249 8249 106
Width: 518
Flags: MW
HStem: 62 21G<181.5 197.5> 516 20G<181.5 198>
LayerCount: 2
Fore
SplineSet
397 248 m 2,0,-1
 240 92 l 2,1,2
 210 62 210 62 189 62 c 0,3,4
 168 62 168 62 146 84 c 0,5,6
 124 106 124 106 124 127 c 128,-1,7
 124 148 124 148 154 178 c 2,8,-1
 276 298 l 1,9,-1
 153 420 l 2,10,11
 124 449 124 449 124 470.5 c 0,12,13
 124 492 124 492 146 514 c 0,14,15
 168 536 168 536 188.5 536 c 0,16,17
 209 536 209 536 239 506 c 2,18,-1
 396 350 l 2,19,20
 427 319 427 319 427 298.5 c 0,21,22
 427 278 427 278 397 248 c 2,0,-1
EndSplineSet
EndChar

StartChar: slash
Encoding: 47 47 107
Width: 471
Flags: MW
HStem: -13 21G<107 126.5> 684 20G<345 352>
LayerCount: 2
Fore
SplineSet
410 607 m 2,0,-1
 167 37 l 1,1,2
 144 -13 144 -13 111 -13 c 0,3,4
 98 -13 98 -13 83 -6 c 0,5,6
 46 10 46 10 43 37 c 1,7,8
 43 56 43 56 54 84 c 2,9,-1
 298 655 l 2,10,11
 317 701 317 701 345 704 c 1,12,13
 365 704 365 704 383 697 c 0,14,15
 418 682 418 682 421 655 c 1,16,17
 421 631 421 631 410 607 c 2,0,-1
EndSplineSet
EndChar

StartChar: backslash
Encoding: 92 92 108
Width: 481
Flags: MW
HStem: -13 21G<349.5 369> 684 20G<124 131>
LayerCount: 2
Fore
SplineSet
131 704 m 1,0,1
 159 701 159 701 178 655 c 2,2,-1
 422 84 l 2,3,4
 433 57 433 57 433 37 c 1,5,6
 430 10 430 10 393 -6 c 0,7,8
 378 -13 378 -13 365 -13 c 0,9,10
 332 -13 332 -13 309 37 c 1,11,-1
 66 607 l 2,12,13
 55 631 55 631 55 655 c 1,14,15
 58 682 58 682 93 697 c 0,16,17
 111 704 111 704 131 704 c 1,0,1
EndSplineSet
EndChar

StartChar: bracketright
Encoding: 93 93 109
Width: 369
Flags: MW
HStem: 1 122<84.5 156 103 156 103 206> 580 122<83.5 205 102 156>
VStem: 31 247<44.5 73 73 90> 156 122<123 580 580 580>
LayerCount: 2
Fore
SplineSet
103 123 m 2,0,-1
 156 123 l 1,1,-1
 156 580 l 1,2,-1
 102 580 l 2,3,4
 79 580 79 580 66 582.5 c 128,-1,5
 53 585 53 585 41.5 599.5 c 128,-1,6
 30 614 30 614 30 646.5 c 0,7,8
 30 679 30 679 49 690.5 c 128,-1,9
 68 702 68 702 102 702 c 2,10,-1
 205 702 l 2,11,12
 278 702 278 702 278 628 c 2,13,-1
 278 73 l 2,14,15
 278 1 278 1 206 1 c 2,16,-1
 103 1 l 2,17,18
 80 1 80 1 67 3.5 c 128,-1,19
 54 6 54 6 42.5 20.5 c 128,-1,20
 31 35 31 35 31 67.5 c 0,21,22
 31 100 31 100 50 111.5 c 128,-1,23
 69 123 69 123 103 123 c 2,0,-1
EndSplineSet
EndChar

StartChar: bracketleft
Encoding: 91 91 110
Width: 338
Flags: MW
HStem: 1 122<101.5 225 172 225 172 225> 580 122<172 226 172 172>
VStem: 50 122<123 123 123 580> 50 248<612.5 628 628 651.5>
LayerCount: 2
Fore
SplineSet
172 123 m 1,0,-1
 225 123 l 2,1,2
 259 123 259 123 278 111.5 c 128,-1,3
 297 100 297 100 297 67.5 c 0,4,5
 297 35 297 35 285.5 20.5 c 128,-1,6
 274 6 274 6 261 3.5 c 128,-1,7
 248 1 248 1 225 1 c 2,8,-1
 122 1 l 2,9,10
 50 1 50 1 50 73 c 2,11,-1
 50 628 l 2,12,13
 50 702 50 702 123 702 c 2,14,-1
 226 702 l 2,15,16
 260 702 260 702 279 690.5 c 128,-1,17
 298 679 298 679 298 646.5 c 0,18,19
 298 614 298 614 286.5 599.5 c 128,-1,20
 275 585 275 585 262 582.5 c 128,-1,21
 249 580 249 580 226 580 c 2,22,-1
 172 580 l 1,23,-1
 172 123 l 1,0,-1
EndSplineSet
EndChar

StartChar: bar
Encoding: 124 124 111
Width: 301
Flags: MW
HStem: 1 21G<122.5 179> 682 20G<122.5 179>
VStem: 90 122<73 101 101 630>
LayerCount: 2
Fore
SplineSet
212 630 m 2,0,-1
 212 73 l 2,1,2
 212 39 212 39 200.5 20 c 128,-1,3
 189 1 189 1 156.5 1 c 128,-1,4
 124 1 124 1 109.5 12.5 c 128,-1,5
 95 24 95 24 92.5 37 c 128,-1,6
 90 50 90 50 90 73 c 2,7,-1
 90 630 l 2,8,9
 90 652 90 652 92.5 665 c 128,-1,10
 95 678 95 678 110 690 c 128,-1,11
 125 702 125 702 156.5 702 c 128,-1,12
 188 702 188 702 200 682 c 128,-1,13
 212 662 212 662 212 630 c 2,0,-1
EndSplineSet
EndChar

StartChar: fraction
Encoding: 8260 8260 112
Width: 500
Flags: MW
HStem: 332 57<105.5 357 114 127 127 357>
LayerCount: 2
Fore
SplineSet
357 332 m 2,0,-1
 114 332 l 2,1,2
 81 332 81 332 81 360 c 0,3,4
 81 378 81 378 89.5 383.5 c 128,-1,5
 98 389 98 389 114 389 c 2,6,-1
 357 389 l 2,7,8
 389 389 389 389 389 360.5 c 128,-1,9
 389 332 389 332 357 332 c 2,0,-1
EndSplineSet
EndChar

StartChar: less
Encoding: 60 60 113
Width: 469
Flags: MW
HStem: 63 21G<302.5 318.5> 517 20G<302 318.5>
LayerCount: 2
Fore
SplineSet
260 93 m 2,0,-1
 103 249 l 2,1,2
 73 279 73 279 73 299.5 c 0,3,4
 73 320 73 320 104 351 c 2,5,-1
 261 507 l 2,6,7
 291 537 291 537 311.5 537 c 0,8,9
 332 537 332 537 354 515 c 0,10,11
 376 493 376 493 376 471.5 c 0,12,13
 376 450 376 450 347 421 c 2,14,-1
 224 299 l 1,15,-1
 346 179 l 2,16,17
 376 149 376 149 376 128 c 128,-1,18
 376 107 376 107 354 85 c 0,19,20
 332 63 332 63 311 63 c 0,21,22
 290 63 290 63 260 93 c 2,0,-1
EndSplineSet
EndChar

StartChar: greater
Encoding: 62 62 114
Width: 465
Flags: MW
HStem: 63 21G<138.5 154.5> 517 20G<138.5 155>
LayerCount: 2
Fore
SplineSet
354 249 m 2,0,-1
 197 93 l 2,1,2
 167 63 167 63 146 63 c 0,3,4
 125 63 125 63 103 85 c 0,5,6
 81 107 81 107 81 128 c 128,-1,7
 81 149 81 149 111 179 c 2,8,-1
 233 299 l 1,9,-1
 110 421 l 2,10,11
 81 450 81 450 81 471.5 c 0,12,13
 81 493 81 493 103 515 c 0,14,15
 125 537 125 537 145.5 537 c 0,16,17
 166 537 166 537 196 507 c 2,18,-1
 353 351 l 2,19,20
 384 320 384 320 384 299.5 c 0,21,22
 384 279 384 279 354 249 c 2,0,-1
EndSplineSet
EndChar

StartChar: numbersign
Encoding: 35 35 115
Width: 634
Flags: MW
HStem: 80 214<114 218 114 397> 201 93<100 178 114 163 273 342 114 257 452 494> 406 93<135 214 149 198 308 377 149 293 487 530> 406 205<135 280 149 280 251 377 251 293 251 472 251 530>
LayerCount: 2
Fore
SplineSet
149 406 m 2,0,1
 123 406 123 406 108.5 415 c 128,-1,2
 94 424 94 424 94 448.5 c 0,3,4
 94 473 94 473 103 484 c 128,-1,5
 112 495 112 495 121.5 497 c 128,-1,6
 131 499 131 499 149 499 c 2,7,-1
 214 499 l 1,8,-1
 225 564 l 2,9,10
 232 611 232 611 267 611 c 0,11,12
 319 611 319 611 319 568 c 0,13,14
 319 561 319 561 308 499 c 1,15,-1
 393 499 l 1,16,-1
 404 564 l 2,17,18
 411 611 411 611 446 611 c 0,19,20
 498 611 498 611 498 568 c 0,21,22
 498 561 498 561 487 499 c 1,23,-1
 530 499 l 2,24,25
 547 499 547 499 556.5 497 c 128,-1,26
 566 495 566 495 575.5 484 c 128,-1,27
 585 473 585 473 585 452 c 0,28,29
 585 406 585 406 530 406 c 2,30,-1
 472 406 l 1,31,-1
 452 294 l 1,32,-1
 494 294 l 2,33,34
 511 294 511 294 520.5 292 c 128,-1,35
 530 290 530 290 539.5 279 c 128,-1,36
 549 268 549 268 549 243.5 c 0,37,38
 549 219 549 219 534 210 c 128,-1,39
 519 201 519 201 494 201 c 2,40,-1
 436 201 l 1,41,-1
 428 149 l 2,42,43
 417 80 417 80 382 80 c 0,44,45
 366 80 366 80 356.5 82 c 128,-1,46
 347 84 347 84 338.5 93.5 c 128,-1,47
 330 103 330 103 330 116.5 c 0,48,49
 330 130 330 130 342 201 c 1,50,-1
 257 201 l 1,51,-1
 249 149 l 2,52,53
 238 80 238 80 203 80 c 0,54,55
 187 80 187 80 177.5 82 c 128,-1,56
 168 84 168 84 159.5 93.5 c 128,-1,57
 151 103 151 103 151 116.5 c 0,58,59
 151 130 151 130 163 201 c 1,60,-1
 114 201 l 2,61,62
 97 201 97 201 86.5 203.5 c 128,-1,63
 76 206 76 206 67.5 216.5 c 128,-1,64
 59 227 59 227 59 247.5 c 0,65,66
 59 268 59 268 68 279 c 128,-1,67
 77 290 77 290 86.5 292 c 128,-1,68
 96 294 96 294 114 294 c 2,69,-1
 178 294 l 1,70,-1
 198 406 l 1,71,-1
 149 406 l 2,0,1
293 406 m 1,72,-1
 273 294 l 1,73,-1
 357 294 l 1,74,-1
 377 406 l 1,75,-1
 293 406 l 1,72,-1
EndSplineSet
EndChar

StartChar: quoteleft
Encoding: 8216 8216 116
Width: 385
Flags: MW
HStem: 453 247<161 197.5 161 209.5>
VStem: 101 165<506.5 567.5>
LayerCount: 2
Fore
SplineSet
101 535 m 0,0,1
 101 593 101 593 125.5 646.5 c 128,-1,2
 150 700 150 700 192 700 c 0,3,4
 201 700 201 700 208.5 693.5 c 128,-1,5
 216 687 216 687 216 675 c 2,6,-1
 216 671 l 2,7,8
 216 664 216 664 208 650.5 c 128,-1,9
 200 637 200 637 200 629.5 c 0,10,11
 200 622 200 622 216.5 614.5 c 128,-1,12
 233 607 233 607 249.5 588.5 c 128,-1,13
 266 570 266 570 266 535 c 0,14,15
 266 453 266 453 183.5 453 c 0,16,17
 101 453 101 453 101 535 c 0,0,1
EndSplineSet
EndChar

StartChar: quoteright
Encoding: 8217 8217 117
Width: 347
Flags: MW
HStem: 453 247<152.5 189>
VStem: 84 165<585.5 646.5 585.5 646.5>
LayerCount: 2
Fore
SplineSet
249 618 m 0,0,1
 249 560 249 560 224.5 506.5 c 128,-1,2
 200 453 200 453 158 453 c 0,3,4
 149 453 149 453 141.5 459.5 c 128,-1,5
 134 466 134 466 134 478 c 2,6,-1
 134 482 l 2,7,8
 134 489 134 489 142 502.5 c 128,-1,9
 150 516 150 516 150 523.5 c 0,10,11
 150 531 150 531 133.5 538.5 c 128,-1,12
 117 546 117 546 100.5 564.5 c 128,-1,13
 84 583 84 583 84 618 c 0,14,15
 84 700 84 700 166.5 700 c 0,16,17
 249 700 249 700 249 618 c 0,0,1
EndSplineSet
EndChar

StartChar: colon
Encoding: 58 58 118
Width: 286
Flags: MW
HStem: 0 165<118.5 171> 262 165<117.5 170>
VStem: 62 165<55 111.5>
LayerCount: 2
Fore
SplineSet
227 82.5 m 0,0,1
 227 0 227 0 144.5 0 c 0,2,3
 62 0 62 0 62 82.5 c 0,4,5
 62 165 62 165 144.5 165 c 0,6,7
 227 165 227 165 227 82.5 c 0,0,1
226 344.5 m 0,8,9
 226 262 226 262 143.5 262 c 0,10,11
 61 262 61 262 61 344.5 c 0,12,13
 61 427 61 427 143.5 427 c 0,14,15
 226 427 226 427 226 344.5 c 0,8,9
EndSplineSet
EndChar

StartChar: semicolon
Encoding: 59 59 119
Width: 298
Flags: MW
HStem: -83 247<129.5 166> 261 165<116.5 169>
VStem: 60 165<316 372.5> 127 98
LayerCount: 2
Fore
SplineSet
225 343.5 m 0,0,1
 225 261 225 261 142.5 261 c 0,2,3
 60 261 60 261 60 343.5 c 0,4,5
 60 426 60 426 142.5 426 c 0,6,7
 225 426 225 426 225 343.5 c 0,0,1
226 82 m 0,8,9
 226 24 226 24 201.5 -29.5 c 128,-1,10
 177 -83 177 -83 135 -83 c 0,11,12
 126 -83 126 -83 118.5 -76.5 c 128,-1,13
 111 -70 111 -70 111 -58 c 2,14,-1
 111 -54 l 2,15,16
 111 -47 111 -47 119 -33.5 c 128,-1,17
 127 -20 127 -20 127 -12.5 c 0,18,19
 127 -5 127 -5 110.5 2.5 c 128,-1,20
 94 10 94 10 77.5 28.5 c 128,-1,21
 61 47 61 47 61 82 c 0,22,23
 61 164 61 164 143.5 164 c 0,24,25
 226 164 226 164 226 82 c 0,8,9
EndSplineSet
EndChar

StartChar: brokenbar
Encoding: 166 166 120
Width: 333
Flags: MW
HStem: 0 21G<136.5 193> 682 20G<136.5 193>
VStem: 104 122<72 100 100 221 481 509 509 630>
LayerCount: 2
Fore
SplineSet
226 630 m 2,0,-1
 226 481 l 2,1,2
 226 447 226 447 214.5 428 c 128,-1,3
 203 409 203 409 170.5 409 c 128,-1,4
 138 409 138 409 123.5 420.5 c 128,-1,5
 109 432 109 432 106.5 445 c 128,-1,6
 104 458 104 458 104 481 c 2,7,-1
 104 630 l 2,8,9
 104 652 104 652 106.5 665 c 128,-1,10
 109 678 109 678 124 690 c 128,-1,11
 139 702 139 702 170.5 702 c 128,-1,12
 202 702 202 702 214 682 c 128,-1,13
 226 662 226 662 226 630 c 2,0,-1
226 221 m 2,14,-1
 226 72 l 2,15,16
 226 38 226 38 214.5 19 c 128,-1,17
 203 0 203 0 170.5 0 c 128,-1,18
 138 0 138 0 123.5 11.5 c 128,-1,19
 109 23 109 23 106.5 36 c 128,-1,20
 104 49 104 49 104 72 c 2,21,-1
 104 221 l 2,22,23
 104 243 104 243 106.5 256 c 128,-1,24
 109 269 109 269 124 281 c 128,-1,25
 139 293 139 293 170.5 293 c 128,-1,26
 202 293 202 293 214 273.5 c 128,-1,27
 226 254 226 254 226 221 c 2,14,-1
EndSplineSet
EndChar

StartChar: divide
Encoding: 247 247 121
Width: 698
Flags: MW
HStem: 87 165<326.5 379> 301 122<131.5 555 150 178 178 555> 472 165<325.5 378>
VStem: 270 165<142 198.5>
CounterMasks: 1 e0
LayerCount: 2
Fore
SplineSet
555 301 m 2,0,-1
 150 301 l 2,1,2
 116 301 116 301 97 312.5 c 128,-1,3
 78 324 78 324 78 356.5 c 128,-1,4
 78 389 78 389 89.5 403.5 c 128,-1,5
 101 418 101 418 114 420.5 c 128,-1,6
 127 423 127 423 150 423 c 2,7,-1
 555 423 l 2,8,9
 577 423 577 423 590 420.5 c 128,-1,10
 603 418 603 418 615 403 c 128,-1,11
 627 388 627 388 627 356.5 c 128,-1,12
 627 325 627 325 607.5 313 c 128,-1,13
 588 301 588 301 555 301 c 2,0,-1
435 169.5 m 128,-1,15
 435 87 435 87 352.5 87 c 128,-1,16
 270 87 270 87 270 169.5 c 128,-1,17
 270 252 270 252 352.5 252 c 128,-1,14
 435 252 435 252 435 169.5 c 128,-1,15
434 554.5 m 128,-1,19
 434 472 434 472 351.5 472 c 128,-1,20
 269 472 269 472 269 554.5 c 128,-1,21
 269 637 269 637 351.5 637 c 128,-1,18
 434 637 434 637 434 554.5 c 128,-1,19
EndSplineSet
EndChar

StartChar: multiply
Encoding: 215 215 122
Width: 638
Flags: MW
HStem: 146 21G<159.5 175.5 460.5 476.5> 558 20G<159.5 176 460 476.5>
LayerCount: 2
Fore
SplineSet
318 275 m 1,0,-1
 218 176 l 2,1,2
 188 146 188 146 167 146 c 0,3,4
 146 146 146 146 124 168 c 0,5,6
 102 190 102 190 102 211 c 128,-1,7
 102 232 102 232 132 262 c 2,8,-1
 231 361 l 1,9,-1
 131 462 l 2,10,11
 102 491 102 491 102 512.5 c 0,12,13
 102 534 102 534 124 556 c 0,14,15
 146 578 146 578 166.5 578 c 0,16,17
 187 578 187 578 217 548 c 2,18,-1
 318 447 l 1,19,-1
 419 548 l 2,20,21
 449 578 449 578 469.5 578 c 0,22,23
 490 578 490 578 512 556 c 0,24,25
 534 534 534 534 534 512.5 c 0,26,27
 534 491 534 491 505 462 c 2,28,-1
 404 361 l 1,29,-1
 504 262 l 2,30,31
 534 232 534 232 534 211 c 128,-1,32
 534 190 534 190 512 168 c 0,33,34
 490 146 490 146 469 146 c 0,35,36
 448 146 448 146 418 176 c 2,37,-1
 318 275 l 1,0,-1
EndSplineSet
EndChar

StartChar: dotaccent
Encoding: 729 729 123
Width: 287
Flags: MW
HStem: 571 165<114.5 167>
VStem: 58 165<626 682.5>
LayerCount: 2
Fore
SplineSet
223 653.5 m 0,0,1
 223 571 223 571 140.5 571 c 0,2,3
 58 571 58 571 58 653.5 c 0,4,5
 58 736 58 736 140.5 736 c 0,6,7
 223 736 223 736 223 653.5 c 0,0,1
EndSplineSet
EndChar

StartChar: asciicircum
Encoding: 94 94 124
Width: 488
Flags: MW
HStem: 381 21G<135 149 329 343> 558 20G<234 244 244 244>
LayerCount: 2
Fore
SplineSet
282 561 m 2,0,-1
 377 471 l 2,1,2
 391 457 391 457 391 435 c 128,-1,3
 391 413 391 413 373.5 397 c 0,4,5
 356 381 356 381 331.5 381 c 0,6,7
 307 381 307 381 294 397 c 1,8,-1
 239 449 l 1,9,-1
 184 397 l 1,10,11
 171 381 171 381 146.5 381 c 0,12,13
 122 381 122 381 104.5 397 c 0,14,15
 87 413 87 413 87 435 c 128,-1,16
 87 457 87 457 101 471 c 2,17,-1
 196 561 l 2,18,19
 212 577 212 577 234 578 c 1,20,-1
 244 578 l 1,21,22
 266 576 266 576 282 561 c 2,0,-1
EndSplineSet
EndChar

StartChar: quotedbl
Encoding: 34 34 125
Width: 449
Flags: MW
HStem: 452 250<87.5 144> 680 20G<293.5 350>
VStem: 55 122<524 552 552 630 505.5 647> 261 122<526 554 554 628 507.5 645>
LayerCount: 2
Fore
SplineSet
177 630 m 2,0,-1
 177 524 l 2,1,2
 177 490 177 490 165.5 471 c 128,-1,3
 154 452 154 452 121.5 452 c 128,-1,4
 89 452 89 452 74.5 463.5 c 128,-1,5
 60 475 60 475 57.5 488 c 128,-1,6
 55 501 55 501 55 524 c 2,7,-1
 55 630 l 2,8,9
 55 652 55 652 57.5 665 c 128,-1,10
 60 678 60 678 75 690 c 128,-1,11
 90 702 90 702 121.5 702 c 128,-1,12
 153 702 153 702 165 682 c 128,-1,13
 177 662 177 662 177 630 c 2,0,-1
383 628 m 2,14,-1
 383 526 l 2,15,16
 383 492 383 492 371.5 473 c 128,-1,17
 360 454 360 454 327.5 454 c 128,-1,18
 295 454 295 454 280.5 465.5 c 128,-1,19
 266 477 266 477 263.5 490 c 128,-1,20
 261 503 261 503 261 526 c 2,21,-1
 261 628 l 2,22,23
 261 650 261 650 263.5 663 c 128,-1,24
 266 676 266 676 281 688 c 128,-1,25
 296 700 296 700 327.5 700 c 128,-1,26
 359 700 359 700 371 680 c 128,-1,27
 383 660 383 660 383 628 c 2,14,-1
EndSplineSet
EndChar

StartChar: quotesingle
Encoding: 39 39 126
Width: 261
Flags: MW
HStem: 452 250<97.5 154>
VStem: 65 122<524 552 552 630 505.5 647>
LayerCount: 2
Fore
SplineSet
187 630 m 2,0,-1
 187 524 l 2,1,2
 187 490 187 490 175.5 471 c 128,-1,3
 164 452 164 452 131.5 452 c 128,-1,4
 99 452 99 452 84.5 463.5 c 128,-1,5
 70 475 70 475 67.5 488 c 128,-1,6
 65 501 65 501 65 524 c 2,7,-1
 65 630 l 2,8,9
 65 652 65 652 67.5 665 c 128,-1,10
 70 678 70 678 85 690 c 128,-1,11
 100 702 100 702 131.5 702 c 128,-1,12
 163 702 163 702 175 682 c 128,-1,13
 187 662 187 662 187 630 c 2,0,-1
EndSplineSet
EndChar

StartChar: ring
Encoding: 730 730 127
Width: 331
Flags: MW
HStem: 471 58<143 179 143 197.5> 643 57<143 180>
VStem: 46 58<567 606 567 625.5> 218 57<567 606>
LayerCount: 2
Fore
SplineSet
218 586 m 128,-1,1
 218 643 218 643 161 643 c 128,-1,2
 104 643 104 643 104 586 c 128,-1,3
 104 529 104 529 161 529 c 128,-1,0
 218 529 218 529 218 586 c 128,-1,1
275 586 m 0,4,5
 275 471 275 471 160.5 471 c 0,6,7
 46 471 46 471 46 585.5 c 0,8,9
 46 700 46 700 161 700 c 0,10,11
 219 700 219 700 247 672.5 c 128,-1,12
 275 645 275 645 275 586 c 0,4,5
EndSplineSet
EndChar

StartChar: currency
Encoding: 164 164 128
Width: 596
Flags: MW
HStem: 83 135<131.5 315.5 264.5 448.5> 135 83<277 302.5> 381 81<277 303 277 317> 381 134<131.5 317>
VStem: 74 135<141.5 327.5 272 457.5> 126 83<286 311.5> 371 82<286 311.5 286 327.5> 371 135<141.5 327.5>
LayerCount: 2
Fore
SplineSet
444 366 m 1,0,1
 453 338 453 338 453 300.5 c 128,-1,2
 453 263 453 263 443 231 c 1,3,-1
 476 199 l 2,4,5
 506 169 506 169 506 148 c 128,-1,6
 506 127 506 127 484 105 c 128,-1,7
 462 83 462 83 441 83 c 128,-1,8
 420 83 420 83 390 113 c 2,9,-1
 358 144 l 1,10,11
 328 135 328 135 290 135 c 128,-1,12
 252 135 252 135 222 144 c 1,13,-1
 190 113 l 2,14,15
 160 83 160 83 139 83 c 128,-1,16
 118 83 118 83 96 105 c 128,-1,17
 74 127 74 127 74 148 c 128,-1,18
 74 169 74 169 104 199 c 2,19,-1
 135 230 l 1,20,21
 126 260 126 260 126 299 c 128,-1,22
 126 338 126 338 135 366 c 1,23,-1
 103 399 l 2,24,25
 74 428 74 428 74 449.5 c 128,-1,26
 74 471 74 471 96 493 c 128,-1,27
 118 515 118 515 138.5 515 c 128,-1,28
 159 515 159 515 189 485 c 2,29,-1
 221 452 l 1,30,31
 250 462 250 462 289.5 462 c 128,-1,32
 329 462 329 462 359 453 c 1,33,-1
 391 485 l 2,34,35
 421 515 421 515 441.5 515 c 128,-1,36
 462 515 462 515 484 493 c 128,-1,37
 506 471 506 471 506 449.5 c 128,-1,38
 506 428 506 428 477 399 c 2,39,-1
 444 366 l 1,0,1
290 218 m 128,-1,41
 371 218 371 218 371 299.5 c 128,-1,42
 371 381 371 381 290 381 c 128,-1,43
 209 381 209 381 209 299.5 c 128,-1,40
 209 218 209 218 290 218 c 128,-1,41
EndSplineSet
EndChar

StartChar: periodcentered
Encoding: 183 183 129
Width: 410
Flags: MW
HStem: 267 165<180.5 233>
VStem: 124 165<322 378.5>
LayerCount: 2
Fore
SplineSet
289 349.5 m 0,0,1
 289 267 289 267 206.5 267 c 0,2,3
 124 267 124 267 124 349.5 c 0,4,5
 124 432 124 432 206.5 432 c 0,6,7
 289 432 289 432 289 349.5 c 0,0,1
EndSplineSet
EndChar

StartChar: Aring
Encoding: 197 197 130
Width: 552
Flags: MW
HStem: 0 21G<71.5 140.5 411.5 480> 170 132<197 356 197 376 176 356> 680 20G<251 301 301 338> 750 58<259 295 259 313.5> 922 57<259 296>
VStem: 40 136 162 58<846 885 846 904.5> 334 57<846 885> 376 139<100 115 75 170 75 170>
LayerCount: 2
Fore
SplineSet
271 570 m 1,0,-1
 197 302 l 1,1,-1
 356 302 l 1,2,-1
 282 570 l 1,3,-1
 271 570 l 1,0,-1
511 253 m 1,4,-1
 515 115 l 1,5,-1
 515 100 l 2,6,7
 515 37.1428571429 515 37.1428571429 500 20 c 0,8,9
 482.5 6.57252030578e-14 482.5 6.57252030578e-14 454.25 3.28626015289e-14 c 128,-1,10
 426 0 426 0 412.5 6 c 128,-1,11
 399 12 399 12 391.5 20 c 128,-1,12
 384 28 384 28 380.5 43.5 c 0,13,14
 376 63.4285714286 376 63.4285714286 376 100 c 2,15,-1
 376 170 l 1,16,-1
 176 170 l 1,17,-1
 176 100 l 2,18,19
 176 36.5333333333 176 36.5333333333 160.5 20 c 0,20,21
 141.75 0 141.75 0 113.875 0 c 128,-1,22
 86 0 86 0 72.5 6 c 128,-1,23
 59 12 59 12 52 20 c 128,-1,24
 45 28 45 28 41.5 44 c 0,25,26
 37 64.5714285714 37 64.5714285714 37 100 c 2,27,-1
 37 115 l 2,28,29
 37 127 37 127 40 253 c 1,30,31
 56 308 56 308 92 427 c 128,-1,32
 128 546 128 546 143 599 c 128,-1,33
 158 652 158 652 179.5 676 c 128,-1,34
 201 700 201 700 251 700 c 2,35,-1
 301 700 l 2,36,37
 351 700 351 700 372.5 676 c 128,-1,38
 394 652 394 652 407 606 c 2,39,-1
 511 253 l 1,4,-1
334 865 m 128,-1,41
 334 922 334 922 277 922 c 128,-1,42
 220 922 220 922 220 865 c 128,-1,43
 220 808 220 808 277 808 c 128,-1,40
 334 808 334 808 334 865 c 128,-1,41
391 865 m 0,44,45
 391 750 391 750 276.5 750 c 128,-1,46
 162 750 162 750 162 864.5 c 128,-1,47
 162 979 162 979 277 979 c 0,48,49
 335 979 335 979 363 951.5 c 128,-1,50
 391 924 391 924 391 865 c 0,44,45
EndSplineSet
EndChar

StartChar: aring
Encoding: 229 229 131
Width: 510
Flags: MW
HStem: 0 117<219.5 228.5 219.5 417> 382 118<219.5 414.5> 550 58<236 272 236 290.5> 722 57<236 273>
VStem: 42 154<177 190 190 311 172 322 172 388.5> 139 57 304 64 304 152<70.5 113 265 286>
LayerCount: 2
Fore
SplineSet
456 113 m 2,0,1
 456 27.5625 456 27.5625 423 9 c 0,2,3
 407 0 407 0 381 0 c 0,4,5
 304 0 304 0 304 84 c 1,6,7
 278 0 278 0 196 0 c 0,8,9
 133 0 133 0 87.5 43 c 128,-1,10
 42 86 42 86 42 177 c 2,11,-1
 42 322 l 2,12,13
 42 414 42 414 87.5 456.5 c 128,-1,14
 133 499 133 499 196 499 c 0,15,16
 241 499 241 499 267 474.5 c 128,-1,17
 293 450 293 450 304 415 c 1,18,19
 304 461 304 461 326.5 480.5 c 128,-1,20
 349 500 349 500 387.5 500 c 128,-1,21
 426 500 426 500 441 469.5 c 128,-1,22
 456 439 456 439 456 386 c 2,23,-1
 456 113 l 2,0,1
196 311 m 2,24,-1
 196 190 l 2,25,26
 196 156 196 156 204 136.5 c 128,-1,27
 212 117 212 117 244.5 117 c 128,-1,28
 277 117 277 117 290 150.5 c 128,-1,29
 303 184 303 184 303.5 237 c 128,-1,30
 304 290 304 290 299.5 314.5 c 128,-1,31
 295 339 295 339 279.5 360.5 c 128,-1,32
 264 382 264 382 238 382 c 128,-1,33
 212 382 212 382 204 363.5 c 128,-1,34
 196 345 196 345 196 311 c 2,24,-1
311 665 m 128,-1,36
 311 722 311 722 254 722 c 128,-1,37
 197 722 197 722 197 665 c 128,-1,38
 197 608 197 608 254 608 c 128,-1,35
 311 608 311 608 311 665 c 128,-1,36
368 665 m 0,39,40
 368 550 368 550 253.5 550 c 128,-1,41
 139 550 139 550 139 664.5 c 128,-1,42
 139 779 139 779 254 779 c 0,43,44
 312 779 312 779 340 751.5 c 128,-1,45
 368 724 368 724 368 665 c 0,39,40
EndSplineSet
EndChar

StartChar: mu
Encoding: 181 181 132
Width: 658
Flags: MW
HStem: -140 21G<121 189.5> 0 171<289 521.5> 23 148<296.5 343> 480 20G<131 191.5 446 509>
VStem: 79 162<314 389 389 417.5> 397 164<310.5 386>
LayerCount: 2
Fore
SplineSet
79 -28 m 2,0,-1
 79 389 l 2,1,2
 79 437 79 437 99 468.5 c 128,-1,3
 119 500 119 500 163 500 c 0,4,5
 241 500 241 500 241 393 c 0,6,7
 241 272 241 272 258 221.5 c 128,-1,8
 275 171 275 171 318 171 c 128,-1,9
 361 171 361 171 379 221.5 c 128,-1,10
 397 272 397 272 397 386 c 128,-1,11
 397 500 397 500 475 500 c 0,12,13
 561 500 561 500 561 386 c 2,14,-1
 561 113 l 2,15,16
 561 27.2727272727 561 27.2727272727 527.5 9 c 0,17,18
 511 0 511 0 485 0 c 0,19,20
 407 0 407 0 407 84 c 1,21,22
 400 58 400 58 376.5 40.5 c 128,-1,23
 353 23 353 23 319.5 23 c 128,-1,24
 286 23 286 23 262 40.5 c 128,-1,25
 238 58 238 58 231 84 c 1,26,-1
 231 -28 l 2,27,28
 231 -111.3125 231 -111.3125 196 -131 c 0,29,30
 180 -140 180 -140 155 -140 c 0,31,32
 109 -140 109 -140 94 -110 c 128,-1,33
 79 -80 79 -80 79 -28 c 2,0,-1
EndSplineSet
EndChar

StartChar: Eth
Encoding: 208 208 133
Width: 547
Flags: MW
HStem: 0 119<105 284 219 284 219 309> 297 122<30.5 67 49 67 219 245> 583 117<219 284 219 219>
VStem: -23 242<119 386.5> 67 152<119 297 119 297 119 297 419 583> 67 250<115 386.5 297 386.5 330 586 330 614.5> 361 143<199 208 208 494 494 518>
LayerCount: 2
Fore
SplineSet
143 700 m 2,0,-1
 288 700 l 2,1,2
 383 700 383 700 443.5 652.5 c 128,-1,3
 504 605 504 605 504 518 c 2,4,-1
 504 208 l 2,5,6
 504 150 504 150 484 107 c 128,-1,7
 464 64 464 64 435 44.5 c 0,8,9
 373.626038781 3.23130193906 373.626038781 3.23130193906 329 1 c 2,10,-1
 309 0 l 1,11,-1
 143 0 l 2,12,13
 102.666666667 0 102.666666667 0 83.5 23 c 0,14,15
 69.1578947368 40.2105263158 69.1578947368 40.2105263158 67.5 80 c 0,16,17
 67 92 67 92 67 115 c 2,18,-1
 67 297 l 1,19,-1
 49 297 l 2,20,21
 15 297 15 297 -4 308.5 c 128,-1,22
 -23 320 -23 320 -23 352.5 c 128,-1,23
 -23 385 -23 385 -11.5 399.5 c 128,-1,24
 0 414 0 414 13 416.5 c 128,-1,25
 26 419 26 419 49 419 c 2,26,-1
 67 419 l 1,27,-1
 67 586 l 2,28,29
 67 657.2 67 657.2 83.5 677 c 0,30,31
 102.666666667 700 102.666666667 700 143 700 c 2,0,-1
361 494 m 2,32,33
 361 534 361 534 341.5 556 c 128,-1,34
 322 578 322 578 303 580.5 c 2,35,-1
 284 583 l 1,36,-1
 219 583 l 1,37,-1
 219 419 l 1,38,-1
 245 419 l 2,39,40
 267 419 267 419 280 416.5 c 128,-1,41
 293 414 293 414 305 399 c 128,-1,42
 317 384 317 384 317 352.5 c 128,-1,43
 317 321 317 321 297.5 309 c 128,-1,44
 278 297 278 297 245 297 c 2,45,-1
 219 297 l 1,46,-1
 219 119 l 1,47,-1
 284 119 l 2,48,49
 331.121212121 119 331.121212121 119 352.5 160.5 c 0,50,51
 361 177 361 177 361 199 c 2,52,-1
 361 494 l 2,32,33
EndSplineSet
EndChar

StartChar: asciitilde
Encoding: 126 126 134
Width: 459
Flags: MW
HStem: 42 21G<289.5 301.5> 179 20G<164.5 181>
LayerCount: 2
Fore
SplineSet
369 93 m 1,0,1
 319 42 319 42 298.5 42 c 128,-1,2
 278 42 278 42 234.5 66 c 128,-1,3
 191 90 191 90 178 90 c 128,-1,4
 165 90 165 90 144 67.5 c 128,-1,5
 123 45 123 45 103 45 c 128,-1,6
 83 45 83 45 67 67 c 1,7,8
 56 80 56 80 56 97 c 128,-1,9
 56 114 56 114 86 143 c 1,10,-1
 123 176 l 2,11,12
 149 199 149 199 169 199 c 128,-1,13
 189 199 189 199 236 175.5 c 128,-1,14
 283 152 283 152 292.5 152 c 128,-1,15
 302 152 302 152 320 172 c 1,16,17
 340 190 340 190 357 190 c 1,18,19
 372 188 372 188 386.5 173.5 c 128,-1,20
 401 159 401 159 401 139 c 1,21,22
 399 120 399 120 369 93 c 1,0,1
EndSplineSet
EndChar

StartChar: circumflex
Encoding: 710 710 135
Width: 435
Flags: MW
HStem: 534 21G<113 127 307 321> 711 20G<212 222 222 222>
LayerCount: 2
Fore
SplineSet
260 714 m 1,0,-1
 355 624 l 2,1,2
 369 610 369 610 369 588 c 128,-1,3
 369 566 369 566 351.5 550 c 0,4,5
 334 534 334 534 309.5 534 c 0,6,7
 285 534 285 534 272 550 c 1,8,-1
 217 602 l 1,9,-1
 162 550 l 1,10,11
 149 534 149 534 124.5 534 c 0,12,13
 100 534 100 534 82.5 550 c 0,14,15
 65 566 65 566 65 588 c 128,-1,16
 65 610 65 610 79 624 c 2,17,-1
 174 714 l 2,18,19
 190 730 190 730 212 731 c 1,20,-1
 222 731 l 1,21,22
 245 730 245 730 260 714 c 1,0,-1
EndSplineSet
EndChar

StartChar: ucircumflex
Encoding: 251 251 136
Width: 542
Flags: MW
HStem: 0 117<237 245.5 237 436.5> 500 50<163 171 365.5 371> 727 20G<262 272 272 272>
VStem: 59 154<178 191 191 386> 322 154<70 113 291 386>
LayerCount: 2
Fore
SplineSet
310 730 m 2,0,-1
 405 640 l 2,1,2
 419 626 419 626 419 604 c 128,-1,3
 419 582 419 582 401.5 566 c 128,-1,4
 384 550 384 550 359.5 550 c 128,-1,5
 335 550 335 550 322 566 c 1,6,-1
 267 618 l 1,7,-1
 212 566 l 1,8,9
 199 550 199 550 174.5 550 c 128,-1,10
 150 550 150 550 132.5 566 c 128,-1,11
 115 582 115 582 115 604 c 128,-1,12
 115 626 115 626 129 640 c 2,13,-1
 224 730 l 2,14,15
 240 746 240 746 262 747 c 1,16,-1
 272 747 l 1,17,18
 294 746 294 746 310 730 c 2,0,-1
59 178 m 2,19,-1
 59 386 l 2,20,21
 59 468.53125 59 468.53125 96 490.5 c 0,22,23
 112 500 112 500 137 500 c 0,24,25
 183 500 183 500 198 469.5 c 128,-1,26
 213 439 213 439 213 386 c 2,27,-1
 213 191 l 2,28,29
 213 156 213 156 221.5 136.5 c 128,-1,30
 230 117 230 117 257 117 c 0,31,32
 294 117 294 117 308 162.5 c 128,-1,33
 322 208 322 208 322 291 c 2,34,-1
 322 386 l 2,35,36
 322 468.53125 322 468.53125 359 490.5 c 0,37,38
 375 500 375 500 400 500 c 0,39,40
 446 500 446 500 461 469.5 c 128,-1,41
 476 439 476 439 476 386 c 2,42,-1
 476 113 l 2,43,44
 476 27.2727272727 476 27.2727272727 442.5 9 c 0,45,46
 426 0 426 0 400 0 c 0,47,48
 322 0 322 0 322 84 c 1,49,50
 312 50 312 50 285 25 c 128,-1,51
 258 0 258 0 213 0 c 0,52,53
 150 0 150 0 104.5 43 c 128,-1,54
 59 86 59 86 59 178 c 2,19,-1
EndSplineSet
EndChar

StartChar: ocircumflex
Encoding: 244 244 137
Width: 500
Flags: MW
HStem: 0 102<228 274.5> 389 111<228 274.5 228 279> 500 50 727 20G<246 256 256 256>
VStem: 39 154<188 312 312 334> 307 149<153 188 188 312 96 334 96 334>
LayerCount: 2
Fore
SplineSet
294 730 m 2,0,-1
 389 640 l 2,1,2
 403 626 403 626 403 604 c 128,-1,3
 403 582 403 582 385.5 566 c 128,-1,4
 368 550 368 550 343.5 550 c 128,-1,5
 319 550 319 550 306 566 c 1,6,-1
 251 618 l 1,7,-1
 196 566 l 1,8,9
 183 550 183 550 158.5 550 c 128,-1,10
 134 550 134 550 116.5 566 c 128,-1,11
 99 582 99 582 99 604 c 128,-1,12
 99 626 99 626 113 640 c 2,13,-1
 208 730 l 2,14,15
 224 746 224 746 246 747 c 1,16,-1
 256 747 l 1,17,18
 278 746 278 746 294 730 c 2,0,-1
39 312 m 2,19,20
 39 364 39 364 57.5 402 c 128,-1,21
 76 440 76 440 99.5 458 c 128,-1,22
 123 476 123 476 157.5 486.5 c 128,-1,23
 192 497 192 497 210.5 498.5 c 128,-1,24
 229 500 229 500 247 500 c 128,-1,25
 265 500 265 500 277.5 499.5 c 128,-1,26
 290 499 290 499 312 495 c 128,-1,27
 334 491 334 491 351.5 484 c 128,-1,28
 369 477 369 477 389.5 463 c 128,-1,29
 410 449 410 449 424 430 c 0,30,31
 456 386.571428571 456 386.571428571 456 312 c 2,32,-1
 456 188 l 2,33,34
 456 57.8 456 57.8 351.5 16 c 0,35,36
 316.666666667 2.06666666667 316.666666667 2.06666666667 290.833333333 1.03333333333 c 128,-1,37
 265 0 265 0 247 0 c 128,-1,38
 229 0 229 0 210.5 1.5 c 128,-1,39
 192 3 192 3 157.5 13.5 c 128,-1,40
 123 24 123 24 99.5 42 c 128,-1,41
 76 60 76 60 57.5 98 c 128,-1,42
 39 136 39 136 39 188 c 2,43,-1
 39 312 l 2,19,20
193 153 m 2,44,45
 193 147 193 147 194.5 138.5 c 128,-1,46
 196 130 196 130 210.5 116 c 128,-1,47
 225 102 225 102 250.5 102 c 128,-1,48
 276 102 276 102 290 115 c 128,-1,49
 304 128 304 128 305.5 140.5 c 2,50,-1
 307 153 l 1,51,-1
 307 334 l 2,52,53
 307 368.130434783 307 368.130434783 278.5 383 c 0,54,55
 267 389 267 389 246 389 c 128,-1,56
 225 389 225 389 210.5 375.5 c 128,-1,57
 196 362 196 362 194.5 348 c 2,58,-1
 193 334 l 1,59,-1
 193 153 l 2,44,45
EndSplineSet
EndChar

StartChar: icircumflex
Encoding: 238 238 138
Width: 323
Flags: MW
HStem: 0 21G<128 196> 500 50 727 20G<156 166 166 166>
VStem: 86 152<112 388>
LayerCount: 2
Fore
SplineSet
86 112 m 2,0,-1
 86 388 l 2,1,2
 86 440 86 440 101 470 c 128,-1,3
 116 500 116 500 162 500 c 128,-1,4
 208 500 208 500 223 470 c 128,-1,5
 238 440 238 440 238 388 c 2,6,-1
 238 112 l 2,7,8
 238 60 238 60 223 30 c 128,-1,9
 208 0 208 0 162 0 c 128,-1,10
 116 0 116 0 101 30 c 128,-1,11
 86 60 86 60 86 112 c 2,0,-1
204 730 m 2,12,-1
 299 640 l 2,13,14
 313 626 313 626 313 604 c 128,-1,15
 313 582 313 582 295.5 566 c 0,16,17
 278 550 278 550 253.5 550 c 0,18,19
 229 550 229 550 216 566 c 1,20,-1
 161 618 l 1,21,-1
 106 566 l 1,22,23
 93 550 93 550 68.5 550 c 0,24,25
 44 550 44 550 26.5 566 c 0,26,27
 9 582 9 582 9 604 c 128,-1,28
 9 626 9 626 23 640 c 2,29,-1
 118 730 l 2,30,31
 134 746 134 746 156 747 c 1,32,-1
 166 747 l 1,33,34
 188 746 188 746 204 730 c 2,12,-1
EndSplineSet
EndChar

StartChar: acircumflex
Encoding: 226 226 139
Width: 510
Flags: MW
HStem: 0 117<219.5 228.5 219.5 417> 382 118<219.5 414.5> 500 50<363 371> 727 20G<262 272 272 272>
VStem: 42 154<177 190 190 311 172 322 172 388.5> 304 152<70.5 113 265 286>
LayerCount: 2
Fore
SplineSet
456 113 m 2,0,1
 456 27.5625 456 27.5625 423 9 c 0,2,3
 407 0 407 0 381 0 c 0,4,5
 304 0 304 0 304 84 c 1,6,7
 278 0 278 0 196 0 c 0,8,9
 133 0 133 0 87.5 43 c 128,-1,10
 42 86 42 86 42 177 c 2,11,-1
 42 322 l 2,12,13
 42 414 42 414 87.5 456.5 c 128,-1,14
 133 499 133 499 196 499 c 0,15,16
 241 499 241 499 267 474.5 c 128,-1,17
 293 450 293 450 304 415 c 1,18,19
 304 461 304 461 326.5 480.5 c 128,-1,20
 349 500 349 500 387.5 500 c 128,-1,21
 426 500 426 500 441 469.5 c 128,-1,22
 456 439 456 439 456 386 c 2,23,-1
 456 113 l 2,0,1
196 311 m 2,24,-1
 196 190 l 2,25,26
 196 156 196 156 204 136.5 c 128,-1,27
 212 117 212 117 244.5 117 c 128,-1,28
 277 117 277 117 290 150.5 c 128,-1,29
 303 184 303 184 303.5 237 c 128,-1,30
 304 290 304 290 299.5 314.5 c 128,-1,31
 295 339 295 339 279.5 360.5 c 128,-1,32
 264 382 264 382 238 382 c 128,-1,33
 212 382 212 382 204 363.5 c 128,-1,34
 196 345 196 345 196 311 c 2,24,-1
310 730 m 2,35,-1
 405 640 l 2,36,37
 419 626 419 626 419 604 c 128,-1,38
 419 582 419 582 401.5 566 c 128,-1,39
 384 550 384 550 359.5 550 c 128,-1,40
 335 550 335 550 322 566 c 1,41,-1
 267 618 l 1,42,-1
 212 566 l 1,43,44
 199 550 199 550 174.5 550 c 128,-1,45
 150 550 150 550 132.5 566 c 128,-1,46
 115 582 115 582 115 604 c 128,-1,47
 115 626 115 626 129 640 c 2,48,-1
 224 730 l 2,49,50
 240 746 240 746 262 747 c 1,51,-1
 272 747 l 1,52,53
 294 746 294 746 310 730 c 2,35,-1
EndSplineSet
EndChar

StartChar: ecircumflex
Encoding: 234 234 140
Width: 510
Flags: MW
HStem: 0 100<254 296> 163 59<344 397 198 412.5> 297 98<230 289.5 230 323 230 323> 501 49 727 20G<247 257 257 257>
VStem: 46 152<187 222 158 297 297 304 304 332> 323 138
LayerCount: 2
Fore
SplineSet
295 730 m 1,0,-1
 390 640 l 2,1,2
 404 626 404 626 404 604 c 128,-1,3
 404 582 404 582 386.5 566 c 128,-1,4
 369 550 369 550 344.5 550 c 128,-1,5
 320 550 320 550 307 566 c 1,6,-1
 252 618 l 1,7,-1
 197 566 l 1,8,9
 184 550 184 550 159.5 550 c 128,-1,10
 135 550 135 550 117.5 566 c 128,-1,11
 100 582 100 582 100 604 c 128,-1,12
 100 626 100 626 114 640 c 2,13,-1
 209 730 l 2,14,15
 225 746 225 746 247 747 c 1,16,-1
 257 747 l 1,17,18
 280 746 280 746 295 730 c 1,0,-1
468 316 m 2,19,-1
 468 285 l 2,20,21
 468 239.25 468 239.25 438 228 c 0,22,23
 422 222 422 222 397 222 c 2,24,-1
 198 222 l 1,25,-1
 198 174 l 2,26,27
 198 145 198 145 213 122.5 c 128,-1,28
 228 100 228 100 255 100 c 128,-1,29
 282 100 282 100 294.5 106.5 c 128,-1,30
 307 113 307 113 313 122.5 c 128,-1,31
 319 132 319 132 326 141 c 0,32,33
 343.111111111 163 343.111111111 163 396 163 c 0,34,35
 461 163 461 163 461 113 c 0,36,37
 461 82 461 82 441 59 c 128,-1,38
 421 36 421 36 388.5 23.5 c 0,39,40
 327.4 1.24344978758e-14 327.4 1.24344978758e-14 245.2 0.5 c 128,-1,41
 163 1 163 1 104.5 46 c 128,-1,42
 46 91 46 91 46 187 c 2,43,-1
 46 304 l 2,44,45
 46 501 46 501 252 501 c 0,46,47
 310 501 310 501 352 488 c 128,-1,48
 394 475 394 475 416 457 c 128,-1,49
 438 439 438 439 450.5 411.5 c 128,-1,50
 463 384 463 384 465.5 363.5 c 128,-1,51
 468 343 468 343 468 316 c 2,19,-1
198 332 m 2,52,-1
 198 297 l 1,53,-1
 323 297 l 1,54,55
 323 345.818181818 323 345.818181818 316 364.909090909 c 128,-1,56
 309 384 309 384 295 389.5 c 128,-1,57
 281 395 281 395 257 395 c 0,58,59
 198 395 198 395 198 332 c 2,52,-1
EndSplineSet
EndChar

StartChar: Ccaron
Encoding: 268 268 141
Width: 555
Flags: MW
HStem: -3 118<250.5 309.5 245.5 344> 574 130<278 309.5> 926 20G<178 192 372 386>
VStem: 45 168<205 484 484 509 192 594> 355 168<202.5 233.5 157 244 461 494>
LayerCount: 2
Fore
SplineSet
420 856 m 2,0,-1
 325 766 l 1,1,2
 310 750 310 750 287 749 c 1,3,-1
 277 749 l 1,4,5
 255 750 255 750 239 766 c 2,6,-1
 144 856 l 2,7,8
 130 870 130 870 130 892 c 128,-1,9
 130 914 130 914 147.5 930 c 128,-1,10
 165 946 165 946 189.5 946 c 128,-1,11
 214 946 214 946 227 930 c 1,12,-1
 282 878 l 1,13,-1
 337 930 l 1,14,15
 350 946 350 946 374.5 946 c 128,-1,16
 399 946 399 946 416.5 930 c 128,-1,17
 434 914 434 914 434 892 c 128,-1,18
 434 870 434 870 420 856 c 2,0,-1
278 574 m 0,19,20
 249 574 249 574 233 558 c 128,-1,21
 217 542 217 542 215 525.5 c 2,22,-1
 213 509 l 1,23,-1
 213 192 l 2,24,25
 213 144.592592593 213 144.592592593 246.5 123.5 c 0,26,27
 260 115 260 115 278 115 c 0,28,29
 355 115 355 115 355 234 c 0,30,31
 355 280 355 280 443 280 c 0,32,33
 501.882352941 280 501.882352941 280 517.5 250.5 c 0,34,35
 523 240.111111111 523 240.111111111 523 230 c 0,36,37
 523 122 523 122 453 59.5 c 128,-1,38
 383 -3 383 -3 269 -3 c 0,39,40
 223 -3 223 -3 181 11 c 128,-1,41
 139 25 139 25 112.5 45 c 128,-1,42
 86 65 86 65 65.5 107 c 128,-1,43
 45 149 45 149 45 205 c 2,44,-1
 45 484 l 2,45,46
 45 546 45 546 69 591 c 128,-1,47
 93 636 93 636 127.5 657 c 0,48,49
 196.328358209 698.895522388 196.328358209 698.895522388 254 702.5 c 2,50,-1
 278 704 l 1,51,52
 341 704 341 704 388 686 c 128,-1,53
 435 668 435 668 460 642.5 c 128,-1,54
 485 617 485 617 500 582.5 c 0,55,56
 523 529.6 523 529.6 523 471 c 0,57,58
 523 426.777777778 523 426.777777778 489 414.5 c 0,59,60
 471 408 471 408 443 408 c 0,61,62
 355 408 355 408 355 458 c 0,63,64
 355 517 355 517 338.5 545.5 c 128,-1,65
 322 574 322 574 278 574 c 0,19,20
EndSplineSet
EndChar

StartChar: caron
Encoding: 711 711 142
Width: 451
Flags: MW
HStem: 531 21G<213 223 213 213> 708 20G<114 128 308 322>
LayerCount: 2
Fore
SplineSet
356 638 m 2,0,-1
 261 548 l 1,1,2
 246 532 246 532 223 531 c 1,3,-1
 213 531 l 1,4,5
 191 532 191 532 175 548 c 2,6,-1
 80 638 l 2,7,8
 66 652 66 652 66 674 c 128,-1,9
 66 696 66 696 83.5 712 c 0,10,11
 101 728 101 728 125.5 728 c 0,12,13
 150 728 150 728 163 712 c 1,14,-1
 218 660 l 1,15,-1
 273 712 l 1,16,17
 286 728 286 728 310.5 728 c 0,18,19
 335 728 335 728 352.5 712 c 0,20,21
 370 696 370 696 370 674 c 128,-1,22
 370 652 370 652 356 638 c 2,0,-1
EndSplineSet
EndChar

StartChar: ccaron
Encoding: 269 269 143
Width: 500
Flags: MW
HStem: 0 100<223.5 277.5 223.5 294> 0 211<195.5 429.5> 277 223<218.5 428.5> 386 114<223.5 277.5> 727 20G<144 158 338 352>
VStem: 42 152<186 303 303 328> 309 156<96 340>
LayerCount: 2
Fore
SplineSet
248 386 m 0,0,1
 194 386 194 386 194 328 c 2,2,-1
 194 173 l 2,3,4
 194 100 194 100 248 100 c 0,5,6
 276 100 276 100 290 109.5 c 128,-1,7
 304 119 304 119 307 131 c 128,-1,8
 310 143 310 143 310 164 c 0,9,10
 310 211 310 211 394 211 c 0,11,12
 444.95 211 444.95 211 456.5 190 c 0,13,14
 465 174.545454545 465 174.545454545 465 160 c 0,15,16
 465 114 465 114 444.5 81 c 128,-1,17
 424 48 424 48 390 31.5 c 0,18,19
 325.090909091 -1.24344978758e-14 325.090909091 -1.24344978758e-14 243.045454545 -6.2172489379e-15 c 128,-1,20
 161 0 161 0 101.5 46.5 c 128,-1,21
 42 93 42 93 42 186 c 2,22,-1
 42 303 l 2,23,24
 42 500 42 500 248 500 c 0,25,26
 311 500 311 500 356 484.5 c 128,-1,27
 401 469 401 469 423 443 c 0,28,29
 464 394.545454545 464 394.545454545 464 340 c 0,30,31
 464 294.25 464 294.25 434 283 c 0,32,33
 418 277 418 277 393 277 c 0,34,35
 309 277 309 277 309 324 c 0,36,37
 309 372.153846154 309 372.153846154 282 381.5 c 0,38,39
 269 386 269 386 248 386 c 0,0,1
386 657 m 2,40,-1
 291 567 l 2,41,42
 276 552 276 552 253 550 c 1,43,-1
 243 550 l 1,44,45
 221 551 221 551 205 567 c 2,46,-1
 110 657 l 2,47,48
 96 671 96 671 96 693 c 128,-1,49
 96 715 96 715 113.5 731 c 128,-1,50
 131 747 131 747 155.5 747 c 128,-1,51
 180 747 180 747 193 731 c 1,52,-1
 248 679 l 1,53,-1
 303 731 l 1,54,55
 316 747 316 747 340.5 747 c 128,-1,56
 365 747 365 747 382.5 731 c 128,-1,57
 400 715 400 715 400 693 c 128,-1,58
 400 671 400 671 386 657 c 2,40,-1
EndSplineSet
EndChar

StartChar: degree
Encoding: 176 176 144
Width: 416
Flags: MW
HStem: 410 85<189 224.5 189 251.5> 608 84<189 225>
VStem: 64 86<533 571 533 600.5> 262 85<533 571>
LayerCount: 2
Fore
SplineSet
207 495 m 0,0,1
 262 495 262 495 262 551.5 c 128,-1,2
 262 608 262 608 207 608 c 0,3,4
 150 608 150 608 150 551.5 c 128,-1,5
 150 495 150 495 207 495 c 0,0,1
347 552 m 0,6,7
 347 410 347 410 207 410 c 0,8,9
 64 410 64 410 64 552 c 0,10,11
 64 692 64 692 207 692 c 0,12,13
 279 692 279 692 313 658 c 128,-1,14
 347 624 347 624 347 552 c 0,6,7
EndSplineSet
EndChar

StartChar: otilde
Encoding: 245 245 145
Width: 500
Flags: MW
HStem: 0 102<228 274.5> 389 111<228 274.5 228 279> 596 111<190 198 181.5 203>
VStem: 39 154<188 312 312 334> 307 149<153 188 188 312 96 334 96 334>
LayerCount: 2
Fore
SplineSet
228 587 m 0,0,1
 213 596 213 596 194.5 596 c 128,-1,2
 176 596 176 596 157 572 c 1,3,4
 140 553 140 553 120 553 c 128,-1,5
 100 553 100 553 84 575 c 1,6,7
 73 588 73 588 73 605 c 128,-1,8
 73 622 73 622 103 651 c 1,9,-1
 140 684 l 2,10,11
 166 707 166 707 186 707 c 128,-1,12
 206 707 206 707 253 683.5 c 128,-1,13
 300 660 300 660 309.5 660 c 128,-1,14
 319 660 319 660 337 680 c 1,15,16
 357 698 357 698 374 698 c 1,17,18
 389 696 389 696 403.5 681.5 c 128,-1,19
 418 667 418 667 418 647 c 1,20,21
 416 628 416 628 386 601 c 1,22,23
 336 550 336 550 315.5 550 c 128,-1,24
 295 550 295 550 228 587 c 0,0,1
39 312 m 2,25,26
 39 364 39 364 57.5 402 c 128,-1,27
 76 440 76 440 99.5 458 c 128,-1,28
 123 476 123 476 157.5 486.5 c 128,-1,29
 192 497 192 497 210.5 498.5 c 128,-1,30
 229 500 229 500 247 500 c 128,-1,31
 265 500 265 500 277.5 499.5 c 128,-1,32
 290 499 290 499 312 495 c 128,-1,33
 334 491 334 491 351.5 484 c 128,-1,34
 369 477 369 477 389.5 463 c 128,-1,35
 410 449 410 449 424 430 c 0,36,37
 456 386.571428571 456 386.571428571 456 312 c 2,38,-1
 456 188 l 2,39,40
 456 57.8 456 57.8 351.5 16 c 0,41,42
 316.666666667 2.06666666667 316.666666667 2.06666666667 290.833333333 1.03333333333 c 128,-1,43
 265 0 265 0 247 0 c 128,-1,44
 229 0 229 0 210.5 1.5 c 128,-1,45
 192 3 192 3 157.5 13.5 c 128,-1,46
 123 24 123 24 99.5 42 c 128,-1,47
 76 60 76 60 57.5 98 c 128,-1,48
 39 136 39 136 39 188 c 2,49,-1
 39 312 l 2,25,26
193 153 m 2,50,51
 193 147 193 147 194.5 138.5 c 128,-1,52
 196 130 196 130 210.5 116 c 128,-1,53
 225 102 225 102 250.5 102 c 128,-1,54
 276 102 276 102 290 115 c 128,-1,55
 304 128 304 128 305.5 140.5 c 2,56,-1
 307 153 l 1,57,-1
 307 334 l 2,58,59
 307 368.130434783 307 368.130434783 278.5 383 c 0,60,61
 267 389 267 389 246 389 c 128,-1,62
 225 389 225 389 210.5 375.5 c 128,-1,63
 196 362 196 362 194.5 348 c 2,64,-1
 193 334 l 1,65,-1
 193 153 l 2,50,51
EndSplineSet
EndChar

StartChar: Atilde
Encoding: 195 195 146
Width: 552
Flags: MW
HStem: 0 21G<71.5 140.5 411.5 480> 170 132<197 356 197 376 176 356> 680 20G<251 301 301 338> 887 20G<208.5 225>
VStem: 40 136 376 139<100 115 75 170 75 170>
LayerCount: 2
Fore
SplineSet
413 801 m 1,0,1
 363 750 363 750 342.5 750 c 128,-1,2
 322 750 322 750 278.5 774 c 128,-1,3
 235 798 235 798 222 798 c 128,-1,4
 209 798 209 798 188 775.5 c 128,-1,5
 167 753 167 753 147 753 c 128,-1,6
 127 753 127 753 111 775 c 1,7,8
 100 788 100 788 100 805 c 128,-1,9
 100 822 100 822 130 851 c 1,10,-1
 167 884 l 2,11,12
 193 907 193 907 213 907 c 128,-1,13
 233 907 233 907 280 883.5 c 128,-1,14
 327 860 327 860 336.5 860 c 128,-1,15
 346 860 346 860 364 880 c 1,16,17
 384 898 384 898 401 898 c 1,18,19
 416 896 416 896 430.5 881.5 c 128,-1,20
 445 867 445 867 445 847 c 1,21,22
 443 828 443 828 413 801 c 1,0,1
271 570 m 1,23,-1
 197 302 l 1,24,-1
 356 302 l 1,25,-1
 282 570 l 1,26,-1
 271 570 l 1,23,-1
511 253 m 1,27,-1
 515 115 l 1,28,-1
 515 100 l 2,29,30
 515 37.1428571429 515 37.1428571429 500 20 c 0,31,32
 482.5 6.57252030578e-14 482.5 6.57252030578e-14 454.25 3.28626015289e-14 c 128,-1,33
 426 0 426 0 412.5 6 c 128,-1,34
 399 12 399 12 391.5 20 c 128,-1,35
 384 28 384 28 380.5 43.5 c 0,36,37
 376 63.4285714286 376 63.4285714286 376 100 c 2,38,-1
 376 170 l 1,39,-1
 176 170 l 1,40,-1
 176 100 l 2,41,42
 176 36.5333333333 176 36.5333333333 160.5 20 c 0,43,44
 141.75 0 141.75 0 113.875 0 c 128,-1,45
 86 0 86 0 72.5 6 c 128,-1,46
 59 12 59 12 52 20 c 128,-1,47
 45 28 45 28 41.5 44 c 0,48,49
 37 64.5714285714 37 64.5714285714 37 100 c 2,50,-1
 37 115 l 2,51,52
 37 127 37 127 40 253 c 1,53,54
 56 308 56 308 92 427 c 128,-1,55
 128 546 128 546 143 599 c 128,-1,56
 158 652 158 652 179.5 676 c 128,-1,57
 201 700 201 700 251 700 c 2,58,-1
 301 700 l 2,59,60
 351 700 351 700 372.5 676 c 128,-1,61
 394 652 394 652 407 606 c 2,62,-1
 511 253 l 1,27,-1
EndSplineSet
EndChar

StartChar: Adieresis
Encoding: 196 196 147
Width: 552
Flags: MW
HStem: 0 21G<71.5 140.5 411.5 480> 170 132<197 356 197 376 176 356> 680 20G<251 301 301 338> 750 152<147 195 355 403>
VStem: 40 136 95 152<800.5 852.5> 303 152<800.5 852.5> 376 139<100 115 75 170 75 170>
LayerCount: 2
Fore
SplineSet
271 570 m 1,0,-1
 197 302 l 1,1,-1
 356 302 l 1,2,-1
 282 570 l 1,3,-1
 271 570 l 1,0,-1
511 253 m 1,4,-1
 515 115 l 1,5,-1
 515 100 l 2,6,7
 515 37.1428571429 515 37.1428571429 500 20 c 0,8,9
 482.5 6.57252030578e-14 482.5 6.57252030578e-14 454.25 3.28626015289e-14 c 128,-1,10
 426 0 426 0 412.5 6 c 128,-1,11
 399 12 399 12 391.5 20 c 128,-1,12
 384 28 384 28 380.5 43.5 c 0,13,14
 376 63.4285714286 376 63.4285714286 376 100 c 2,15,-1
 376 170 l 1,16,-1
 176 170 l 1,17,-1
 176 100 l 2,18,19
 176 36.5333333333 176 36.5333333333 160.5 20 c 0,20,21
 141.75 0 141.75 0 113.875 0 c 128,-1,22
 86 0 86 0 72.5 6 c 128,-1,23
 59 12 59 12 52 20 c 128,-1,24
 45 28 45 28 41.5 44 c 0,25,26
 37 64.5714285714 37 64.5714285714 37 100 c 2,27,-1
 37 115 l 2,28,29
 37 127 37 127 40 253 c 1,30,31
 56 308 56 308 92 427 c 128,-1,32
 128 546 128 546 143 599 c 128,-1,33
 158 652 158 652 179.5 676 c 128,-1,34
 201 700 201 700 251 700 c 2,35,-1
 301 700 l 2,36,37
 351 700 351 700 372.5 676 c 128,-1,38
 394 652 394 652 407 606 c 2,39,-1
 511 253 l 1,4,-1
247 826 m 128,-1,41
 247 750 247 750 171 750 c 128,-1,42
 95 750 95 750 95 826 c 128,-1,43
 95 902 95 902 171 902 c 128,-1,40
 247 902 247 902 247 826 c 128,-1,41
455 826 m 128,-1,45
 455 750 455 750 379 750 c 128,-1,46
 303 750 303 750 303 826 c 128,-1,47
 303 902 303 902 379 902 c 128,-1,44
 455 902 455 902 455 826 c 128,-1,45
EndSplineSet
EndChar

StartChar: tilde
Encoding: 732 732 148
Width: 462
Flags: MW
HStem: 551 21G<286.5 298.5> 688 20G<161.5 178>
LayerCount: 2
Fore
SplineSet
366 602 m 1,0,1
 316 551 316 551 295.5 551 c 128,-1,2
 275 551 275 551 231.5 575 c 128,-1,3
 188 599 188 599 175 599 c 128,-1,4
 162 599 162 599 141 576.5 c 128,-1,5
 120 554 120 554 100 554 c 128,-1,6
 80 554 80 554 64 576 c 1,7,8
 53 589 53 589 53 606 c 128,-1,9
 53 623 53 623 83 652 c 1,10,-1
 120 685 l 2,11,12
 146 708 146 708 166 708 c 128,-1,13
 186 708 186 708 233 684.5 c 128,-1,14
 280 661 280 661 289.5 661 c 128,-1,15
 299 661 299 661 317 681 c 1,16,17
 337 699 337 699 354 699 c 1,18,19
 369 697 369 697 383.5 682.5 c 128,-1,20
 398 668 398 668 398 648 c 1,21,22
 396 629 396 629 366 602 c 1,0,1
EndSplineSet
EndChar

StartChar: Otilde
Encoding: 213 213 149
Width: 562
Flags: MW
HStem: -4 123<256.5 275 275 292> 575 129<275 292 292 311 275 316> 887 20G<208.5 225>
VStem: 52 166<203 502 502 510> 349 164<184 203 203 502>
LayerCount: 2
Fore
SplineSet
413 801 m 1,0,1
 363 750 363 750 342.5 750 c 128,-1,2
 322 750 322 750 278.5 774 c 128,-1,3
 235 798 235 798 222 798 c 128,-1,4
 209 798 209 798 188 775.5 c 128,-1,5
 167 753 167 753 147 753 c 128,-1,6
 127 753 127 753 111 775 c 1,7,8
 100 788 100 788 100 805 c 128,-1,9
 100 822 100 822 130 851 c 1,10,-1
 167 884 l 2,11,12
 193 907 193 907 213 907 c 128,-1,13
 233 907 233 907 280 883.5 c 128,-1,14
 327 860 327 860 336.5 860 c 128,-1,15
 346 860 346 860 364 880 c 1,16,17
 384 898 384 898 401 898 c 1,18,19
 416 896 416 896 430.5 881.5 c 128,-1,20
 445 867 445 867 445 847 c 1,21,22
 443 828 443 828 413 801 c 1,0,1
52 502 m 2,23,24
 52 556 52 556 72.5 596.5 c 128,-1,25
 93 637 93 637 119.5 657 c 128,-1,26
 146 677 146 677 181.5 688.5 c 0,27,28
 229.347826087 704 229.347826087 704 275 704 c 2,29,-1
 292 704 l 2,30,31
 317.636363636 704 317.636363636 704 355.818181818 696.5 c 128,-1,32
 394 689 394 689 417.5 675 c 128,-1,33
 441 661 441 661 463.5 640.5 c 0,34,35
 513 595.4 513 595.4 513 502 c 2,36,-1
 513 203 l 2,37,38
 513 107.2 513 107.2 463.5 61 c 128,-1,39
 414.17447496 14.9628432956 414.17447496 14.9628432956 366 5.5 c 128,-1,40
 317.636363636 -4 317.636363636 -4 292 -4 c 2,41,-1
 275 -4 l 2,42,43
 228.833333333 -4 228.833333333 -4 187.416666667 10 c 128,-1,44
 146 24 146 24 119.5 44 c 128,-1,45
 93 64 93 64 72.5 105.5 c 128,-1,46
 52 147 52 147 52 203 c 2,47,-1
 52 502 l 2,23,24
218 184 m 2,48,49
 218 143.888888889 218 143.888888889 252.5 126 c 0,50,51
 266 119 266 119 289 119 c 128,-1,52
 312 119 312 119 328.5 135.5 c 128,-1,53
 345 152 345 152 347 168 c 2,54,-1
 349 184 l 1,55,-1
 349 510 l 2,56,57
 349 550.62962963 349 550.62962963 315.5 568 c 0,58,59
 302 575 302 575 278.5 575 c 128,-1,60
 255 575 255 575 238.5 558.5 c 128,-1,61
 222 542 222 542 220 526 c 2,62,-1
 218 510 l 1,63,-1
 218 184 l 2,48,49
EndSplineSet
EndChar

StartChar: atilde
Encoding: 227 227 150
Width: 510
Flags: MW
HStem: 0 117<219.5 228.5 219.5 417> 382 118<219.5 414.5> 687 20G<189.5 206>
VStem: 42 154<177 190 190 311 172 322 172 388.5> 304 152<70.5 113 265 286>
LayerCount: 2
Fore
SplineSet
456 113 m 2,0,1
 456 27.5625 456 27.5625 423 9 c 0,2,3
 407 0 407 0 381 0 c 0,4,5
 304 0 304 0 304 84 c 1,6,7
 278 0 278 0 196 0 c 0,8,9
 133 0 133 0 87.5 43 c 128,-1,10
 42 86 42 86 42 177 c 2,11,-1
 42 322 l 2,12,13
 42 414 42 414 87.5 456.5 c 128,-1,14
 133 499 133 499 196 499 c 0,15,16
 241 499 241 499 267 474.5 c 128,-1,17
 293 450 293 450 304 415 c 1,18,19
 304 461 304 461 326.5 480.5 c 128,-1,20
 349 500 349 500 387.5 500 c 128,-1,21
 426 500 426 500 441 469.5 c 128,-1,22
 456 439 456 439 456 386 c 2,23,-1
 456 113 l 2,0,1
196 311 m 2,24,-1
 196 190 l 2,25,26
 196 156 196 156 204 136.5 c 128,-1,27
 212 117 212 117 244.5 117 c 128,-1,28
 277 117 277 117 290 150.5 c 128,-1,29
 303 184 303 184 303.5 237 c 128,-1,30
 304 290 304 290 299.5 314.5 c 128,-1,31
 295 339 295 339 279.5 360.5 c 128,-1,32
 264 382 264 382 238 382 c 128,-1,33
 212 382 212 382 204 363.5 c 128,-1,34
 196 345 196 345 196 311 c 2,24,-1
394 601 m 1,35,36
 344 550 344 550 323.5 550 c 128,-1,37
 303 550 303 550 259.5 574 c 128,-1,38
 216 598 216 598 203 598 c 128,-1,39
 190 598 190 598 169 575.5 c 128,-1,40
 148 553 148 553 128 553 c 128,-1,41
 108 553 108 553 92 575 c 1,42,43
 81 588 81 588 81 605 c 128,-1,44
 81 622 81 622 111 651 c 1,45,-1
 148 684 l 2,46,47
 174 707 174 707 194 707 c 128,-1,48
 214 707 214 707 261 683.5 c 128,-1,49
 308 660 308 660 317.5 660 c 128,-1,50
 327 660 327 660 345 680 c 1,51,52
 365 698 365 698 382 698 c 1,53,54
 397 696 397 696 411.5 681.5 c 128,-1,55
 426 667 426 667 426 647 c 1,56,57
 424 628 424 628 394 601 c 1,35,36
EndSplineSet
EndChar

StartChar: Ntilde
Encoding: 209 209 151
Width: 680
Flags: MW
HStem: 0 21G<114.5 179.5 440 471 471 537> 680 20G<149 215 215 248 506.5 571> 888 20G<298.5 315>
VStem: 74 142<78 493> 470 141<207 622>
LayerCount: 2
Fore
SplineSet
470 622 m 2,0,1
 470 661 470 661 482.5 680.5 c 128,-1,2
 495 700 495 700 539 700 c 128,-1,3
 583 700 583 700 597 680.5 c 128,-1,4
 611 661 611 661 611 622 c 2,5,-1
 611 115 l 2,6,7
 611 43.5714285714 611 43.5714285714 595 23 c 0,8,9
 577.111111111 -3.37507799486e-14 577.111111111 -3.37507799486e-14 537 0 c 2,10,-1
 471 0 l 2,11,12
 417.210526316 0 417.210526316 0 389.5 58.5 c 0,13,14
 385 68 385 68 379 84 c 2,15,-1
 232 493 l 1,16,-1
 216 493 l 1,17,-1
 216 78 l 2,18,19
 216 39 216 39 203.5 19.5 c 128,-1,20
 191 0 191 0 146.5 0 c 128,-1,21
 102 0 102 0 88 19.5 c 128,-1,22
 74 39 74 39 74 78 c 2,23,-1
 74 585 l 2,24,25
 74 657.2 74 657.2 90.5 677 c 0,26,27
 109.666666667 700 109.666666667 700 149 700 c 2,28,-1
 215 700 l 2,29,30
 244 700 244 700 265 684.5 c 128,-1,31
 286 669 286 669 292.5 653.5 c 2,32,-1
 454 207 l 1,33,-1
 470 207 l 1,34,-1
 470 622 l 2,0,1
503 802 m 1,35,36
 453 751 453 751 432.5 751 c 128,-1,37
 412 751 412 751 368.5 775 c 128,-1,38
 325 799 325 799 312 799 c 128,-1,39
 299 799 299 799 278 776.5 c 128,-1,40
 257 754 257 754 237 754 c 128,-1,41
 217 754 217 754 201 776 c 1,42,43
 190 789 190 789 190 806 c 128,-1,44
 190 823 190 823 220 852 c 1,45,-1
 257 885 l 2,46,47
 283 908 283 908 303 908 c 128,-1,48
 323 908 323 908 370 884.5 c 128,-1,49
 417 861 417 861 426.5 861 c 128,-1,50
 436 861 436 861 454 881 c 1,51,52
 474 899 474 899 491 899 c 1,53,54
 506 897 506 897 520.5 882.5 c 128,-1,55
 535 868 535 868 535 848 c 1,56,57
 533 829 533 829 503 802 c 1,35,36
EndSplineSet
EndChar

StartChar: ntilde
Encoding: 241 241 152
Width: 541
Flags: MW
HStem: 0 21G<108 176.5 371 439.5> 383 117<296.5 305> 687 20G<199.5 216>
VStem: 66 154<114 209 85.5 387> 329 154<114 309 309 322>
LayerCount: 2
Fore
SplineSet
404 601 m 1,0,1
 354 550 354 550 333.5 550 c 128,-1,2
 313 550 313 550 269.5 574 c 128,-1,3
 226 598 226 598 213 598 c 128,-1,4
 200 598 200 598 179 575.5 c 128,-1,5
 158 553 158 553 138 553 c 128,-1,6
 118 553 118 553 102 575 c 1,7,8
 91 588 91 588 91 605 c 128,-1,9
 91 622 91 622 121 651 c 1,10,-1
 158 684 l 2,11,12
 184 707 184 707 204 707 c 128,-1,13
 224 707 224 707 271 683.5 c 128,-1,14
 318 660 318 660 327.5 660 c 128,-1,15
 337 660 337 660 355 680 c 1,16,17
 375 698 375 698 392 698 c 1,18,19
 407 696 407 696 421.5 681.5 c 128,-1,20
 436 667 436 667 436 647 c 1,21,22
 434 628 434 628 404 601 c 1,0,1
483 322 m 2,23,-1
 483 114 l 2,24,25
 483 31.46875 483 31.46875 446 9.5 c 0,26,27
 430 0 430 0 405 0 c 0,28,29
 359 0 359 0 344 30.5 c 128,-1,30
 329 61 329 61 329 114 c 2,31,-1
 329 309 l 2,32,33
 329 344 329 344 320.5 363.5 c 128,-1,34
 312 383 312 383 285 383 c 0,35,36
 248 383 248 383 234 337.5 c 128,-1,37
 220 292 220 292 220 209 c 2,38,-1
 220 114 l 2,39,40
 220 31.46875 220 31.46875 183 9.5 c 0,41,42
 167 0 167 0 142 0 c 0,43,44
 96 0 96 0 81 30.5 c 128,-1,45
 66 61 66 61 66 114 c 2,46,-1
 66 387 l 2,47,48
 66 472.727272727 66 472.727272727 99.5 491 c 0,49,50
 116 500 116 500 142 500 c 0,51,52
 220 500 220 500 220 416 c 1,53,54
 230 450 230 450 257 475 c 128,-1,55
 284 500 284 500 329 500 c 0,56,57
 392 500 392 500 437.5 457 c 128,-1,58
 483 414 483 414 483 322 c 2,23,-1
EndSplineSet
EndChar

StartChar: Ugrave
Encoding: 217 217 153
Width: 604
Flags: MW
HStem: -4 118<271 335.5 271 372> 680 20G<115.5 193 413 490.5> 905 20G<249.5 263>
VStem: 71 166<205 586 192 614.5> 369 166<192 205 205 586>
LayerCount: 2
Fore
SplineSet
286 916 m 2,0,-1
 398 848 l 1,1,2
 420 833 420 833 420 810.5 c 128,-1,3
 420 788 420 788 409 773 c 0,4,5
 393 750 393 750 368.5 750 c 128,-1,6
 344 750 344 750 332 758 c 2,7,-1
 222 825 l 1,8,9
 197 842 197 842 197 863.5 c 128,-1,10
 197 885 197 885 210.5 905 c 128,-1,11
 224 925 224 925 258 925 c 0,12,13
 272 925 272 925 286 916 c 2,0,-1
71 205 m 2,14,-1
 71 586 l 2,15,16
 71 652.882352941 71 652.882352941 91.5 677 c 0,17,18
 111.05 700 111.05 700 146.525 700 c 128,-1,19
 182 700 182 700 199.5 691 c 128,-1,20
 217 682 217 682 225 663.5 c 0,21,22
 237 635.75 237 635.75 237 586 c 2,23,-1
 237 192 l 2,24,25
 237 144.222222222 237 144.222222222 271.5 122.5 c 0,26,27
 285 114 285 114 308.5 114 c 128,-1,28
 332 114 332 114 348.5 133.5 c 128,-1,29
 365 153 365 153 367 172.5 c 2,30,-1
 369 192 l 1,31,-1
 369 586 l 2,32,33
 369 671.714285714 369 671.714285714 406.5 691 c 0,34,35
 424 700 424 700 449 700 c 128,-1,36
 474 700 474 700 490 693.5 c 128,-1,37
 506 687 506 687 514.5 677 c 128,-1,38
 523 667 523 667 528 650.5 c 0,39,40
 535 627.4 535 627.4 535 586 c 2,41,-1
 535 205 l 2,42,43
 535 104 535 104 472 50 c 128,-1,44
 409 -4 409 -4 303 -4 c 128,-1,45
 197 -4 197 -4 134 51 c 128,-1,46
 71 106 71 106 71 205 c 2,14,-1
EndSplineSet
EndChar

StartChar: Ecircumflex
Encoding: 202 202 154
Width: 493
Flags: MW
HStem: 0 148<107.5 341 222 341 222 341> 286 136<222 285 222 285> 422 130<222 285 285 312> 552 148<222 341 222 222> 700 50<154 168 154 341 348 362> 927 20G<253 263 263 263>
VStem: 70 152<148 286 422 552>
LayerCount: 2
Fore
SplineSet
145 700 m 2,0,-1
 341 700 l 2,1,2
 424.75 700 424.75 700 446 666 c 0,3,4
 456 650 456 650 456 626 c 128,-1,5
 456 602 456 602 446 586 c 128,-1,6
 436 570 436 570 417.5 563 c 0,7,8
 388.428571429 552 388.428571429 552 341 552 c 2,9,-1
 222 552 l 1,10,-1
 222 422 l 1,11,-1
 285 422 l 2,12,13
 369.689655172 422 369.689655172 422 388 392.5 c 0,14,15
 397 378 397 378 397 354 c 128,-1,16
 397 330 397 330 388 315.5 c 128,-1,17
 379 301 379 301 360.5 295 c 0,18,19
 332.75 286 332.75 286 285 286 c 2,20,-1
 222 286 l 1,21,-1
 222 148 l 1,22,-1
 341 148 l 2,23,24
 424.387096774 148 424.387096774 148 446 114.5 c 0,25,26
 456 99 456 99 456 74.5 c 128,-1,27
 456 50 456 50 446 34 c 128,-1,28
 436 18 436 18 417.5 11 c 0,29,30
 388.428571429 -1.59872115546e-14 388.428571429 -1.59872115546e-14 341 0 c 2,31,-1
 145 0 l 2,32,33
 92 0 92 0 79.5 37.5 c 0,34,35
 70 66 70 66 70 115 c 2,36,-1
 70 585 l 2,37,38
 70 673 70 673 102 691 c 0,39,40
 118 700 118 700 145 700 c 2,0,-1
301 930 m 1,41,-1
 396 840 l 2,42,43
 410 826 410 826 410 804 c 128,-1,44
 410 782 410 782 392.5 766 c 128,-1,45
 375 750 375 750 350.5 750 c 128,-1,46
 326 750 326 750 313 766 c 1,47,-1
 258 818 l 1,48,-1
 203 766 l 1,49,50
 190 750 190 750 165.5 750 c 128,-1,51
 141 750 141 750 123.5 766 c 128,-1,52
 106 782 106 782 106 804 c 128,-1,53
 106 826 106 826 120 840 c 2,54,-1
 215 930 l 2,55,56
 231 946 231 946 253 947 c 1,57,-1
 263 947 l 1,58,59
 286 946 286 946 301 930 c 1,41,-1
EndSplineSet
EndChar

StartChar: Icircumflex
Encoding: 206 206 155
Width: 333
Flags: MW
HStem: 0 21G<128.5 206> 700 50 927 20G<162 172 172 172>
VStem: 84 166<115 585>
LayerCount: 2
Fore
SplineSet
84 115 m 2,0,-1
 84 585 l 2,1,2
 84 651.882352941 84 651.882352941 104.5 676 c 128,-1,3
 124.9 700 124.9 700 167 700 c 0,4,5
 227.696969697 700 227.696969697 700 243 649.5 c 0,6,7
 250 626.4 250 626.4 250 585 c 2,8,-1
 250 115 l 2,9,10
 250 28.2857142857 250 28.2857142857 212.5 9 c 0,11,12
 195 0 195 0 170 0 c 128,-1,13
 145 0 145 0 129 7 c 128,-1,14
 113 14 113 14 104.5 23.5 c 128,-1,15
 96 33 96 33 91 49.5 c 0,16,17
 84 72.6 84 72.6 84 115 c 2,0,-1
210 930 m 2,18,-1
 305 840 l 2,19,20
 319 826 319 826 319 804 c 128,-1,21
 319 782 319 782 301.5 766 c 128,-1,22
 284 750 284 750 259.5 750 c 128,-1,23
 235 750 235 750 222 766 c 1,24,-1
 167 818 l 1,25,-1
 112 766 l 1,26,27
 99 750 99 750 74.5 750 c 128,-1,28
 50 750 50 750 32.5 766 c 128,-1,29
 15 782 15 782 15 804 c 128,-1,30
 15 826 15 826 29 840 c 2,31,-1
 124 930 l 2,32,33
 140 946 140 946 162 947 c 1,34,-1
 172 947 l 1,35,36
 194 946 194 946 210 930 c 2,18,-1
EndSplineSet
EndChar

StartChar: Ocircumflex
Encoding: 212 212 156
Width: 562
Flags: MW
HStem: -4 123<256.5 275 275 292> 575 129<275 292 292 311 275 316> 927 20G<278 288 288 288>
VStem: 52 166<203 502 502 510> 349 164<184 203 203 502>
LayerCount: 2
Fore
SplineSet
326 930 m 2,0,-1
 421 840 l 2,1,2
 435 826 435 826 435 804 c 128,-1,3
 435 782 435 782 417.5 766 c 128,-1,4
 400 750 400 750 375.5 750 c 128,-1,5
 351 750 351 750 338 766 c 1,6,-1
 283 818 l 1,7,-1
 228 766 l 1,8,9
 215 750 215 750 190.5 750 c 128,-1,10
 166 750 166 750 148.5 766 c 128,-1,11
 131 782 131 782 131 804 c 128,-1,12
 131 826 131 826 145 840 c 2,13,-1
 240 930 l 2,14,15
 256 946 256 946 278 947 c 1,16,-1
 288 947 l 1,17,18
 310 946 310 946 326 930 c 2,0,-1
52 502 m 2,19,20
 52 556 52 556 72.5 596.5 c 128,-1,21
 93 637 93 637 119.5 657 c 128,-1,22
 146 677 146 677 181.5 688.5 c 0,23,24
 229.347826087 704 229.347826087 704 275 704 c 2,25,-1
 292 704 l 2,26,27
 317.636363636 704 317.636363636 704 355.818181818 696.5 c 128,-1,28
 394 689 394 689 417.5 675 c 128,-1,29
 441 661 441 661 463.5 640.5 c 0,30,31
 513 595.4 513 595.4 513 502 c 2,32,-1
 513 203 l 2,33,34
 513 107.2 513 107.2 463.5 61 c 128,-1,35
 414.17447496 14.9628432956 414.17447496 14.9628432956 366 5.5 c 128,-1,36
 317.636363636 -4 317.636363636 -4 292 -4 c 2,37,-1
 275 -4 l 2,38,39
 228.833333333 -4 228.833333333 -4 187.416666667 10 c 128,-1,40
 146 24 146 24 119.5 44 c 128,-1,41
 93 64 93 64 72.5 105.5 c 128,-1,42
 52 147 52 147 52 203 c 2,43,-1
 52 502 l 2,19,20
218 184 m 2,44,45
 218 143.888888889 218 143.888888889 252.5 126 c 0,46,47
 266 119 266 119 289 119 c 128,-1,48
 312 119 312 119 328.5 135.5 c 128,-1,49
 345 152 345 152 347 168 c 2,50,-1
 349 184 l 1,51,-1
 349 510 l 2,52,53
 349 550.62962963 349 550.62962963 315.5 568 c 0,54,55
 302 575 302 575 278.5 575 c 128,-1,56
 255 575 255 575 238.5 558.5 c 128,-1,57
 222 542 222 542 220 526 c 2,58,-1
 218 510 l 1,59,-1
 218 184 l 2,44,45
EndSplineSet
EndChar

StartChar: Ucircumflex
Encoding: 219 219 157
Width: 604
Flags: MW
HStem: -4 118<271 335.5 271 372> 700 50<115.5 214> 927 20G<299 309 309 309>
VStem: 71 166<205 586 192 614.5> 369 166<192 205 205 586>
LayerCount: 2
Fore
SplineSet
347 930 m 2,0,-1
 442 840 l 2,1,2
 456 826 456 826 456 804 c 128,-1,3
 456 782 456 782 438.5 766 c 128,-1,4
 421 750 421 750 396.5 750 c 128,-1,5
 372 750 372 750 359 766 c 1,6,-1
 304 818 l 1,7,-1
 249 766 l 1,8,9
 236 750 236 750 211.5 750 c 128,-1,10
 187 750 187 750 169.5 766 c 128,-1,11
 152 782 152 782 152 804 c 128,-1,12
 152 826 152 826 166 840 c 2,13,-1
 261 930 l 2,14,15
 277 946 277 946 299 947 c 1,16,-1
 309 947 l 1,17,18
 331 946 331 946 347 930 c 2,0,-1
71 205 m 2,19,-1
 71 586 l 2,20,21
 71 652.882352941 71 652.882352941 91.5 677 c 0,22,23
 111.05 700 111.05 700 146.525 700 c 128,-1,24
 182 700 182 700 199.5 691 c 128,-1,25
 217 682 217 682 225 663.5 c 0,26,27
 237 635.75 237 635.75 237 586 c 2,28,-1
 237 192 l 2,29,30
 237 144.222222222 237 144.222222222 271.5 122.5 c 0,31,32
 285 114 285 114 308.5 114 c 128,-1,33
 332 114 332 114 348.5 133.5 c 128,-1,34
 365 153 365 153 367 172.5 c 2,35,-1
 369 192 l 1,36,-1
 369 586 l 2,37,38
 369 671.714285714 369 671.714285714 406.5 691 c 0,39,40
 424 700 424 700 449 700 c 128,-1,41
 474 700 474 700 490 693.5 c 128,-1,42
 506 687 506 687 514.5 677 c 128,-1,43
 523 667 523 667 528 650.5 c 0,44,45
 535 627.4 535 627.4 535 586 c 2,46,-1
 535 205 l 2,47,48
 535 104 535 104 472 50 c 128,-1,49
 409 -4 409 -4 303 -4 c 128,-1,50
 197 -4 197 -4 134 51 c 128,-1,51
 71 106 71 106 71 205 c 2,19,-1
EndSplineSet
EndChar

StartChar: Acircumflex
Encoding: 194 194 158
Width: 552
Flags: MW
HStem: 0 21G<71.5 140.5 411.5 480> 170 132<197 356 197 376 176 356> 700 50 927 20G<272 282 282 282>
VStem: 40 136 376 139<100 115 75 170 75 170>
LayerCount: 2
Fore
SplineSet
271 570 m 1,0,-1
 197 302 l 1,1,-1
 356 302 l 1,2,-1
 282 570 l 1,3,-1
 271 570 l 1,0,-1
511 253 m 1,4,-1
 515 115 l 1,5,-1
 515 100 l 2,6,7
 515 37.1428571429 515 37.1428571429 500 20 c 0,8,9
 482.5 6.57252030578e-14 482.5 6.57252030578e-14 454.25 3.28626015289e-14 c 128,-1,10
 426 0 426 0 412.5 6 c 128,-1,11
 399 12 399 12 391.5 20 c 128,-1,12
 384 28 384 28 380.5 43.5 c 0,13,14
 376 63.4285714286 376 63.4285714286 376 100 c 2,15,-1
 376 170 l 1,16,-1
 176 170 l 1,17,-1
 176 100 l 2,18,19
 176 36.5333333333 176 36.5333333333 160.5 20 c 0,20,21
 141.75 0 141.75 0 113.875 0 c 128,-1,22
 86 0 86 0 72.5 6 c 128,-1,23
 59 12 59 12 52 20 c 128,-1,24
 45 28 45 28 41.5 44 c 0,25,26
 37 64.5714285714 37 64.5714285714 37 100 c 2,27,-1
 37 115 l 2,28,29
 37 127 37 127 40 253 c 1,30,31
 56 308 56 308 92 427 c 128,-1,32
 128 546 128 546 143 599 c 128,-1,33
 158 652 158 652 179.5 676 c 128,-1,34
 201 700 201 700 251 700 c 2,35,-1
 301 700 l 2,36,37
 351 700 351 700 372.5 676 c 128,-1,38
 394 652 394 652 407 606 c 2,39,-1
 511 253 l 1,4,-1
320 930 m 1,40,-1
 415 840 l 2,41,42
 429 826 429 826 429 804 c 128,-1,43
 429 782 429 782 411.5 766 c 128,-1,44
 394 750 394 750 369.5 750 c 128,-1,45
 345 750 345 750 332 766 c 1,46,-1
 277 818 l 1,47,-1
 222 766 l 1,48,49
 209 750 209 750 184.5 750 c 128,-1,50
 160 750 160 750 142.5 766 c 128,-1,51
 125 782 125 782 125 804 c 128,-1,52
 125 826 125 826 139 840 c 2,53,-1
 234 930 l 2,54,55
 250 946 250 946 272 947 c 1,56,-1
 282 947 l 1,57,58
 305 946 305 946 320 930 c 1,40,-1
EndSplineSet
EndChar

StartChar: Oslash
Encoding: 216 216 159
Width: 564
Flags: MW
HStem: 0 123<261.5 275 275 292> 571 129<275 292 292 306>
VStem: 52 167<304 498 498 506 304 594.5> 348 165<188 207 207 391 391 391>
LayerCount: 2
Fore
SplineSet
52 498 m 2,0,1
 52 552 52 552 72.5 592.5 c 128,-1,2
 93 633 93 633 119.5 653 c 128,-1,3
 146 673 146 673 181.5 684.5 c 0,4,5
 229.347826087 700 229.347826087 700 275 700 c 2,6,-1
 292 700 l 2,7,8
 317.636363636 700 317.636363636 700 355.818181818 692.5 c 128,-1,9
 394 685 394 685 417.5 671 c 128,-1,10
 441 657 441 657 463.5 636.5 c 0,11,12
 513 591.4 513 591.4 513 498 c 2,13,-1
 513 207 l 2,14,15
 513 111.2 513 111.2 463.5 65 c 128,-1,16
 414.17447496 18.9628432956 414.17447496 18.9628432956 366 9.5 c 128,-1,17
 317.636363636 -1.7763568394e-15 317.636363636 -1.7763568394e-15 292 0 c 2,18,-1
 275 0 l 2,19,20
 228.833333333 0 228.833333333 0 187.416666667 14 c 128,-1,21
 146 28 146 28 119.5 48 c 128,-1,22
 93 68 93 68 72.5 109.5 c 128,-1,23
 52 151 52 151 52 207 c 2,24,-1
 52 498 l 2,0,1
284 123 m 0,25,26
 312 123 312 123 328 139.5 c 128,-1,27
 344 156 344 156 346 172 c 2,28,-1
 348 188 l 1,29,-1
 348 391 l 1,30,-1
 221 172 l 1,31,32
 231 123 231 123 284 123 c 0,25,26
284 571 m 0,33,34
 255 571 255 571 239 554.5 c 128,-1,35
 223 538 223 538 221 522 c 2,36,-1
 219 506 l 1,37,-1
 219 304 l 1,38,-1
 346 523 l 1,39,40
 333 571 333 571 284 571 c 0,33,34
EndSplineSet
EndChar

StartChar: oslash
Encoding: 248 248 160
Width: 500
Flags: MW
HStem: 0 102<242 275.5> 389 111<229 260>
VStem: 40 154<219 312 312 334 219 404> 308 149<153 188 188 280 280 280>
LayerCount: 2
Fore
SplineSet
40 312 m 2,0,1
 40 364 40 364 58.5 402 c 128,-1,2
 77 440 77 440 100.5 458 c 128,-1,3
 124 476 124 476 158.5 486.5 c 128,-1,4
 193 497 193 497 211.5 498.5 c 128,-1,5
 230 500 230 500 248 500 c 128,-1,6
 266 500 266 500 278.5 499.5 c 128,-1,7
 291 499 291 499 313 495 c 128,-1,8
 335 491 335 491 352.5 484 c 128,-1,9
 370 477 370 477 390.5 463 c 128,-1,10
 411 449 411 449 425 430 c 0,11,12
 457 386.571428571 457 386.571428571 457 312 c 2,13,-1
 457 188 l 2,14,15
 457 57.8 457 57.8 352.5 16 c 0,16,17
 317.666666667 2.06666666667 317.666666667 2.06666666667 291.833333333 1.03333333333 c 128,-1,18
 266 0 266 0 248 0 c 128,-1,19
 230 0 230 0 211.5 1.5 c 128,-1,20
 193 3 193 3 158.5 13.5 c 128,-1,21
 124 24 124 24 100.5 42 c 128,-1,22
 77 60 77 60 58.5 98 c 128,-1,23
 40 136 40 136 40 188 c 2,24,-1
 40 312 l 2,0,1
212 114 m 1,25,26
 226 102 226 102 251.5 102 c 128,-1,27
 277 102 277 102 291 115 c 128,-1,28
 305 128 305 128 306.5 140.5 c 2,29,-1
 308 153 l 1,30,-1
 308 280 l 1,31,-1
 212 114 l 1,25,26
286 379 m 1,32,33
 273 389 273 389 249.5 389 c 128,-1,34
 226 389 226 389 211.5 375.5 c 128,-1,35
 197 362 197 362 195.5 348 c 2,36,-1
 194 334 l 1,37,-1
 194 219 l 1,38,-1
 286 379 l 1,32,33
EndSplineSet
EndChar

StartChar: registered
Encoding: 174 174 161
Width: 712
Flags: MW
HStem: 78 45<275.5 432.5 275.5 449> 340 200<319 346 319 319> 624 44<275.5 437.5>
VStem: 58 47<289 459 289 475> 246 73<259 340 393 485> 383 73<255.5 258 258 291 255.5 305> 395 74<433.5 463.5> 604 44<289 459>
LayerCount: 2
Fore
SplineSet
246 259 m 2,0,-1
 246 487 l 2,1,2
 246 528 246 528 262 536 c 0,3,4
 270 540 270 540 283 540 c 2,5,-1
 361 540 l 2,6,7
 397.666666667 540 397.666666667 540 431.5 519 c 0,8,9
 446 510 446 510 457.5 489.5 c 128,-1,10
 469 469 469 469 469 449.5 c 128,-1,11
 469 430 469 430 465.5 416.5 c 128,-1,12
 462 403 462 403 447 385.5 c 128,-1,13
 432 368 432 368 407 360 c 1,14,15
 427 355 427 355 441.5 337.5 c 128,-1,16
 456 320 456 320 456 291 c 2,17,-1
 456 258 l 2,18,19
 456 251 456 251 461 249 c 1,20,21
 469 241 469 241 469 231 c 0,22,23
 469 200 469 200 430 200 c 0,24,25
 412 200 412 200 397.5 210.5 c 128,-1,26
 383 221 383 221 383 240 c 2,27,-1
 383 291 l 2,28,29
 383 315 383 315 375.5 327.5 c 128,-1,30
 368 340 368 340 346 340 c 2,31,-1
 319 340 l 1,32,-1
 319 259 l 2,33,34
 319 240 319 240 318 230.5 c 128,-1,35
 317 221 317 221 308.5 212 c 128,-1,36
 300 203 300 203 283 203 c 128,-1,37
 266 203 266 203 257 212 c 128,-1,38
 248 221 248 221 247 230.5 c 128,-1,39
 246 240 246 240 246 259 c 2,0,-1
352 393 m 2,40,41
 368 393 368 393 381.5 406.5 c 128,-1,42
 395 420 395 420 395 440.5 c 128,-1,43
 395 461 395 461 385 472 c 128,-1,44
 375 483 375 483 365 484 c 2,45,-1
 355 485 l 1,46,-1
 319 485 l 1,47,-1
 319 393 l 1,48,-1
 352 393 l 2,40,41
538.5 186.5 m 128,-1,50
 604 250 604 250 604 376 c 128,-1,51
 604 502 604 502 542.5 563 c 128,-1,52
 481 624 481 624 354 624 c 0,53,54
 105 624 105 624 105 371 c 0,55,56
 105 249 105 249 170 186 c 128,-1,57
 235 123 235 123 354 123 c 128,-1,49
 473 123 473 123 538.5 186.5 c 128,-1,50
576.5 596.5 m 128,-1,59
 648 525 648 525 648 375 c 128,-1,60
 648 225 648 225 573 151.5 c 128,-1,61
 498 78 498 78 355 78 c 128,-1,62
 212 78 212 78 135 151.5 c 128,-1,63
 58 225 58 225 58 372 c 0,64,65
 58 668 58 668 355 668 c 0,66,58
 505 668 505 668 576.5 596.5 c 128,-1,59
EndSplineSet
EndChar

StartChar: copyright
Encoding: 169 169 162
Width: 735
Flags: MW
HStem: 78 45<285.5 442.5 285.5 459> 205 56<353.5 383.5 353 398.5> 205 136<353.5 466> 399 144<368 466> 481 62<368 383.5> 624 44<285.5 447.5>
VStem: 68 47<289 459 289 475> 255 83<304 436 436 449 299 489.5> 405 80<304 318.5 283 325 425 440> 614 44<289 459>
LayerCount: 2
Fore
SplineSet
368 481 m 0,0,1
 342 481 342 481 338 449 c 1,2,-1
 338 298 l 2,3,4
 338 284.5 338 284.5 343.5 276.25 c 128,-1,5
 349 268 349 268 352 266 c 0,6,7
 359.5 261 359.5 261 368 261 c 0,8,9
 405 261 405 261 405 319 c 0,10,11
 405 330 405 330 413 335.5 c 128,-1,12
 421 341 421 341 442.5 341 c 128,-1,13
 464 341 464 341 473.5 335 c 0,14,15
 485 327.736842105 485 327.736842105 485 318 c 0,16,17
 485 266 485 266 451 235.5 c 128,-1,18
 417 205 417 205 363 205 c 0,19,20
 291 205 291 205 265 257 c 0,21,22
 255 277 255 277 255 304 c 2,23,-1
 255 436 l 2,24,25
 255 466 255 466 266.5 488 c 128,-1,26
 278 510 278 510 295 520 c 0,27,28
 331.394366197 541.408450704 331.394366197 541.408450704 356.5 542.5 c 2,29,-1
 368 543 l 1,30,31
 405 543 405 543 430.5 531 c 128,-1,32
 456 519 456 519 466.5 499 c 0,33,34
 485 463.761904762 485 463.761904762 485 430 c 0,35,36
 485 422 485 422 484 417 c 128,-1,37
 483 412 483 412 473.5 405.5 c 128,-1,38
 464 399 464 399 447 399 c 0,39,40
 405 399 405 399 405 422 c 0,41,42
 405 452 405 452 397.5 466.5 c 128,-1,43
 390 481 390 481 368 481 c 0,0,1
548.5 186.5 m 128,-1,45
 614 250 614 250 614 376 c 128,-1,46
 614 502 614 502 552.5 563 c 128,-1,47
 491 624 491 624 364 624 c 0,48,49
 115 624 115 624 115 371 c 0,50,51
 115 249 115 249 180 186 c 128,-1,52
 245 123 245 123 364 123 c 128,-1,44
 483 123 483 123 548.5 186.5 c 128,-1,45
586.5 596.5 m 128,-1,54
 658 525 658 525 658 375 c 128,-1,55
 658 225 658 225 583 151.5 c 128,-1,56
 508 78 508 78 365 78 c 128,-1,57
 222 78 222 78 145 151.5 c 128,-1,58
 68 225 68 225 68 372 c 0,59,60
 68 668 68 668 365 668 c 0,61,53
 515 668 515 668 586.5 596.5 c 128,-1,54
EndSplineSet
EndChar

StartChar: ordmasculine
Encoding: 186 186 163
Width: 395
Flags: MW
HStem: 421 57<181.5 207.5> 638 62<181.5 207.5 181.5 210>
VStem: 76 86<526 595 595 607> 226 83<506 526 526 595 474.5 607 474.5 607>
LayerCount: 2
Fore
SplineSet
76 595 m 2,0,1
 76 631 76 631 90 654.5 c 128,-1,2
 104 678 104 678 127 686.5 c 0,3,4
 163.529411765 700 163.529411765 700 194 700 c 0,5,6
 309 700 309 700 309 595 c 2,7,-1
 309 526 l 2,8,9
 309 421 309 421 194 421 c 0,10,11
 163.529411765 421 163.529411765 421 133.764705882 432 c 0,12,13
 76 453.347826087 76 453.347826087 76 526 c 2,14,-1
 76 595 l 2,0,1
162 506 m 2,15,16
 162 496 162 496 171 487 c 128,-1,17
 180 478 180 478 194 478 c 128,-1,18
 208 478 208 478 216 485 c 128,-1,19
 224 492 224 492 226 506 c 1,20,-1
 226 607 l 2,21,22
 226 618.875 226 618.875 217 628.4375 c 128,-1,23
 208 638 208 638 194 638 c 128,-1,24
 180 638 180 638 172 630 c 128,-1,25
 164 622 164 622 162 607 c 1,26,-1
 162 506 l 2,15,16
EndSplineSet
EndChar

StartChar: macron
Encoding: 175 175 164
Width: 498
Flags: MW
HStem: 579 122<120.5 360 139 167 167 360>
LayerCount: 2
Fore
SplineSet
360 579 m 2,0,-1
 139 579 l 2,1,2
 105 579 105 579 86 590.5 c 128,-1,3
 67 602 67 602 67 634.5 c 128,-1,4
 67 667 67 667 78.5 681.5 c 128,-1,5
 90 696 90 696 103 698.5 c 128,-1,6
 116 701 116 701 139 701 c 2,7,-1
 360 701 l 2,8,9
 382 701 382 701 395 698.5 c 128,-1,10
 408 696 408 696 420 681 c 128,-1,11
 432 666 432 666 432 634.5 c 128,-1,12
 432 603 432 603 412 591 c 128,-1,13
 392 579 392 579 360 579 c 2,0,-1
EndSplineSet
EndChar

StartChar: ordfeminine
Encoding: 170 170 165
Width: 399
Flags: MW
HStem: 422 65<169.5 174.5 169.5 280> 634 66<169.5 278.5> 679 20G<136 174.5>
VStem: 70 86<520 528 528 595 518 601 518 638> 217 84<461.5 485 569 581>
LayerCount: 2
Fore
SplineSet
301 485 m 2,0,1
 301 465 301 465 299.5 454 c 128,-1,2
 298 443 298 443 288.5 432.5 c 128,-1,3
 279 422 279 422 260 422 c 0,4,5
 217 422 217 422 217 469 c 1,6,7
 202 422 202 422 156 422 c 0,8,9
 121 422 121 422 95.5 446 c 128,-1,10
 70 470 70 470 70 520 c 2,11,-1
 70 601 l 2,12,13
 70 652 70 652 95.5 675.5 c 128,-1,14
 121 699 121 699 156 699 c 0,15,16
 202 699 202 699 217 653 c 1,17,18
 217 700 217 700 260 700 c 0,19,20
 285 700 285 700 293 683.5 c 128,-1,21
 301 667 301 667 301 637 c 2,22,-1
 301 485 l 2,0,1
156 595 m 2,23,-1
 156 528 l 2,24,25
 156 487 156 487 181 487 c 0,26,27
 202 487 202 487 209 505.5 c 128,-1,28
 216 524 216 524 216.5 558.5 c 0,29,30
 217.594202899 634 217.594202899 634 181 634 c 0,31,32
 156 634 156 634 156 595 c 2,23,-1
EndSplineSet
EndChar

StartChar: onesuperior
Encoding: 185 185 166
Width: 316
Flags: MW
HStem: 423 21G<181.5 215> 675 20G<195 215.5>
VStem: 96 137<603.5 621> 165 68<472 475 475 595 595 595>
LayerCount: 2
Fore
SplineSet
165 472 m 2,0,-1
 165 595 l 1,1,2
 144 580 144 580 129 580 c 0,3,4
 114 580 114 580 105 589.5 c 128,-1,5
 96 599 96 599 96 607.5 c 0,6,7
 96 616 96 616 97 620 c 128,-1,8
 98 624 98 624 99.5 626 c 128,-1,9
 101 628 101 628 104.5 631 c 128,-1,10
 108 634 108 634 109.5 635 c 128,-1,11
 111 636 111 636 116 639 c 128,-1,12
 121 642 121 642 130 647.5 c 0,13,14
 139 653 139 653 158 671 c 128,-1,15
 177 689 177 689 182 692 c 0,16,17
 187 695 187 695 200.5 695 c 0,18,19
 214 695 214 695 222.5 686 c 128,-1,20
 231 677 231 677 232 668.5 c 128,-1,21
 233 660 233 660 233 644 c 2,22,-1
 233 475 l 2,23,24
 233 458 233 458 231.5 449 c 128,-1,25
 230 440 230 440 222 431.5 c 128,-1,26
 214 423 214 423 198.5 423 c 0,27,28
 183 423 183 423 175 431.5 c 128,-1,29
 167 440 167 440 166 448 c 128,-1,30
 165 456 165 456 165 472 c 2,0,-1
EndSplineSet
EndChar

StartChar: foursuperior
Encoding: 8308 8308 167
Width: 326
Flags: MW
HStem: 492 116<103.5 226.5 120 226.5> 492 209<103.5 160.5 142.5 160.5 142.5 187>
VStem: 187 56<454 455 455 492 492 492 547 572>
LayerCount: 2
Fore
SplineSet
241.5 591 m 0,0,1
 243 584 243 584 243 572 c 2,2,-1
 243 455 l 2,3,4
 243 423 243 423 216 423 c 0,5,6
 187 423 187 423 187 454 c 2,7,-1
 187 492 l 1,8,-1
 120 492 l 2,9,10
 78 492 78 492 78 513 c 0,11,12
 78 516 78 516 122 672 c 0,13,14
 130 701 130 701 153 701 c 128,-1,15
 176 701 176 701 176 672 c 0,16,17
 176 665.571428571 176 665.571428571 162.5 614.785714286 c 128,-1,18
 149 564 149 564 146 547 c 1,19,-1
 187 547 l 1,20,-1
 187 574 l 2,21,22
 187 608 187 608 212.428571429 608 c 128,-1,23
 237.857142857 608 237.857142857 608 241.5 591 c 0,0,1
EndSplineSet
EndChar

StartChar: threesuperior
Encoding: 179 179 168
Width: 333
Flags: MW
HStem: 422 48<143 161.5 143 186> 422 107<88.5 186> 548 147<153 173.5> 639 56<108 204 120 165>
VStem: 67 178<491 500 500 505 477.5 509> 188 57<491 500 500 505 477.5 523.5>
LayerCount: 2
Fore
SplineSet
142 595 m 1,0,-1
 165 639 l 1,1,-1
 117 639 l 2,2,3
 76 639 76 639 76 664 c 0,4,5
 76 684 76 684 88 689.5 c 128,-1,6
 100 695 100 695 120 695 c 2,7,-1
 204 695 l 2,8,9
 219 695 219 695 227.5 686 c 128,-1,10
 236 677 236 677 236 666.5 c 128,-1,11
 236 656 236 656 234 652 c 2,12,-1
 194 589 l 1,13,14
 230.889328063 584.901185771 230.889328063 584.901185771 239 555.5 c 0,15,16
 245 533.75 245 533.75 245 505 c 2,17,-1
 245 500 l 2,18,19
 245 465 245 465 222 443.5 c 128,-1,20
 199 422 199 422 163.5 422 c 128,-1,21
 128 422 128 422 109 431 c 128,-1,22
 90 440 90 440 81.5 454.5 c 0,23,24
 67 479.235294118 67 479.235294118 67 496.117647059 c 128,-1,25
 67 513 67 513 75.5 521 c 128,-1,26
 84 529 84 529 95.5 529 c 128,-1,27
 107 529 107 529 116.5 521.5 c 128,-1,28
 126 514 126 514 126 500 c 0,29,30
 126 470 126 470 157 470 c 128,-1,31
 188 470 188 470 188 509 c 0,32,33
 188 532 188 532 183.5 540 c 128,-1,34
 179 548 179 548 164 548 c 128,-1,35
 149 548 149 548 142 555.5 c 128,-1,36
 135 563 135 563 135 570.5 c 128,-1,37
 135 578 135 578 142 595 c 1,0,-1
EndSplineSet
EndChar

StartChar: twosuperior
Encoding: 178 178 169
Width: 320
Flags: MW
HStem: 425 58<91.5 202 133 202 133 202> 593 106<88.5 186>
VStem: 68 58<611 627 610.5 628.5> 187 59<614 634.5>
LayerCount: 2
Fore
SplineSet
99.5 682 m 128,-1,1
 121 699 121 699 160.5 699 c 128,-1,2
 200 699 200 699 223 677.5 c 128,-1,3
 246 656 246 656 246 623 c 128,-1,4
 246 590 246 590 227 568.5 c 128,-1,5
 208 547 208 547 189.5 539.5 c 2,6,-1
 171 532 l 2,7,8
 133 517 133 517 133 492 c 2,9,-1
 133 483 l 1,10,-1
 202 483 l 2,11,12
 249 483 249 483 249 455 c 0,13,14
 249 441 249 441 241 434 c 128,-1,15
 233 427 233 427 225 426 c 128,-1,16
 217 425 217 425 202 425 c 2,17,-1
 104 425 l 2,18,19
 71 425 71 425 71 461 c 2,20,-1
 71 492 l 2,21,22
 71 551 71 551 140 577 c 0,23,24
 187 595 187 595 187 621 c 0,25,26
 187 650 187 650 156.5 650 c 128,-1,27
 126 650 126 650 126 621 c 0,28,29
 126 607 126 607 117 600 c 128,-1,30
 108 593 108 593 96 593 c 128,-1,31
 84 593 84 593 76 600 c 128,-1,32
 68 607 68 607 68 620 c 128,-1,33
 68 633 68 633 73 649 c 128,-1,0
 78 665 78 665 99.5 682 c 128,-1,1
EndSplineSet
EndChar

